<?xml version="1.0" encoding="UTF-8" standalone="no"?>
<!-- Created with Inkscape (http://www.inkscape.org/) -->

<svg
   xmlns:dc="http://purl.org/dc/elements/1.1/"
   xmlns:cc="http://creativecommons.org/ns#"
   xmlns:rdf="http://www.w3.org/1999/02/22-rdf-syntax-ns#"
   xmlns:svg="http://www.w3.org/2000/svg"
   xmlns="http://www.w3.org/2000/svg"
   xmlns:sodipodi="http://sodipodi.sourceforge.net/DTD/sodipodi-0.dtd"
   xmlns:inkscape="http://www.inkscape.org/namespaces/inkscape"
   width="15cm"
   height="5cm"
   viewBox="0 0 531.49607 177.16535"
   id="svg4227"
   version="1.1"
   inkscape:version="0.91 r13725"
   sodipodi:docname="flurox_azurin.svg">
  <defs
     id="defs4229">
    <marker
       inkscape:stockid="Arrow1Mstart"
       orient="auto"
       refY="0"
       refX="0"
       id="Arrow1Mstart"
       style="overflow:visible"
       inkscape:isstock="true">
      <path
         id="path5327"
         d="M 0,0 5,-5 -12.5,0 5,5 0,0 Z"
         style="fill:#000000;fill-opacity:1;fill-rule:evenodd;stroke:#000000;stroke-width:1pt;stroke-opacity:1"
         transform="matrix(0.4,0,0,0.4,4,0)"
         inkscape:connector-curvature="0" />
    </marker>
    <marker
       inkscape:stockid="Arrow1Mend"
       orient="auto"
       refY="0"
       refX="0"
       id="Arrow1Mend"
       style="overflow:visible"
       inkscape:isstock="true">
      <path
         id="path5330"
         d="M 0,0 5,-5 -12.5,0 5,5 0,0 Z"
         style="fill:#000000;fill-opacity:1;fill-rule:evenodd;stroke:#000000;stroke-width:1pt;stroke-opacity:1"
         transform="matrix(-0.4,0,0,-0.4,-4,0)"
         inkscape:connector-curvature="0" />
    </marker>
    <clipPath
       id="clipPath4888"
       clipPathUnits="userSpaceOnUse">
      <path
         inkscape:connector-curvature="0"
         id="path4890"
         d="m 27,18 167.4,0 0,108.72 -167.4,0 L 27,18 Z" />
    </clipPath>
    <clipPath
       id="clipPath4898"
       clipPathUnits="userSpaceOnUse">
      <path
         inkscape:connector-curvature="0"
         id="path4900"
         d="m 27,18 167.4,0 0,108.72 -167.4,0 L 27,18 Z" />
    </clipPath>
    <clipPath
       id="clipPath4946"
       clipPathUnits="userSpaceOnUse">
      <path
         inkscape:connector-curvature="0"
         id="path4948"
         d="m 27,18 167.4,0 0,108.72 -167.4,0 L 27,18 Z" />
    </clipPath>
  </defs>
  <sodipodi:namedview
     id="base"
     pagecolor="#ffffff"
     bordercolor="#666666"
     borderopacity="1.0"
     inkscape:pageopacity="0.0"
     inkscape:pageshadow="2"
     inkscape:zoom="2.7300296"
     inkscape:cx="265.74803"
     inkscape:cy="88.582677"
     inkscape:document-units="px"
     inkscape:current-layer="layer1"
     showgrid="false"
     units="cm"
     inkscape:window-width="1920"
     inkscape:window-height="1047"
     inkscape:window-x="0"
     inkscape:window-y="0"
     inkscape:window-maximized="1">
    <inkscape:grid
       type="xygrid"
       id="grid5313"
       empspacing="1" />
  </sodipodi:namedview>
  <metadata
     id="metadata4232">
    <rdf:RDF>
      <cc:Work
         rdf:about="">
        <dc:format>image/svg+xml</dc:format>
        <dc:type
           rdf:resource="http://purl.org/dc/dcmitype/StillImage" />
        <dc:title></dc:title>
      </cc:Work>
    </rdf:RDF>
  </metadata>
  <g
     inkscape:label="Layer 1"
     inkscape:groupmode="layer"
     id="layer1"
     transform="translate(0,-875.19689)">
    <g
       id="g5693"
       transform="translate(0,8)">
      <g
         id="g4846"
         inkscape:label="Spectral_overlap"
         transform="matrix(1.2499999,0,0,-1.2499999,-5.3115899,1028.7441)">
        <path
           d="m 72.654545,18 0,-3.5"
           style="fill:#000000;fill-opacity:1;fill-rule:nonzero;stroke:#000000;stroke-width:0.80000001;stroke-linecap:butt;stroke-linejoin:round;stroke-miterlimit:10;stroke-dasharray:none;stroke-opacity:1"
           id="path4848"
           inkscape:connector-curvature="0" />
        <text
           transform="matrix(1,0,0,-1,63.115483,3.40625)"
           style="font-variant:normal;font-weight:normal;font-size:10px;font-family:'DejaVu Sans';-inkscape-font-specification:DejaVuSans;writing-mode:lr-tb;fill:#000000;fill-opacity:1;fill-rule:nonzero;stroke:none"
           id="text4850">
          <tspan
             x="0 6.3600001 12.72"
             y="0"
             sodipodi:role="line"
             id="tspan4852">400</tspan>
        </text>
        <path
           d="m 133.52727,18 0,-3.5"
           style="fill:#000000;fill-opacity:1;fill-rule:nonzero;stroke:#000000;stroke-width:0.80000001;stroke-linecap:butt;stroke-linejoin:round;stroke-miterlimit:10;stroke-dasharray:none;stroke-opacity:1"
           id="path4854"
           inkscape:connector-curvature="0" />
        <text
           transform="matrix(1,0,0,-1,123.98821,3.40625)"
           style="font-variant:normal;font-weight:normal;font-size:10px;font-family:'DejaVu Sans';-inkscape-font-specification:DejaVuSans;writing-mode:lr-tb;fill:#000000;fill-opacity:1;fill-rule:nonzero;stroke:none"
           id="text4856">
          <tspan
             x="0 6.3600001 12.72"
             y="0"
             sodipodi:role="line"
             id="tspan4858">600</tspan>
        </text>
        <path
           d="m 194.4,18 0,-3.5"
           style="fill:#000000;fill-opacity:1;fill-rule:nonzero;stroke:#000000;stroke-width:0.80000001;stroke-linecap:butt;stroke-linejoin:round;stroke-miterlimit:10;stroke-dasharray:none;stroke-opacity:1"
           id="path4860"
           inkscape:connector-curvature="0" />
        <text
           transform="matrix(1,0,0,-1,184.86094,3.40625)"
           style="font-variant:normal;font-weight:normal;font-size:10px;font-family:'DejaVu Sans';-inkscape-font-specification:DejaVuSans;writing-mode:lr-tb;fill:#000000;fill-opacity:1;fill-rule:nonzero;stroke:none"
           id="text4862">
          <tspan
             x="0 6.3600001 12.72"
             y="0"
             sodipodi:role="line"
             id="tspan4864">800</tspan>
        </text>
        <text
           transform="matrix(1,0,0,-1,70.973437,-10.265625)"
           style="font-variant:normal;font-weight:normal;font-size:10px;font-family:'DejaVu Sans';-inkscape-font-specification:DejaVuSans;writing-mode:lr-tb;fill:#000000;fill-opacity:1;fill-rule:nonzero;stroke:none"
           id="text4866">
          <tspan
             x="0 9.8900003 16.02 21.940001 28.09 30.870001 37.02 43.360001 49.709999 53.630001 59.970001 63.34 69.68"
             y="0"
             sodipodi:role="line"
             id="tspan4868">Wavelength/nm</tspan>
        </text>
        <path
           d="m 27,18 -3.5,0"
           style="fill:#000000;fill-opacity:1;fill-rule:nonzero;stroke:#000000;stroke-width:0.80000001;stroke-linecap:butt;stroke-linejoin:round;stroke-miterlimit:10;stroke-dasharray:none;stroke-opacity:1"
           id="path4870"
           inkscape:connector-curvature="0" />
        <path
           d="m 27,42.709091 -3.5,0"
           style="fill:#000000;fill-opacity:1;fill-rule:nonzero;stroke:#000000;stroke-width:0.80000001;stroke-linecap:butt;stroke-linejoin:round;stroke-miterlimit:10;stroke-dasharray:none;stroke-opacity:1"
           id="path4872"
           inkscape:connector-curvature="0" />
        <path
           d="m 27,67.418182 -3.5,0"
           style="fill:#000000;fill-opacity:1;fill-rule:nonzero;stroke:#000000;stroke-width:0.80000001;stroke-linecap:butt;stroke-linejoin:round;stroke-miterlimit:10;stroke-dasharray:none;stroke-opacity:1"
           id="path4874"
           inkscape:connector-curvature="0" />
        <path
           d="m 27,92.127273 -3.5,0"
           style="fill:#000000;fill-opacity:1;fill-rule:nonzero;stroke:#000000;stroke-width:0.80000001;stroke-linecap:butt;stroke-linejoin:round;stroke-miterlimit:10;stroke-dasharray:none;stroke-opacity:1"
           id="path4876"
           inkscape:connector-curvature="0" />
        <path
           d="m 27,116.83636 -3.5,0"
           style="fill:#000000;fill-opacity:1;fill-rule:nonzero;stroke:#000000;stroke-width:0.80000001;stroke-linecap:butt;stroke-linejoin:round;stroke-miterlimit:10;stroke-dasharray:none;stroke-opacity:1"
           id="path4878"
           inkscape:connector-curvature="0" />
        <text
           transform="matrix(0,1,1,0,13.921875,62.977187)"
           style="font-variant:normal;font-weight:normal;font-size:10px;font-family:'DejaVu Sans';-inkscape-font-specification:DejaVuSans;writing-mode:lr-tb;fill:#000000;fill-opacity:1;fill-rule:nonzero;stroke:none"
           id="text4880">
          <tspan
             x="0 7.8699999 11.05"
             y="0"
             sodipodi:role="line"
             id="tspan4882">O.D</tspan>
        </text>
        <g
           id="g4884">
          <g
             id="g4886"
             clip-path="url(#clipPath4888)">
            <path
               d="m 194.39887,29.993058 -0.29586,-2.569532 -0.29597,4.806726 -0.33837,-4.789168 -0.29621,4.694896 -0.29634,-5.65658 -0.29643,-0.572871 -0.29656,1.101171 -0.33907,3.087764 -0.29678,-2.030315 -0.29692,-3.767081 -0.29702,6.013747 -0.29716,0.186284 -0.29725,-4.153074 -0.33984,7.193456 -0.59511,-8.547233 -0.29772,0.235414 -0.59578,4.610078 -0.29806,-1.96501 -0.34078,-4.180801 -0.2983,6.757664 -0.2984,-1.026157 -0.29853,-2.423045 -0.29863,-0.474328 -0.5976,-2.388252 -0.34168,7.210239 -0.29911,-1.800102 -0.2992,2.583234 -0.29931,0.702377 -0.29942,-7.618139 -0.29953,6.142455 -0.29965,-3.240965 -0.29976,3.52003 -0.29986,-2.828425 -0.34284,2.981388 -0.30011,-2.129899 -0.3002,-1.237656 -0.30033,1.928511 -0.30043,-2.650134 -0.30054,2.538697 -0.30065,-0.781722 -0.30076,4.422611 -0.30085,-2.764216 -0.30098,-1.359739 -0.30108,2.056877 -0.34423,-0.893054 -0.30131,2.450682 -0.30143,-3.40107 -0.30152,-0.243394 -0.30164,1.379989 -0.30174,0.857535 -0.30186,-1.380539 -0.30196,1.547762 -0.30206,-0.473872 -0.30217,0.283951 -0.30229,2.107698 -0.30237,-1.40685 -0.30251,0.787452 -0.3026,0.416651 -0.30269,-1.975773 -0.30282,1.774032 -0.30292,0.491476 -0.30302,-0.02743 -0.30312,-1.171059 -0.60657,2.188306 -0.30346,0.16072 -0.30354,-1.882145 -0.34706,1.380051 -0.30377,-1.421621 -0.30388,0.893025 -0.30397,2.016983 -0.60828,-1.002911 -0.30431,0.319789 -0.3044,2.824604 -0.30449,-2.77077 -0.30461,0.227693 -0.30472,-0.415624 -0.3048,0.738138 -0.30493,2.35425 -0.30501,0.776359 -0.26152,-1.154176 -0.61053,0.03495 -0.30543,0.319814 -0.30551,-0.163952 -0.30563,2.179987 -0.30572,-0.684341 -0.30583,-1.403358 -0.30592,2.740156 -0.30602,-1.541857 -0.30613,0.327165 -0.30624,-0.649953 -0.30633,2.637301 -0.30643,-0.574711 -0.30653,0.868622 -0.30663,0.288077 -0.30675,0.752118 -0.30683,0.215357 -0.30695,0.704892 -0.30702,0.294958 -0.30715,4.166452 -0.30722,-3.955213 -0.30734,0.108951 -0.26351,0.871309 -0.30752,-1.306691 -0.30762,4.87225 -0.30772,-1.056153 -0.30782,0.372087 -0.30791,2.46371 -0.30803,-3.220743 -0.30811,3.260251 -0.30821,1.334492 -0.30832,-4.442975 -0.6169,5.183727 -0.26452,-0.392212 -0.30869,2.142546 -0.30879,0.56541 -0.30887,0.268013 -0.30899,2.200767 -0.30909,-2.786936 -0.30917,0.295462 -0.30927,0.632665 -0.30938,1.674395 -0.57478,-0.03862 -0.30965,4.34936 -0.30975,-3.57724 -0.30982,2.74171 -0.30994,1.706781 -0.31003,-2.71062 -0.31012,1.752601 -0.26589,2.350195 -0.31031,-0.476071 -0.3104,-0.04487 -0.31049,-1.082288 -0.62127,4.57789 -0.62164,-0.04703 -0.26654,-1.155626 -0.31103,1.150278 -0.31115,2.681821 -0.31123,-0.210496 -0.31132,0.63996 -0.31142,-1.552774 -0.267,2.311403 -0.31159,1.459582 -0.31171,0.913859 -0.31177,-2.122736 -0.31187,1.752465 -0.57943,-2.733725 -0.31215,4.697567 -0.31222,-1.547305 -0.31232,-0.519366 -0.31242,2.584625 -0.3125,-0.699221 -0.26794,-0.09034 -0.31266,-1.270814 -0.31276,2.794008 -0.31288,-1.623981 -0.58125,0.746343 -0.31311,-0.912673 -0.31321,2.648678 -0.3133,-0.662188 -0.31339,-1.687042 -0.26869,1.601612 -0.31356,0.440465 -0.31364,-2.899882 -0.31374,1.496327 -0.31382,-0.334959 -0.26907,1.503276 -0.62808,-2.763615 -0.31416,1.468143 -0.26936,-0.458336 -0.31434,-0.127276 -0.62894,-1.629723 -0.3146,0.300162 -0.26972,-1.442079 -0.31476,0.243961 -0.31486,-1.274903 -0.31494,1.356948 -0.27001,-0.70331 -0.6303,-2.491962 -0.31528,0.916519 -0.27032,-0.592676 -0.31543,-0.42072 -0.31553,-1.034018 -0.3156,0.611561 -0.27059,-0.308119 -0.31577,-1.477107 -0.31587,-0.09006 -0.58682,-2.476951 -0.31611,0.210916 -0.31619,-1.926699 -0.31627,0.168052 -0.27117,0.353161 -0.31644,-1.81975 -0.31651,-0.437657 -0.31661,-1.993488 -0.27144,0.704186 -0.31676,-0.883709 -0.31685,-2.165052 -0.27165,0.126251 -0.31699,-0.298199 -0.31709,-1.440441 -0.31718,-0.119758 -0.27193,-1.534625 -0.31731,-0.421148 -0.31742,-0.840965 -0.27214,0.08095 -0.95293,-2.593473 -0.27242,-1.459735 -0.31787,0.25741 -0.59057,-1.612825 -0.31813,-2.183996 -0.31821,0.236721 -0.2728,-0.97866 -0.31835,0.43065 -0.31844,-1.750643 -0.31851,-0.239407 -0.27308,0.295821 -0.31866,-2.621341 -0.31876,1.10841 -0.27327,-1.444196 -0.63787,-0.439383 -0.27349,-1.828879 -0.31912,-0.166317 -0.3192,0.119661 -0.27368,-0.366978 -0.31935,-1.561105 -0.31945,0.125361 -0.91311,-2.721942 -0.27407,0.433198 -1.5541,-2.530242 -0.27444,-0.184581 -0.91524,-1.608102 -0.32047,-0.396319 -0.32056,-0.120217 -0.27483,-0.59936 -0.32071,-0.162137 -0.32077,-0.607329 -0.27503,0.329192 -1.23826,-1.500699 -0.27533,-0.344479 -0.91816,-0.315814 -0.32149,-0.89607 -0.27565,0.419606 -0.32164,-0.545679 -0.91938,-0.573148 -0.32192,0.249095 -0.276,-0.444487 -0.32207,0.626956 -0.27612,-0.819814 -0.3222,-0.380933 -0.32229,-0.103786 -0.2763,0.102423 -0.92139,-0.512717 -0.32263,0.29791 -0.2766,-0.409556 -0.59948,-0.490283 -0.3229,-0.494739 -0.59986,0.583314 -0.32311,-0.11067 -0.27701,-0.521574 -0.32324,0.300623 -0.32332,0.128532 -0.60063,-0.07425 -0.60087,-0.53972 -0.32365,0.24278 -0.27747,0.423792 -0.32379,-0.915238 -0.27759,0.517824 -0.3239,0.136791 -0.2777,-0.373816 -0.324044,-0.04429 -0.32412,0.239028 -0.602114,-0.49727 -0.277985,0.02389 -0.324371,0.39539 -0.278096,-0.03456 -0.3245,-0.333589 -0.324576,0.332341 -0.278254,-0.383548 -0.324705,-0.155245 -0.278375,-0.274867 -0.324826,0.94935 -0.278476,-0.644391 -0.324956,0.549434 -0.278589,-0.55538 -0.650237,0.395033 -0.278755,-0.07348 -0.325282,0.174247 -0.278857,-0.298595 -0.325402,-0.03965 -0.278969,-0.451919 -0.325532,0.49083 -0.279071,-0.476818 -0.325653,0.345265 -0.930804,-0.118571 -0.279341,-0.0087 -0.325968,-0.242169 -0.279452,0.134995 -0.32608,-0.546292 -0.279554,0.398386 -0.605867,0.0071 -0.326331,-0.335853 -0.279768,0.277205 -0.326451,0.162569 -0.606433,-0.798195 -0.606665,0.210263 -0.326749,-0.301886 -0.28013,-0.0663 -0.32687,-0.339888 -0.280232,0.312234 -0.32699,0.0582 -0.280325,0.236638 -0.327111,-0.223195 -0.280428,0.281059 -0.327232,-0.57268 -0.280529,0.157091 -0.327343,0.316062 -0.608087,-0.74319 -0.608309,0.166137 -0.280827,-0.09817 -0.936423,0.08814 -0.281022,-0.150032 -0.327928,-0.0095 -0.281115,-0.726494 -0.32804,0.732752 -0.281217,-0.478579 -0.328142,0.348379 -0.890993,-0.408349 -0.328365,0.314175 -0.281515,-0.100561 -0.328476,0.373282 -0.281607,-0.31501 -0.610288,0.0885 L 76.284719,18.296405 76.002926,18.22528 75.721087,18 l -0.328866,0.544257 -0.281923,0.05305 -0.328978,-0.500691 -0.611105,-0.04493 -0.282109,0.567647 -0.611402,-0.300402 -0.329294,-0.230652 -0.282304,0.04354 -0.329396,0.424177 -0.282396,-0.383448 -0.329507,0.134202 -0.282481,-0.03284 -0.329618,0.469545 -0.282573,-0.234178 -0.612378,-0.107508 -0.612582,-0.215071 -0.612768,0.428607 -0.282879,0.724279 -0.330084,-0.284974 -0.282972,-0.981578 -1.226669,0.85739 -0.283186,-0.397914 -0.330436,0.523933 -0.613808,-0.487384 -0.283362,0.264653 -0.330632,-0.140684 -0.283446,-0.598498 -0.330733,0.188524 -0.28353,0.708619 -0.283576,-0.123627 -0.330873,0.386191 -0.28366,-0.646358 -0.330975,-0.110892 -0.283743,0.281604 -0.331077,-0.278494 -0.283818,0.229343 -0.899028,-0.164771 -0.331319,0.215788 -0.284022,-0.161821 -0.331411,0.324601 -0.284115,-0.259394 -0.284143,-0.0614 -0.331551,0.09397 -0.284235,-0.133999 -0.331644,0.448363 -0.28431,0.134426 -0.61613,-0.05215 -0.284431,-0.228279 -0.331876,0.256073 -0.284505,-0.526712 -0.331969,0.408255 -0.284588,-0.270297 -0.284626,0.419773 -0.332108,-0.201173 -0.2847,0.103764 -0.332201,-0.441369 -0.284774,0.530245 -0.617152,-0.637592 -0.284895,0.995204 -0.332415,-0.100982 -0.284969,-0.550637 -0.332517,0.317885 -0.570134,-0.131392 -0.617793,0.582837 -0.33273,-0.663862 -0.285239,0.745415 -0.285267,0.128638 -0.33286,-0.739786 -0.285341,0.249976 -0.332944,-0.03271 -0.285425,0.294996 -0.285452,-0.144383 -0.333065,0.382176 -0.285527,-0.221117 -0.333158,0.04446 -0.285601,-0.123546 -0.285638,0.03591 -0.333278,0.27144 -0.285713,0.51282 -0.333362,-0.190272 -0.285778,-0.403718 -0.285814,0.631163 -0.952938,-0.295746 -0.285954,0.414474 -0.285991,-0.19032 -0.333688,0.641768 -0.286056,-0.686239 -0.619901,0.236186 -0.286158,0.301272 -0.333901,0.07095 -0.906496,1.712621 -0.286326,1.064019 -0.286363,1.54922 -0.334123,3.181637 -0.286428,7.448729 -0.334207,12.707634 -0.573023,31.510507 -0.334319,2.28145 -0.286585,-3.964341 -0.286623,-1.381752 -0.33444,3.395582 -1.194735,25.942465 -0.908344,8.25501 -0.334737,1.95219 -0.286939,0.27278 -0.908846,-2.4426 -0.334913,0.47164 -0.57423,-2.19141 -0.335015,-2.10813 -0.287199,-0.62944 -0.287217,-0.20683 -0.622409,-2.73201 -0.287301,-2.94606 -0.622604,-3.53886 L 30.663993,90.792838 29.75353,87.841406 29.418023,85.323101 28.84279,77.979298 28.219493,74.913438 27.931779,73.780449 27.596072,73.1986 27.0205,70.741362 l 0,0"
               style="fill:none;stroke:#0000ff;stroke-width:2;stroke-linecap:square;stroke-linejoin:round;stroke-miterlimit:10;stroke-dasharray:none;stroke-opacity:1"
               id="path4892"
               inkscape:connector-curvature="0" />
          </g>
        </g>
        <g
           id="g4894">
          <g
             id="g4896"
             clip-path="url(#clipPath4898)">
            <path
               d="m 194.39075,22.492365 -1.22647,-8.602505 -0.29633,9.615603 -0.29647,-4.36471 -0.29656,1.388526 -0.59348,-3.418366 -0.33934,-0.335344 -0.29703,-2.553089 -0.29716,0.826358 -0.29726,1.208002 -0.29738,2.193891 -0.29749,0.798967 -0.34013,-4.867647 -0.29775,5.773719 -0.59579,-3.571105 -0.29807,2.868334 -0.2982,-1.003905 -0.3409,-0.736461 -0.29844,0.538551 -0.29853,-1.97343 -0.29864,-2.724782 -0.29875,5.097871 -0.29889,1.839625 -0.29897,-3.439579 -0.29909,-1.203199 -0.34196,2.697536 -0.29933,-0.284891 -0.29943,1.582968 -0.29955,0.788217 -0.29966,-2.388035 -0.29978,-0.353023 -0.29988,0.482721 -0.29998,-0.298796 -0.30011,0.06723 -0.3431,0.411195 -0.30033,-1.41699 -0.30045,2.666605 -0.30055,-2.583764 -0.30067,-1.525064 -0.30076,2.379217 -0.30089,1.134498 -0.60207,-0.511317 -0.30121,-1.119977 -0.30132,-0.263232 -0.30143,2.442917 -0.3446,0.290003 -0.30165,-3.004198 -0.30176,2.629884 -0.30187,-1.862494 -0.30197,1.899025 -0.60427,-2.113267 -0.3023,2.256372 -0.3024,-2.223419 -0.3025,0.01169 -0.30262,2.85872 -0.30273,-1.743498 -0.30282,0.161177 -0.30293,-0.745992 -0.30305,-0.0018 -0.30314,0.562657 -0.30325,0.108345 -0.30336,0.291163 -0.30345,-0.652273 -0.60724,0.562693 -0.30377,-0.526458 -0.30388,-0.264586 -0.30399,0.452569 -0.30409,0.09878 -0.30419,-0.412819 -0.30431,0.213161 -0.3044,0.416349 -0.3045,-0.824254 -0.3046,0.762294 -0.30472,-0.735375 -0.30483,0.637917 -0.30492,-0.315965 -0.30501,0.156658 -0.30513,0.294476 -0.30523,-1.117015 -0.30533,0.674255 -0.30543,0.169238 -0.30553,-0.931816 -0.61138,0.78876 -0.30585,0.08497 -0.30595,0.349363 -0.30603,-0.925744 -0.30615,1.326838 -0.30626,-0.927235 -0.30635,0.155781 -0.613,-0.06794 -0.30665,0.617171 -0.30676,-0.730124 -0.30685,0.294132 -0.30695,-0.792761 -0.26317,1.527743 -0.30715,-0.420646 -0.30725,-0.77614 -0.30733,0.74542 -0.30745,-1.291947 -0.30752,1.754852 -0.30765,-1.494113 -0.30773,0.04211 -0.30784,0.429015 -0.30795,0.0073 -0.30802,0.793214 -0.30813,-0.883613 -0.30823,0.112034 -0.30834,0.696128 -0.26437,-0.6747 -0.3085,0.688796 -0.3086,-0.722679 -0.30871,0.669373 -0.30881,-0.866015 -0.30891,1.104016 -0.30899,0.100509 -0.3091,-0.568836 -0.3092,-0.01018 -0.26511,-0.842531 -0.30936,-0.195049 -0.30947,1.416139 -0.30958,0.66531 -0.61941,-1.831907 -0.30987,1.522855 -0.30995,-1.809425 -0.31005,-0.974325 -0.26583,2.553082 -0.31022,-1.084262 -0.31033,0.05411 -0.31042,1.047257 -0.31051,-1.670922 -0.3106,0.383379 -0.3107,0.04724 -0.2664,1.087847 -0.31086,-0.648761 -0.31098,0.09754 -0.31107,1.087903 -0.31114,-2.632741 -0.31126,1.391532 -0.31135,0.02651 -0.26695,-0.09073 -0.62312,-0.807641 -0.62351,1.157064 -0.31189,-0.958554 -0.26742,0.947726 -0.31205,-1.111156 -0.31217,0.500109 -0.31224,0.07243 -0.31235,0.917902 -0.26778,-0.750032 -0.31252,-0.05558 -0.9381,0.633005 -0.31287,-0.811754 -0.26825,-0.153414 -0.31306,1.18009 -0.62635,-1.875047 -0.31332,1.405593 -0.26864,0.581283 -0.62706,-1.411598 -0.31368,0.763172 -0.58277,-0.03213 -0.31391,0.759878 -0.31403,-1.099682 -0.3141,0.372506 -0.2693,0.679129 -0.31427,-0.677283 -0.31436,0.525068 -0.31443,-0.835593 -0.31454,-0.447423 -0.26968,0.273652 -0.3147,0.08924 -0.31478,-0.273945 -0.31488,0.808335 -0.26996,-0.06192 -0.31504,0.701493 -0.31512,-0.994181 -0.58547,-0.124378 -0.31538,0.168807 -0.31546,-0.600326 -0.31554,0.343835 -0.27054,-0.386951 -0.31571,0.650917 -0.31581,0.277028 -0.5867,0.07411 -0.63217,-0.531505 -0.31621,-0.133442 -0.27111,0.467318 -0.31637,0.18553 -0.31645,-0.600473 -0.31655,0.209803 -0.27139,0.37229 -0.3167,-0.0781 -0.31679,-0.688727 -0.2716,0.50885 -0.31694,1.104697 -0.31703,-1.707436 -0.58898,1.351228 -0.63463,-1.562493 -0.31744,0.04872 -0.27215,1.492154 -0.31759,-0.918543 -0.31766,-0.292616 -0.27236,0.948664 -0.31783,-0.345578 -0.31791,0.04235 -0.27256,-0.357461 -0.6362,0.08608 -0.31822,-0.439336 -0.27284,0.535652 -0.31837,-0.410083 -0.59149,0.576242 -0.31861,-0.463197 -0.31869,0.0012 -0.27324,-0.146418 -0.31884,0.211531 -0.59234,-0.286954 -0.63823,0.212988 -0.59294,0.200118 -0.31937,-0.16618 -0.27382,-0.01061 -0.31954,0.260457 -0.3196,-0.642143 -0.27403,0.423926 -0.31974,-0.485051 -0.59405,0.455215 -0.31999,-0.253954 -0.32006,0.163214 -0.2744,-0.386352 -0.32021,0.268348 -0.32029,-0.02081 -0.59501,0.333274 -0.32051,-0.370141 -0.27479,0.547858 -0.32066,-0.354867 -0.91658,-0.280467 -0.59609,0.129113 -0.3211,-0.0571 -0.2753,-0.325668 -0.64253,0.476723 -0.91844,-0.127347 -0.27567,0.554308 -0.32167,-0.565206 -0.27578,-0.204108 -0.3218,0.404959 -0.32189,-0.29549 -0.59797,0.233575 -0.59825,-0.190105 -0.32223,0.160466 -0.27626,-0.07745 -0.32236,-0.435325 -0.32246,0.671144 -0.27644,0.0475 -0.32258,-0.489839 -0.27656,0.215392 -0.32272,0.01194 -0.32279,-0.413873 -0.27674,0.268749 -0.32293,0.122588 -0.27686,-0.12063 -0.92322,-0.03589 -0.32328,0.392751 -0.27715,-0.006 -0.32339,-0.359669 -0.27726,0.0094 -0.32354,0.457496 -0.32361,-0.598422 -0.27743,0.226949 -0.32375,-0.06428 -0.27755,-0.362631 -0.32387,0.278258 -0.32394,-0.014 -0.27773,-0.180886 -0.601905,0.37347 -0.324204,-0.02896 -0.277947,0.166802 -0.324334,-0.236977 -0.602522,-0.166124 -0.324529,0.325614 -0.602894,-0.308159 -0.278338,-0.161572 -0.649643,0.356363 -0.278504,-0.07609 -0.324993,0.197662 -0.278607,-0.292322 -0.325114,-0.02446 -0.603963,0.239097 -0.278829,-0.265946 -0.929801,-0.02229 -0.325551,-0.269705 -0.279108,0.449936 -0.604891,-0.176455 -0.325802,0.166181 -0.605244,-0.296616 -0.279424,0.250872 -0.326043,-0.335887 -0.279526,0.397594 -0.326173,0.0092 -0.279638,-0.397282 -0.326293,0.05611 -0.326359,0.239022 -0.279786,-0.01377 -0.32648,0.112122 -0.606498,-0.418748 -0.28,0.247215 -0.326721,-0.17431 -0.280093,0.0018 -0.326842,0.218891 -0.280204,0.02358 -0.934333,-0.220331 -0.280409,0.241796 -0.327195,0.02386 -0.280501,0.217142 -0.327316,0.04904 -0.608031,-0.561393 -0.280705,0.07296 -0.327548,0.3098 -0.280799,0.08168 -0.327659,-0.155735 -0.280901,0.02822 -0.32778,-0.08681 -0.280994,-0.213887 -0.327891,0.0028 -0.281096,0.36527 -0.328012,0.04908 -0.890604,-0.27562 -0.328225,0.188901 -0.281394,-0.164631 -0.328337,0.332973 -0.281486,-0.418256 -0.610037,0.02219 -0.328569,-0.504015 -0.281672,0.619931 -0.328672,0.206703 -0.281774,-0.227844 -0.61065,0.04468 -0.328894,0.345533 -0.28196,-0.384546 -0.611059,0.106017 -0.329117,-0.168881 -0.564329,0.247233 -0.611551,-0.388399 -0.329377,0.379067 -0.282369,-0.310609 -0.329488,0.09647 -0.282462,0.264484 -0.329591,0.0176 -0.282554,-0.351117 -0.329694,0.379047 -0.282647,-0.509839 -0.329805,0.348648 -0.565508,-0.01255 -0.942869,0.03614 -0.282954,-0.19816 -0.613204,0.08916 -0.33027,-0.151327 -0.283121,0.0804 -0.330371,0.243971 -0.283214,-0.40595 -0.28326,0.239125 -0.330511,0.01921 -0.283343,-0.137339 -0.330622,0.114814 -0.283428,-0.08138 -0.330715,0.253805 -0.283511,-0.282724 -0.614421,-0.0343 -0.283632,0.09205 -0.330966,0.359604 -0.283724,-0.495351 -0.331059,0.509988 -0.614969,-0.395334 -0.283892,0.166747 -0.615229,-0.163477 -0.284013,0.168982 -0.331393,-0.357431 -0.284096,0.197521 -0.615666,-0.130265 -0.615851,0.147122 -0.284292,-0.305094 -0.331727,0.498508 -0.284384,-0.32502 -0.331821,0.132849 -0.284458,-0.394547 -0.284496,0.373316 -0.948582,-0.0513 -0.284653,-0.250878 -0.332136,0.405399 -0.284738,-0.443315 -0.617049,0.560732 -0.28484,-0.341832 -0.332368,-0.131512 -0.284932,0.165491 -0.28496,-0.361455 -0.332499,0.427671 -1.187889,0.134308 -0.617941,-0.223821 -0.332814,0.31334 -0.285295,-0.154192 -0.285341,0.244838 -0.332935,-0.140453 -0.285406,-0.245853 -0.333027,0.357778 -0.285481,-0.302846 -0.285517,0.150703 -0.333149,-0.06983 -0.285601,-0.181567 -0.618898,0.242231 -0.285694,0.0042 -0.333362,-0.165712 -0.619214,0.487989 -0.285842,-0.404682 -0.28588,-0.144269 -0.619511,0.536826 -0.285982,-0.301814 -0.953505,0.188715 -0.286121,0.252564 -0.286158,-0.0389 -0.620106,0.346298 -0.333975,0.284432 -0.572614,1.096045 -0.334086,1.143971 -0.286391,1.768708 -0.286427,2.950459 -0.334199,6.937719 -0.286492,9.812518 -0.62084,35.405431 -0.286585,2.586965 -0.334403,-4.010283 -0.28665,-0.463871 -0.286688,2.9553 -0.621257,13.493713 -0.621406,12.619287 -0.286846,3.72354 -0.908549,7.31714 -0.334802,0.4864 -0.574044,-1.45778 -0.334913,-0.20645 -0.622084,-0.89589 -0.90945,-4.85586 -0.574537,-0.85117 -0.335201,-1.64216 -0.287338,-3.32134 -0.622678,-4.229918 -1.197819,-12.437205 -0.62305,-3.053993 -0.287607,-2.691182 -0.910941,-11.040756 -0.623426,-4.356571 -0.911382,-5.392816 0,0"
               style="fill:none;stroke:#008000;stroke-width:2;stroke-linecap:square;stroke-linejoin:round;stroke-miterlimit:10;stroke-dasharray:none;stroke-opacity:1"
               id="path4902"
               inkscape:connector-curvature="0" />
          </g>
        </g>
        <g
           id="g4904">
          <path
             d="m 27,18 0,108.72"
             style="fill:none;stroke:#000000;stroke-width:0.80000001;stroke-linecap:square;stroke-linejoin:miter;stroke-miterlimit:10;stroke-dasharray:none;stroke-opacity:1"
             id="path4906"
             inkscape:connector-curvature="0" />
          <path
             d="m 194.4,18 0,108.72"
             style="fill:none;stroke:#000000;stroke-width:0.80000001;stroke-linecap:square;stroke-linejoin:miter;stroke-miterlimit:10;stroke-dasharray:none;stroke-opacity:1"
             id="path4908"
             inkscape:connector-curvature="0" />
          <path
             d="m 27,18 167.4,0"
             style="fill:none;stroke:#000000;stroke-width:0.80000001;stroke-linecap:square;stroke-linejoin:miter;stroke-miterlimit:10;stroke-dasharray:none;stroke-opacity:1"
             id="path4910"
             inkscape:connector-curvature="0" />
          <path
             d="m 27,126.72 167.4,0"
             style="fill:none;stroke:#000000;stroke-width:0.80000001;stroke-linecap:square;stroke-linejoin:miter;stroke-miterlimit:10;stroke-dasharray:none;stroke-opacity:1"
             id="path4912"
             inkscape:connector-curvature="0" />
          <path
             d="m 32.6,96.82 102.20937,0 c 1.06667,0 1.6,0.533333 1.6,1.6 l 0,22.7 c 0,1.06667 -0.53333,1.6 -1.6,1.6 L 32.6,122.72 c -1.066667,0 -1.6,-0.53333 -1.6,-1.6 l 0,-22.7 c 0,-1.066667 0.533333,-1.6 1.6,-1.6 z"
             style="fill:#ffffff;fill-opacity:0.8;fill-rule:nonzero;stroke:#cccccc;stroke-width:1;stroke-linecap:butt;stroke-linejoin:miter;stroke-miterlimit:10;stroke-dasharray:none;stroke-opacity:0.8"
             id="path4914"
             inkscape:connector-curvature="0" />
          <path
             d="m 34.2,116.24188 16,0"
             style="fill:none;stroke:#0000ff;stroke-width:2;stroke-linecap:square;stroke-linejoin:round;stroke-miterlimit:10;stroke-dasharray:none;stroke-opacity:1"
             id="path4916"
             inkscape:connector-curvature="0" />
          <text
             transform="matrix(1,0,0,-1,56.6,113.44188)"
             style="font-variant:normal;font-weight:normal;font-size:8px;font-family:'DejaVu Sans';-inkscape-font-specification:DejaVuSans;writing-mode:lr-tb;fill:#000000;fill-opacity:1;fill-rule:nonzero;stroke:none"
             id="text4918">
            <tspan
               x="0 5.5840001 10.656 13.776 16.136 18.496 21.615999 27.087999 31.288 33.832001 38.736 43.816002 47.984001 52.880001 56.167999 61.248001 64.384003 66.608002 71.503998"
               y="0"
               sodipodi:role="line"
               id="tspan4920">Cu(II)Az absorption</tspan>
          </text>
          <path
             d="m 34.2,104.49188 16,0"
             style="fill:none;stroke:#008000;stroke-width:2;stroke-linecap:square;stroke-linejoin:round;stroke-miterlimit:10;stroke-dasharray:none;stroke-opacity:1"
             id="path4922"
             inkscape:connector-curvature="0" />
          <text
             transform="matrix(1,0,0,-1,56.6,101.69187)"
             style="font-variant:normal;font-weight:normal;font-size:8px;font-family:'DejaVu Sans';-inkscape-font-specification:DejaVuSans;writing-mode:lr-tb;fill:#000000;fill-opacity:1;fill-rule:nonzero;stroke:none"
             id="text4924">
            <tspan
               x="0 5.5840001 10.656 13.776 16.136 19.256001 24.728001 28.927999 31.472 36.375999 41.456001 45.624001 50.52 53.807999 58.888 62.023998 64.248001 69.143997"
               y="0"
               sodipodi:role="line"
               id="tspan4926">Cu(I)Az absorption</tspan>
          </text>
          <path
             d="m 194.4,18 3.5,0"
             style="fill:#ff0000;fill-opacity:1;fill-rule:nonzero;stroke:#ff0000;stroke-width:0.80000001;stroke-linecap:butt;stroke-linejoin:round;stroke-miterlimit:10;stroke-dasharray:none;stroke-opacity:1"
             id="path4928"
             inkscape:connector-curvature="0" />
          <path
             d="m 194.4,42.709091 3.5,0"
             style="fill:#ff0000;fill-opacity:1;fill-rule:nonzero;stroke:#ff0000;stroke-width:0.80000001;stroke-linecap:butt;stroke-linejoin:round;stroke-miterlimit:10;stroke-dasharray:none;stroke-opacity:1"
             id="path4930"
             inkscape:connector-curvature="0" />
          <path
             d="m 194.4,67.418182 3.5,0"
             style="fill:#ff0000;fill-opacity:1;fill-rule:nonzero;stroke:#ff0000;stroke-width:0.80000001;stroke-linecap:butt;stroke-linejoin:round;stroke-miterlimit:10;stroke-dasharray:none;stroke-opacity:1"
             id="path4932"
             inkscape:connector-curvature="0" />
          <path
             d="m 194.4,92.127273 3.5,0"
             style="fill:#ff0000;fill-opacity:1;fill-rule:nonzero;stroke:#ff0000;stroke-width:0.80000001;stroke-linecap:butt;stroke-linejoin:round;stroke-miterlimit:10;stroke-dasharray:none;stroke-opacity:1"
             id="path4934"
             inkscape:connector-curvature="0" />
          <path
             d="m 194.4,116.83636 3.5,0"
             style="fill:#ff0000;fill-opacity:1;fill-rule:nonzero;stroke:#ff0000;stroke-width:0.80000001;stroke-linecap:butt;stroke-linejoin:round;stroke-miterlimit:10;stroke-dasharray:none;stroke-opacity:1"
             id="path4936"
             inkscape:connector-curvature="0" />
          <text
             transform="matrix(0,1,1,0,212.99375,66.4225)"
             style="font-variant:normal;font-weight:normal;font-size:10px;font-family:'DejaVu Sans';-inkscape-font-specification:DejaVuSans;writing-mode:lr-tb;fill:#ff0000;fill-opacity:1;fill-rule:nonzero;stroke:none"
             id="text4938">
            <tspan
               x="0 5.75 8.9300003"
               y="0"
               sodipodi:role="line"
               id="tspan4940">F.I</tspan>
          </text>
        </g>
        <g
           id="g4942">
          <g
             id="g4944"
             clip-path="url(#clipPath4946)">
            <path
               d="m 133.52727,18.197871 0.91309,-0.09894 0.30437,-0.09894 0.30436,0.197871 1.52182,0 0.30436,0.19787 0.30437,0 0.30436,-0.19787 0.60873,0.296805 0.60872,-0.09893 0.30437,0 0.30436,0.296806 0.30436,0 0.60873,0.494677 0.30437,-0.09894 0.60872,0.494677 0.30437,0.593612 0.30436,0.19787 1.82618,3.759542 0.60873,1.582964 0.60873,1.879771 0.60872,1.978706 0.60873,2.572318 1.52182,11.7733 1.52182,17.511548 1.52182,19.78706 1.21745,16.324324 0.91309,10.190338 0.60873,4.25421 0.60873,3.46274 0.60872,1.38509 0.60873,-0.0989 0.30436,-1.18722 0.30437,-0.69255 1.21745,-6.82654 3.95673,-35.319898 1.52182,-10.0914 0.60872,-3.066994 0.9131,-4.353154 0.91309,-3.066994 0.30436,-1.385094 0.30436,-0.692547 0.60873,-1.780836 0.30437,-0.296805 0.30436,-0.890418 0.30436,-0.197871 0.30437,-0.890417 0.30436,0.09893 0.30436,-0.296806 0.30437,-0.593612 0.30436,-0.296806 0.30436,0.09894 0.30437,-0.395742 0.30436,0.09894 0.60873,-0.593612 0.30436,0.197871 0.30437,-0.395742 0.30436,-0.593611 0.30436,0.296805 0.30437,-0.395741 0.30436,-0.19787 0.30436,0 0.30437,-0.494677 0.30436,0 0.91309,-0.989353 0.30437,0.197871 0.30436,-0.890418 0.30436,0.197871 0.91309,-1.6819 0.30437,-0.197871 0.30436,-0.494677 0.30436,-0.09894 0.30437,-0.791482 0.30436,0.09894 0.60873,-1.484029 0.30436,-0.09894 0.30437,-1.088288 0.60872,-0.197871 0.60873,-2.077641 0.30436,0.197871 0.30437,-0.09894 0.30436,-0.989353 0.60873,-0.692547 0.60873,-0.593611 0.30436,-0.494677 0.30436,-0.890418 0.30437,0 0.30436,-1.484029 0.30436,0.692547 0.30437,-0.197871 0.60873,-1.286158 0.30436,0.09894 0.60873,-0.494677 0.30436,-0.494676 0.30436,-0.890418 0.60873,-0.19787 0.30436,0.09893 0.30437,-0.296806 0.30436,-0.494677 0.30437,0.395742 0.30436,-0.890418 0.30436,0.197871 0.30437,-0.197871 0.30436,0 0.30436,-0.593612 0.30437,0 0.30436,-0.19787 0.30436,0.19787 0.30437,0 0.60873,-0.791482 0.30436,0.09893 0.30436,-0.296806 0.30437,0.494677 0.30436,-0.692547 0.30436,0.296805 0.30437,-0.296805 0.30436,0.395741 0.30436,-0.890418 0.30437,0.989353 0.30436,-0.09893 0.30437,-0.494677 0.30436,0.791483 0.30436,-0.890418 0.30437,-0.494677 0.30436,0.197871 0.30436,-0.197871 0.60873,0.395742 0.30436,-0.395742 0.30437,0 0.30436,0.791483 0.91309,-0.890418 0.30437,-0.09894 0.30436,-0.593612 0.30436,0.890418 0.30437,-0.395741 0.30436,0.19787 0.30436,-0.296806 0.30437,0.989353 0.30436,-1.088288 0.30437,0.296806 1.21745,-1.088288 0.30436,0.890417 0.30437,0.494677 0.30436,-1.286159 0.30436,0.890418 0.30437,-0.593612 0.30436,0.692547 0.30437,-0.593612 0.30436,-0.09894 0.30436,-0.296806 0.30437,0.296806 0.30436,-0.593612 0.30436,0.890418 0.30437,-1.187224 0.30436,0.989353 0.30436,-0.09894 0.60873,-0.890418 0.30437,0.593612 0.30436,-0.593612 0.30436,0.395741 0.60873,-1.088288 0.30436,1.385094 0.30437,-0.791482 0.30436,0.09893 0.30437,0.593612 0.30436,-0.494677 1.21745,0.09894 0.30437,-0.791483 0.30436,0.494677 0.30437,0.19787 0.60872,-0.395741 0.30436,0.197871 0.30437,-0.494677 0.30436,0.395741 0.30437,0.197871 0.30436,-0.395741 0.30436,0.296806 0.30437,-0.692547 0.30436,-0.296806 0.60873,1.484029 0.30436,-0.593612 0.30436,0.395742 0.30437,-0.791483 0.0771,0.100236"
               style="fill:none;stroke:#ff0000;stroke-width:2;stroke-linecap:square;stroke-linejoin:round;stroke-miterlimit:10;stroke-dasharray:none;stroke-opacity:1"
               id="path4950"
               inkscape:connector-curvature="0" />
          </g>
        </g>
        <g
           id="g4952">
          <path
             d="m 27,18 0,108.72"
             style="fill:none;stroke:#000000;stroke-width:0.80000001;stroke-linecap:square;stroke-linejoin:miter;stroke-miterlimit:10;stroke-dasharray:none;stroke-opacity:1"
             id="path4954"
             inkscape:connector-curvature="0" />
          <path
             d="m 194.4,18 0,108.72"
             style="fill:none;stroke:#000000;stroke-width:0.80000001;stroke-linecap:square;stroke-linejoin:miter;stroke-miterlimit:10;stroke-dasharray:none;stroke-opacity:1"
             id="path4956"
             inkscape:connector-curvature="0" />
          <path
             d="m 27,18 167.4,0"
             style="fill:none;stroke:#000000;stroke-width:0.80000001;stroke-linecap:square;stroke-linejoin:miter;stroke-miterlimit:10;stroke-dasharray:none;stroke-opacity:1"
             id="path4958"
             inkscape:connector-curvature="0" />
          <path
             d="m 27,126.72 167.4,0"
             style="fill:none;stroke:#000000;stroke-width:0.80000001;stroke-linecap:square;stroke-linejoin:miter;stroke-miterlimit:10;stroke-dasharray:none;stroke-opacity:1"
             id="path4960"
             inkscape:connector-curvature="0" />
          <path
             d="m 32.6,22 100.44375,0 c 1.06667,0 1.6,0.533333 1.6,1.6 l 0,10.95 c 0,1.066667 -0.53333,1.6 -1.6,1.6 L 32.6,36.15 c -1.066667,0 -1.6,-0.533333 -1.6,-1.6 L 31,23.6 C 31,22.533333 31.533333,22 32.6,22 Z"
             style="fill:#ffffff;fill-opacity:0.8;fill-rule:nonzero;stroke:#cccccc;stroke-width:1;stroke-linecap:butt;stroke-linejoin:miter;stroke-miterlimit:10;stroke-dasharray:none;stroke-opacity:0.8"
             id="path4962"
             inkscape:connector-curvature="0" />
          <path
             d="m 34.2,29.671875 16,0"
             style="fill:none;stroke:#ff0000;stroke-width:2;stroke-linecap:square;stroke-linejoin:round;stroke-miterlimit:10;stroke-dasharray:none;stroke-opacity:1"
             id="path4964"
             inkscape:connector-curvature="0" />
          <text
             transform="matrix(1,0,0,-1,56.6,26.871875)"
             style="font-variant:normal;font-weight:normal;font-size:8px;font-family:'DejaVu Sans';-inkscape-font-specification:DejaVuSans;writing-mode:lr-tb;fill:#000000;fill-opacity:1;fill-rule:nonzero;stroke:none"
             id="text4966">
            <tspan
               x="0 5.4720001 10.36 15.248 21.544001 26.632 31.719999 36.807999 39.352001 44.271999 52.063999 54.287998 58.456001 62.624001 64.848 69.744003"
               y="0"
               sodipodi:role="line"
               id="tspan4968">ATTO655 emission</tspan>
          </text>
        </g>
      </g>
      <path
         inkscape:connector-curvature="0"
         id="path5248"
         d="m 178.15774,1003.6204 c -0.94358,-0.1853 -1.87094,-0.2409 -2.06079,-0.1236 -0.18985,0.1173 -0.86429,0.099 -1.49875,-0.04 l -1.15357,-0.2534 1.10831,-2.2175 c 1.04362,-2.08813 2.60916,-6.52506 3.53968,-10.03191 0.71694,-2.7019 2.65466,-19.09 3.59206,-30.37956 0.78968,-9.51041 0.96342,-10.72349 1.41291,-9.86559 0.28189,0.538 0.77064,0.97818 1.08612,0.97818 0.31548,0 0.5736,0.3372 0.5736,0.74933 0,0.86079 1.78445,4.57005 2.37377,4.93428 0.21679,0.13398 0.67506,0.94563 1.01837,1.80366 0.35533,0.88805 1.00058,1.70316 1.49794,1.89225 0.919,0.3494 1.08939,0.87795 1.76265,5.4677 0.48826,3.32861 0.50772,3.36613 1.88914,3.64242 1.00962,0.20192 1.22053,0.45644 1.42211,1.7161 0.32557,2.03459 0.72494,2.64945 1.72854,2.66125 0.59528,0.007 1.21034,0.57553 2.00654,1.85475 0.63148,1.01456 1.14815,2.12047 1.14815,2.45757 0,0.93968 0.74698,2.1244 1.33945,2.1244 0.29179,0 0.63173,0.26374 0.75542,0.58608 0.1237,0.32234 0.65559,0.58607 1.182,0.58607 1.48075,0 2.19316,0.40267 2.19316,1.23964 0,1.40845 0.74832,2.27681 1.96208,2.27681 0.94858,0 1.25452,0.2426 1.72454,1.3675 0.47872,1.14574 0.76773,1.36751 1.78212,1.36751 0.79888,0 1.52782,0.34213 2.14285,1.00576 0.51974,0.56081 1.25747,0.95064 1.66754,0.88116 0.46127,-0.0781 1.22044,0.42779 2.0364,1.35712 1.05374,1.20014 1.49433,1.44118 2.31863,1.26846 1.2924,-0.2708 1.8797,0.11494 2.05277,1.34824 0.10614,0.75635 0.4016,1.00664 1.30922,1.10905 1.51705,0.17116 2.07435,0.65849 2.22342,1.94425 0.0782,0.67447 0.39531,1.09468 0.89821,1.19023 0.42754,0.0812 1.0172,0.49015 1.31037,0.9087 0.29316,0.41855 0.78547,0.66409 1.09401,0.54574 0.30854,-0.1184 0.86172,-0.0386 1.22929,0.17725 0.36757,0.2159 1.64476,0.7844 2.83819,1.2635 1.97443,0.7925 2.14855,0.959 1.93297,1.8478 l -0.23692,0.9767 -0.70808,-1.0744 c -0.81159,-1.2316 -1.61135,-1.3576 -2.65,-0.4176 -0.68319,0.6183 -0.75936,0.609 -1.29646,-0.1578 -0.81171,-1.1589 -4.47153,-1.2251 -4.76934,-0.086 -0.22827,0.8729 -0.54087,0.9511 -1.19355,0.2984 -0.35414,-0.3542 -0.67682,-0.3455 -1.39244,0.038 -0.77241,0.4133 -1.12612,0.3978 -2.07123,-0.091 -0.80925,-0.4185 -1.3406,-0.477 -1.83243,-0.2018 -0.49927,0.2794 -0.95575,0.2153 -1.63473,-0.2296 -1.30848,-0.8573 -2.08816,-0.7714 -2.56856,0.2829 -0.29205,0.641 -0.76774,0.9168 -1.65217,0.9579 -6.30141,0.2928 -8.50965,0.2906 -8.80905,-0.01 -0.19288,-0.1929 -3.2285,-0.3803 -6.74582,-0.4166 -3.51732,-0.036 -6.61919,-0.2105 -6.89305,-0.3875 -0.27386,-0.1769 -0.97715,-0.2209 -1.56287,-0.098 -2.39734,0.5041 -4.16072,0.5739 -4.63123,0.1834 -0.6403,-0.5314 -2.09909,-0.077 -2.09909,0.6538 0,0.6173 -0.19666,0.6273 -2.6924,0.1371 z"
         style="opacity:1;fill:#ffccaa;fill-opacity:1;fill-rule:nonzero;stroke:#ff6464;stroke-width:1;stroke-linecap:round;stroke-linejoin:miter;stroke-miterlimit:4;stroke-dasharray:none;stroke-dashoffset:0;stroke-opacity:1" />
    </g>
    <g
       id="g5299"
       transform="translate(-28,10)">
      <ellipse
         ry="47.862728"
         rx="21.098673"
         cy="940.03131"
         cx="350.08167"
         id="path5250"
         style="opacity:1;fill:#ffccaa;fill-opacity:1;fill-rule:nonzero;stroke:#ff6464;stroke-width:1;stroke-linecap:round;stroke-linejoin:miter;stroke-miterlimit:4;stroke-dasharray:none;stroke-dashoffset:0;stroke-opacity:1" />
      <ellipse
         ry="5.470026"
         rx="5.2746682"
         cy="931.63092"
         cx="347.15131"
         id="path5252"
         style="opacity:1;fill:#0000ff;fill-opacity:1;fill-rule:nonzero;stroke:none;stroke-width:1;stroke-linecap:round;stroke-linejoin:miter;stroke-miterlimit:4;stroke-dasharray:none;stroke-dashoffset:0;stroke-opacity:1" />
      <path
         d="m 336.01588,909.75081 -10.86558,-4.89261 -5.73287,10.44666 -2.94938,-11.54555 -11.74192,2.03125 7.18776,-9.50445 -8.90906,-7.91374 11.91238,-0.30631 0.6325,-11.89952 7.66673,9.1225 9.69778,-6.92472 -2.35213,11.68187 11.46043,3.26453 -10.59978,5.44456 z"
         inkscape:randomized="0"
         inkscape:rounded="0"
         inkscape:flatsided="false"
         sodipodi:arg2="1.2478949"
         sodipodi:arg1="0.79909594"
         sodipodi:r2="10.085095"
         sodipodi:r1="20.170189"
         sodipodi:cy="895.29431"
         sodipodi:cx="321.9501"
         sodipodi:sides="7"
         id="path5254"
         style="opacity:1;fill:#ac9d93;fill-opacity:1;fill-rule:nonzero;stroke:none;stroke-width:1;stroke-linecap:round;stroke-linejoin:miter;stroke-miterlimit:4;stroke-dasharray:none;stroke-dashoffset:0;stroke-opacity:1"
         sodipodi:type="star" />
      <text
         sodipodi:linespacing="125%"
         id="text5277"
         y="957.72778"
         x="332.61163"
         style="font-style:normal;font-weight:normal;font-size:40px;line-height:125%;font-family:sans-serif;letter-spacing:0px;word-spacing:0px;fill:#000000;fill-opacity:1;stroke:none;stroke-width:1px;stroke-linecap:butt;stroke-linejoin:miter;stroke-opacity:1"
         xml:space="preserve"><tspan
           style="font-size:12.5px"
           y="957.72778"
           x="332.61163"
           id="tspan5279"
           sodipodi:role="line">Cu(II)</tspan></text>
    </g>
    <g
       id="g5306"
       transform="translate(-14,10)">
      <ellipse
         ry="47.862728"
         rx="21.098673"
         cy="938.99121"
         cx="501.52496"
         id="path5250-4"
         style="opacity:1;fill:#ffccaa;fill-opacity:1;fill-rule:nonzero;stroke:#ff6464;stroke-width:1;stroke-linecap:round;stroke-linejoin:miter;stroke-miterlimit:4;stroke-dasharray:none;stroke-dashoffset:0;stroke-opacity:1" />
      <ellipse
         ry="5.470026"
         rx="5.2746682"
         cy="930.59082"
         cx="498.5946"
         id="path5252-7"
         style="opacity:1;fill:#6c5d53;fill-opacity:1;fill-rule:nonzero;stroke:none;stroke-width:1;stroke-linecap:round;stroke-linejoin:miter;stroke-miterlimit:4;stroke-dasharray:none;stroke-dashoffset:0;stroke-opacity:1" />
      <path
         d="m 487.45921,908.71071 -10.86558,-4.89261 -5.73287,10.44666 -2.94938,-11.54555 -11.74192,2.03125 7.18776,-9.50445 -8.90906,-7.91374 11.91238,-0.30631 0.6325,-11.89952 7.66673,9.1225 9.69777,-6.92472 -2.35212,11.68187 11.46043,3.26453 -10.59978,5.44456 z"
         inkscape:randomized="0"
         inkscape:rounded="0"
         inkscape:flatsided="false"
         sodipodi:arg2="1.2478949"
         sodipodi:arg1="0.79909594"
         sodipodi:r2="10.085095"
         sodipodi:r1="20.170189"
         sodipodi:cy="894.25421"
         sodipodi:cx="473.39343"
         sodipodi:sides="7"
         id="path5254-6"
         style="opacity:1;fill:#ff0000;fill-opacity:1;fill-rule:nonzero;stroke:none;stroke-width:1;stroke-linecap:round;stroke-linejoin:miter;stroke-miterlimit:4;stroke-dasharray:none;stroke-dashoffset:0;stroke-opacity:1"
         sodipodi:type="star" />
      <text
         sodipodi:linespacing="125%"
         id="text5277-5"
         y="957.82025"
         x="487.74344"
         style="font-style:normal;font-weight:normal;font-size:40px;line-height:125%;font-family:sans-serif;letter-spacing:0px;word-spacing:0px;fill:#000000;fill-opacity:1;stroke:none;stroke-width:1px;stroke-linecap:butt;stroke-linejoin:miter;stroke-opacity:1"
         xml:space="preserve"><tspan
           style="font-size:12.5px"
           y="957.82025"
           x="487.74344"
           id="tspan5279-6"
           sodipodi:role="line">Cu(I)</tspan></text>
    </g>
    <path
       style="fill:none;fill-rule:evenodd;stroke:#000000;stroke-width:1px;stroke-linecap:butt;stroke-linejoin:miter;stroke-opacity:1;marker-end:url(#Arrow1Mend)"
       d="m 358,948.36223 75,0"
       id="path5315"
       inkscape:connector-curvature="0" />
    <path
       style="fill:none;fill-rule:evenodd;stroke:#000000;stroke-width:1px;stroke-linecap:butt;stroke-linejoin:miter;stroke-opacity:1;marker-start:url(#Arrow1Mstart)"
       d="m 359.91001,958.36223 75,0"
       id="path5597"
       inkscape:connector-curvature="0" />
    <text
       sodipodi:linespacing="125%"
       id="text5277-9"
       y="942.72778"
       x="362.61163"
       style="font-style:normal;font-weight:normal;font-size:40px;line-height:125%;font-family:sans-serif;letter-spacing:0px;word-spacing:0px;fill:#000000;fill-opacity:1;stroke:none;stroke-width:1px;stroke-linecap:butt;stroke-linejoin:miter;stroke-opacity:1"
       xml:space="preserve"><tspan
         style="font-size:12.5px"
         y="942.72778"
         x="362.61163"
         id="tspan5279-3"
         sodipodi:role="line">Reduction</tspan></text>
    <text
       sodipodi:linespacing="125%"
       id="text5277-9-7"
       y="972.72778"
       x="362.61163"
       style="font-style:normal;font-weight:normal;font-size:40px;line-height:125%;font-family:sans-serif;letter-spacing:0px;word-spacing:0px;fill:#000000;fill-opacity:1;stroke:none;stroke-width:1px;stroke-linecap:butt;stroke-linejoin:miter;stroke-opacity:1"
       xml:space="preserve"><tspan
         style="font-size:12.5px"
         y="972.72778"
         x="362.61163"
         id="tspan5279-3-4"
         sodipodi:role="line">Oxidation</tspan></text>
    <text
       sodipodi:linespacing="125%"
       id="text5277-9-5"
       y="1016.7278"
       x="307.61163"
       style="font-style:normal;font-weight:normal;font-size:40px;line-height:125%;font-family:sans-serif;letter-spacing:0px;word-spacing:0px;fill:#000000;fill-opacity:1;stroke:none;stroke-width:1px;stroke-linecap:butt;stroke-linejoin:miter;stroke-opacity:1"
       xml:space="preserve"><tspan
         style="font-size:12.5px"
         y="1016.7278"
         x="307.61163"
         id="tspan5279-3-2"
         sodipodi:role="line">FRET</tspan></text>
    <text
       sodipodi:linespacing="125%"
       id="text5277-9-5-5"
       y="1015.7278"
       x="464.61163"
       style="font-style:normal;font-weight:normal;font-size:40px;line-height:125%;font-family:sans-serif;letter-spacing:0px;word-spacing:0px;fill:#000000;fill-opacity:1;stroke:none;stroke-width:1px;stroke-linecap:butt;stroke-linejoin:miter;stroke-opacity:1"
       xml:space="preserve"><tspan
         style="font-size:12.5px"
         y="1015.7278"
         x="464.61163"
         id="tspan5279-3-2-4"
         sodipodi:role="line">No FRET</tspan></text>
    <text
       sodipodi:linespacing="125%"
       id="text5277-9-5-7"
       y="951.0589"
       x="99.874641"
       style="font-style:normal;font-weight:normal;font-size:40px;line-height:125%;font-family:sans-serif;letter-spacing:0px;word-spacing:0px;fill:#000000;fill-opacity:1;stroke:none;stroke-width:1px;stroke-linecap:butt;stroke-linejoin:miter;stroke-opacity:1"
       xml:space="preserve"><tspan
         style="font-size:12.5px"
         y="951.0589"
         x="99.874641"
         id="tspan5279-3-2-44"
         sodipodi:role="line">A</tspan></text>
    <text
       sodipodi:linespacing="125%"
       id="text5277-9-5-7-3"
       y="907.80664"
       x="388.03101"
       style="font-style:normal;font-weight:normal;font-size:40px;line-height:125%;font-family:sans-serif;letter-spacing:0px;word-spacing:0px;fill:#000000;fill-opacity:1;stroke:none;stroke-width:1px;stroke-linecap:butt;stroke-linejoin:miter;stroke-opacity:1"
       xml:space="preserve"><tspan
         style="font-size:12.5px"
         y="907.80664"
         x="388.03101"
         id="tspan5279-3-2-44-0"
         sodipodi:role="line">B</tspan></text>
  </g>
</svg>
