<?xml version="1.0" encoding="UTF-8" standalone="no"?>
<!-- Created with Inkscape (http://www.inkscape.org/) -->

<svg
   xmlns:dc="http://purl.org/dc/elements/1.1/"
   xmlns:cc="http://creativecommons.org/ns#"
   xmlns:rdf="http://www.w3.org/1999/02/22-rdf-syntax-ns#"
   xmlns:svg="http://www.w3.org/2000/svg"
   xmlns="http://www.w3.org/2000/svg"
   xmlns:sodipodi="http://sodipodi.sourceforge.net/DTD/sodipodi-0.dtd"
   xmlns:inkscape="http://www.inkscape.org/namespaces/inkscape"
   width="16.5cm"
   height="5.5999999cm"
   viewBox="0 0 584.64567 198.42519"
   id="svg4842"
   version="1.1"
   inkscape:version="0.91 r13725"
   sodipodi:docname="lifetime.svg"
   inkscape:export-filename="/home/biswajit/Research/Reports_ppt/reports/AzurinSM-MS4/Azurin_SM_repo/Manuscript/Figure_SI/lifetime.png"
   inkscape:export-xdpi="300"
   inkscape:export-ydpi="300">
  <defs
     id="defs4844">
    <clipPath
       id="clipPath5456"
       clipPathUnits="userSpaceOnUse">
      <path
         inkscape:connector-curvature="0"
         id="path5458"
         d="m 54,36 334.8,0 0,217.44 -334.8,0 L 54,36 Z" />
    </clipPath>
    <clipPath
       id="clipPath5466"
       clipPathUnits="userSpaceOnUse">
      <path
         inkscape:connector-curvature="0"
         id="path5468"
         d="m 54,36 334.8,0 0,217.44 -334.8,0 L 54,36 Z" />
    </clipPath>
    <clipPath
       id="clipPath5575"
       clipPathUnits="userSpaceOnUse">
      <path
         inkscape:connector-curvature="0"
         id="path5577"
         d="m -1021,-463 2815,0 0,1696 -2815,0 0,-1696 z" />
    </clipPath>
    <clipPath
       id="clipPath5657"
       clipPathUnits="userSpaceOnUse">
      <path
         inkscape:connector-curvature="0"
         id="path5659"
         d="m -1021,-463 2815,0 0,1696 -2815,0 0,-1696 z" />
    </clipPath>
    <clipPath
       id="clipPath5709"
       clipPathUnits="userSpaceOnUse">
      <path
         inkscape:connector-curvature="0"
         id="path5711"
         d="m 54,36 334.8,0 0,217.44 -334.8,0 L 54,36 Z" />
    </clipPath>
    <clipPath
       id="clipPath5719"
       clipPathUnits="userSpaceOnUse">
      <path
         inkscape:connector-curvature="0"
         id="path5721"
         d="m 54,36 334.8,0 0,217.44 -334.8,0 L 54,36 Z" />
    </clipPath>
    <clipPath
       id="clipPath5729"
       clipPathUnits="userSpaceOnUse">
      <path
         inkscape:connector-curvature="0"
         id="path5731"
         d="m 54,36 334.8,0 0,217.44 -334.8,0 L 54,36 Z" />
    </clipPath>
    <clipPath
       id="clipPath6000"
       clipPathUnits="userSpaceOnUse">
      <path
         inkscape:connector-curvature="0"
         id="path6002"
         d="m 54,36 334.8,0 0,217.44 -334.8,0 L 54,36 Z" />
    </clipPath>
    <clipPath
       id="clipPath6010"
       clipPathUnits="userSpaceOnUse">
      <path
         inkscape:connector-curvature="0"
         id="path6012"
         d="m 54,36 334.8,0 0,217.44 -334.8,0 L 54,36 Z" />
    </clipPath>
    <clipPath
       id="clipPath6020"
       clipPathUnits="userSpaceOnUse">
      <path
         inkscape:connector-curvature="0"
         id="path6022"
         d="m 54,36 334.8,0 0,217.44 -334.8,0 L 54,36 Z" />
    </clipPath>
    <clipPath
       id="clipPath6176"
       clipPathUnits="userSpaceOnUse">
      <path
         inkscape:connector-curvature="0"
         id="path6178"
         d="m 54,36 334.8,0 0,217.44 -334.8,0 L 54,36 Z" />
    </clipPath>
    <clipPath
       id="clipPath6186"
       clipPathUnits="userSpaceOnUse">
      <path
         inkscape:connector-curvature="0"
         id="path6188"
         d="m 54,36 334.8,0 0,217.44 -334.8,0 L 54,36 Z" />
    </clipPath>
    <clipPath
       id="clipPath6196"
       clipPathUnits="userSpaceOnUse">
      <path
         inkscape:connector-curvature="0"
         id="path6198"
         d="m 54,36 334.8,0 0,217.44 -334.8,0 L 54,36 Z" />
    </clipPath>
  </defs>
  <sodipodi:namedview
     id="base"
     pagecolor="#ffffff"
     bordercolor="#666666"
     borderopacity="1.0"
     inkscape:pageopacity="0.0"
     inkscape:pageshadow="2"
     inkscape:zoom="1.948724"
     inkscape:cx="138.14637"
     inkscape:cy="101.96047"
     inkscape:document-units="px"
     inkscape:current-layer="layer1"
     showgrid="false"
     units="cm"
     inkscape:window-width="1680"
     inkscape:window-height="1017"
     inkscape:window-x="0"
     inkscape:window-y="0"
     inkscape:window-maximized="1" />
  <metadata
     id="metadata4847">
    <rdf:RDF>
      <cc:Work
         rdf:about="">
        <dc:format>image/svg+xml</dc:format>
        <dc:type
           rdf:resource="http://purl.org/dc/dcmitype/StillImage" />
        <dc:title />
      </cc:Work>
    </rdf:RDF>
  </metadata>
  <g
     inkscape:label="Layer 1"
     inkscape:groupmode="layer"
     id="layer1"
     transform="translate(0,-853.93706)">
    <g
       transform="matrix(0.72293822,0,0,-0.72211348,291.35876,1045.9287)"
       inkscape:label="lifetime"
       id="g5559">
      <path
         inkscape:connector-curvature="0"
         id="path5561"
         style="fill:#000000;fill-opacity:1;fill-rule:nonzero;stroke:#000000;stroke-width:1.3840338;stroke-linecap:butt;stroke-linejoin:round;stroke-miterlimit:10;stroke-dasharray:none;stroke-opacity:1"
         d="m 54,36 0,-3.5" />
      <g
         transform="translate(45.148437,19.875)"
         id="g5563">
        <text
           id="text5565"
           style="font-variant:normal;font-weight:normal;font-size:12px;font-family:'DejaVu Sans';-inkscape-font-specification:DejaVuSans;writing-mode:lr-tb;fill:#000000;fill-opacity:1;fill-rule:nonzero;stroke:none"
           transform="matrix(1,0,0,-1,10.054688,0)">
          <tspan
             id="tspan5567"
             y="0"
             x="0">1</tspan>
        </text>
        <g
           transform="scale(0.012,0.012)"
           id="g5569">
          <g
             id="g5571">
            <g
               clip-path="url(#clipPath5575)"
               id="g5573">
              <path
                 inkscape:connector-curvature="0"
                 id="path5579"
                 style="fill:#000000;fill-opacity:1;fill-rule:nonzero;stroke:none"
                 d="m 106,355 626,0 0,-83 -626,0 0,83" />
            </g>
          </g>
        </g>
      </g>
      <path
         inkscape:connector-curvature="0"
         id="path5581"
         style="fill:#000000;fill-opacity:1;fill-rule:nonzero;stroke:#000000;stroke-width:1.3840338;stroke-linecap:butt;stroke-linejoin:round;stroke-miterlimit:10;stroke-dasharray:none;stroke-opacity:1"
         d="m 91.2,36 0,-3.5" />
      <text
         id="text5583"
         style="font-variant:normal;font-weight:normal;font-size:12px;font-family:'DejaVu Sans';-inkscape-font-specification:DejaVuSans;writing-mode:lr-tb;fill:#000000;fill-opacity:1;fill-rule:nonzero;stroke:none"
         transform="matrix(1,0,0,-1,87.379687,19.875)">
        <tspan
           id="tspan5585"
           y="0"
           x="0">0</tspan>
      </text>
      <path
         inkscape:connector-curvature="0"
         id="path5587"
         style="fill:#000000;fill-opacity:1;fill-rule:nonzero;stroke:#000000;stroke-width:1.3840338;stroke-linecap:butt;stroke-linejoin:round;stroke-miterlimit:10;stroke-dasharray:none;stroke-opacity:1"
         d="m 128.4,36 0,-3.5" />
      <text
         id="text5589"
         style="font-variant:normal;font-weight:normal;font-size:12px;font-family:'DejaVu Sans';-inkscape-font-specification:DejaVuSans;writing-mode:lr-tb;fill:#000000;fill-opacity:1;fill-rule:nonzero;stroke:none"
         transform="matrix(1,0,0,-1,124.57969,19.875)">
        <tspan
           id="tspan5591"
           y="0"
           x="0">1</tspan>
      </text>
      <path
         inkscape:connector-curvature="0"
         id="path5593"
         style="fill:#000000;fill-opacity:1;fill-rule:nonzero;stroke:#000000;stroke-width:1.3840338;stroke-linecap:butt;stroke-linejoin:round;stroke-miterlimit:10;stroke-dasharray:none;stroke-opacity:1"
         d="m 165.6,36 0,-3.5" />
      <text
         id="text5595"
         style="font-variant:normal;font-weight:normal;font-size:12px;font-family:'DejaVu Sans';-inkscape-font-specification:DejaVuSans;writing-mode:lr-tb;fill:#000000;fill-opacity:1;fill-rule:nonzero;stroke:none"
         transform="matrix(1,0,0,-1,161.77969,19.875)">
        <tspan
           id="tspan5597"
           y="0"
           x="0">2</tspan>
      </text>
      <path
         inkscape:connector-curvature="0"
         id="path5599"
         style="fill:#000000;fill-opacity:1;fill-rule:nonzero;stroke:#000000;stroke-width:1.3840338;stroke-linecap:butt;stroke-linejoin:round;stroke-miterlimit:10;stroke-dasharray:none;stroke-opacity:1"
         d="m 202.8,36 0,-3.5" />
      <text
         id="text5601"
         style="font-variant:normal;font-weight:normal;font-size:12px;font-family:'DejaVu Sans';-inkscape-font-specification:DejaVuSans;writing-mode:lr-tb;fill:#000000;fill-opacity:1;fill-rule:nonzero;stroke:none"
         transform="matrix(1,0,0,-1,198.97969,19.875)">
        <tspan
           id="tspan5603"
           y="0"
           x="0">3</tspan>
      </text>
      <path
         inkscape:connector-curvature="0"
         id="path5605"
         style="fill:#000000;fill-opacity:1;fill-rule:nonzero;stroke:#000000;stroke-width:1.3840338;stroke-linecap:butt;stroke-linejoin:round;stroke-miterlimit:10;stroke-dasharray:none;stroke-opacity:1"
         d="m 240,36 0,-3.5" />
      <text
         id="text5607"
         style="font-variant:normal;font-weight:normal;font-size:12px;font-family:'DejaVu Sans';-inkscape-font-specification:DejaVuSans;writing-mode:lr-tb;fill:#000000;fill-opacity:1;fill-rule:nonzero;stroke:none"
         transform="matrix(1,0,0,-1,236.17969,19.875)">
        <tspan
           id="tspan5609"
           y="0"
           x="0">4</tspan>
      </text>
      <path
         inkscape:connector-curvature="0"
         id="path5611"
         style="fill:#000000;fill-opacity:1;fill-rule:nonzero;stroke:#000000;stroke-width:1.3840338;stroke-linecap:butt;stroke-linejoin:round;stroke-miterlimit:10;stroke-dasharray:none;stroke-opacity:1"
         d="m 277.2,36 0,-3.5" />
      <text
         id="text5613"
         style="font-variant:normal;font-weight:normal;font-size:12px;font-family:'DejaVu Sans';-inkscape-font-specification:DejaVuSans;writing-mode:lr-tb;fill:#000000;fill-opacity:1;fill-rule:nonzero;stroke:none"
         transform="matrix(1,0,0,-1,273.37969,19.875)">
        <tspan
           id="tspan5615"
           y="0"
           x="0">5</tspan>
      </text>
      <path
         inkscape:connector-curvature="0"
         id="path5617"
         style="fill:#000000;fill-opacity:1;fill-rule:nonzero;stroke:#000000;stroke-width:1.3840338;stroke-linecap:butt;stroke-linejoin:round;stroke-miterlimit:10;stroke-dasharray:none;stroke-opacity:1"
         d="m 314.4,36 0,-3.5" />
      <text
         id="text5619"
         style="font-variant:normal;font-weight:normal;font-size:12px;font-family:'DejaVu Sans';-inkscape-font-specification:DejaVuSans;writing-mode:lr-tb;fill:#000000;fill-opacity:1;fill-rule:nonzero;stroke:none"
         transform="matrix(1,0,0,-1,310.57969,19.875)">
        <tspan
           id="tspan5621"
           y="0"
           x="0">6</tspan>
      </text>
      <path
         inkscape:connector-curvature="0"
         id="path5623"
         style="fill:#000000;fill-opacity:1;fill-rule:nonzero;stroke:#000000;stroke-width:1.3840338;stroke-linecap:butt;stroke-linejoin:round;stroke-miterlimit:10;stroke-dasharray:none;stroke-opacity:1"
         d="m 351.6,36 0,-3.5" />
      <text
         id="text5625"
         style="font-variant:normal;font-weight:normal;font-size:12px;font-family:'DejaVu Sans';-inkscape-font-specification:DejaVuSans;writing-mode:lr-tb;fill:#000000;fill-opacity:1;fill-rule:nonzero;stroke:none"
         transform="matrix(1,0,0,-1,347.77969,19.875)">
        <tspan
           id="tspan5627"
           y="0"
           x="0">7</tspan>
      </text>
      <path
         inkscape:connector-curvature="0"
         id="path5629"
         style="fill:#000000;fill-opacity:1;fill-rule:nonzero;stroke:#000000;stroke-width:1.3840338;stroke-linecap:butt;stroke-linejoin:round;stroke-miterlimit:10;stroke-dasharray:none;stroke-opacity:1"
         d="m 388.8,36 0,-3.5" />
      <text
         id="text5631"
         style="font-variant:normal;font-weight:normal;font-size:12px;font-family:'DejaVu Sans';-inkscape-font-specification:DejaVuSans;writing-mode:lr-tb;fill:#000000;fill-opacity:1;fill-rule:nonzero;stroke:none"
         transform="matrix(1,0,0,-1,384.97969,19.875)">
        <tspan
           id="tspan5633"
           y="0"
           x="0">8</tspan>
      </text>
      <text
         id="text5635"
         style="font-variant:normal;font-weight:normal;font-size:12px;font-family:'DejaVu Sans';-inkscape-font-specification:DejaVuSans;writing-mode:lr-tb;fill:#000000;fill-opacity:1;fill-rule:nonzero;stroke:none"
         transform="scale(1,-1)"
         x="185.05972"
         y="1.2892957">
        <tspan
           id="tspan5637"
           sodipodi:role="line"
           style="font-size:20.76050568px"
           x="185.05972"
           y="1.2892957">time/ns</tspan>
      </text>
      <path
         inkscape:connector-curvature="0"
         id="path5639"
         style="fill:#000000;fill-opacity:1;fill-rule:nonzero;stroke:#000000;stroke-width:1.3840338;stroke-linecap:butt;stroke-linejoin:round;stroke-miterlimit:10;stroke-dasharray:none;stroke-opacity:1"
         d="m 54,84.759577 -3.5,0" />
      <path
         inkscape:connector-curvature="0"
         id="path5663"
         style="fill:#000000;fill-opacity:1;fill-rule:nonzero;stroke:#000000;stroke-width:1.3840338;stroke-linecap:butt;stroke-linejoin:round;stroke-miterlimit:10;stroke-dasharray:none;stroke-opacity:1"
         d="m 54,246.73539 -3.5,0" />
      <path
         inkscape:connector-curvature="0"
         id="path5675"
         style="fill:#000000;fill-opacity:1;fill-rule:nonzero;stroke:#000000;stroke-width:1.03802538;stroke-linecap:butt;stroke-linejoin:round;stroke-miterlimit:10;stroke-dasharray:none;stroke-opacity:1"
         d="m 54,36 -2,0" />
      <path
         inkscape:connector-curvature="0"
         id="path5677"
         style="fill:#000000;fill-opacity:1;fill-rule:nonzero;stroke:#000000;stroke-width:1.03802538;stroke-linecap:butt;stroke-linejoin:round;stroke-miterlimit:10;stroke-dasharray:none;stroke-opacity:1"
         d="m 54,48.825446 -2,0" />
      <path
         inkscape:connector-curvature="0"
         id="path5679"
         style="fill:#000000;fill-opacity:1;fill-rule:nonzero;stroke:#000000;stroke-width:1.03802538;stroke-linecap:butt;stroke-linejoin:round;stroke-miterlimit:10;stroke-dasharray:none;stroke-opacity:1"
         d="m 54,59.669207 -2,0" />
      <path
         inkscape:connector-curvature="0"
         id="path5681"
         style="fill:#000000;fill-opacity:1;fill-rule:nonzero;stroke:#000000;stroke-width:1.03802538;stroke-linecap:butt;stroke-linejoin:round;stroke-miterlimit:10;stroke-dasharray:none;stroke-opacity:1"
         d="m 54,69.062499 -2,0" />
      <path
         inkscape:connector-curvature="0"
         id="path5683"
         style="fill:#000000;fill-opacity:1;fill-rule:nonzero;stroke:#000000;stroke-width:1.03802538;stroke-linecap:butt;stroke-linejoin:round;stroke-miterlimit:10;stroke-dasharray:none;stroke-opacity:1"
         d="m 54,77.347971 -2,0" />
      <path
         inkscape:connector-curvature="0"
         id="path5685"
         style="fill:#000000;fill-opacity:1;fill-rule:nonzero;stroke:#000000;stroke-width:1.03802538;stroke-linecap:butt;stroke-linejoin:round;stroke-miterlimit:10;stroke-dasharray:none;stroke-opacity:1"
         d="m 54,133.51915 -2,0" />
      <path
         inkscape:connector-curvature="0"
         id="path5687"
         style="fill:#000000;fill-opacity:1;fill-rule:nonzero;stroke:#000000;stroke-width:1.03802538;stroke-linecap:butt;stroke-linejoin:round;stroke-miterlimit:10;stroke-dasharray:none;stroke-opacity:1"
         d="m 54,162.04168 -2,0" />
      <path
         inkscape:connector-curvature="0"
         id="path5689"
         style="fill:#000000;fill-opacity:1;fill-rule:nonzero;stroke:#000000;stroke-width:1.03802538;stroke-linecap:butt;stroke-linejoin:round;stroke-miterlimit:10;stroke-dasharray:none;stroke-opacity:1"
         d="m 54,182.27873 -2,0" />
      <path
         inkscape:connector-curvature="0"
         id="path5691"
         style="fill:#000000;fill-opacity:1;fill-rule:nonzero;stroke:#000000;stroke-width:1.03802538;stroke-linecap:butt;stroke-linejoin:round;stroke-miterlimit:10;stroke-dasharray:none;stroke-opacity:1"
         d="m 54,197.97581 -2,0" />
      <path
         inkscape:connector-curvature="0"
         id="path5693"
         style="fill:#000000;fill-opacity:1;fill-rule:nonzero;stroke:#000000;stroke-width:1.03802538;stroke-linecap:butt;stroke-linejoin:round;stroke-miterlimit:10;stroke-dasharray:none;stroke-opacity:1"
         d="m 54,210.80126 -2,0" />
      <path
         inkscape:connector-curvature="0"
         id="path5695"
         style="fill:#000000;fill-opacity:1;fill-rule:nonzero;stroke:#000000;stroke-width:1.03802538;stroke-linecap:butt;stroke-linejoin:round;stroke-miterlimit:10;stroke-dasharray:none;stroke-opacity:1"
         d="m 54,221.64502 -2,0" />
      <path
         inkscape:connector-curvature="0"
         id="path5697"
         style="fill:#000000;fill-opacity:1;fill-rule:nonzero;stroke:#000000;stroke-width:1.03802538;stroke-linecap:butt;stroke-linejoin:round;stroke-miterlimit:10;stroke-dasharray:none;stroke-opacity:1"
         d="m 54,231.03831 -2,0" />
      <path
         inkscape:connector-curvature="0"
         id="path5699"
         style="fill:#000000;fill-opacity:1;fill-rule:nonzero;stroke:#000000;stroke-width:1.03802538;stroke-linecap:butt;stroke-linejoin:round;stroke-miterlimit:10;stroke-dasharray:none;stroke-opacity:1"
         d="m 54,239.32378 -2,0" />
      <text
         id="text5701"
         style="font-variant:normal;font-weight:normal;font-size:12px;font-family:'DejaVu Sans';-inkscape-font-specification:DejaVuSans;writing-mode:lr-tb;fill:#000000;fill-opacity:1;fill-rule:nonzero;stroke:none"
         transform="matrix(0,1,1,0,0,0)"
         x="139.68875"
         y="25.332443">
        <tspan
           id="tspan5703"
           y="25.332443"
           x="139.68875"
           style="font-size:20.76050568px">#</tspan>
      </text>
      <g
         id="g5705">
        <g
           clip-path="url(#clipPath5709)"
           id="g5707">
          <path
             inkscape:connector-curvature="0"
             id="path5713"
             style="fill:none;stroke:#0000ff;stroke-width:2.59506321;stroke-linecap:square;stroke-linejoin:round;stroke-miterlimit:10;stroke-dasharray:none;stroke-opacity:1"
             d="m 53.8512,15.096163 0.2976,10.363586 0.2976,-11.489133 0.2976,2.233368 0.2976,0 0.2976,8.285471 0.2976,-22.891903 0.2976,1.339949 0.2976,30.700568 0.2976,-14.211604 0.2976,3.081304 0.2976,-1.012178 0.2976,-11.013882 0.2976,11.013882 0.5952,-4.200962 0.2976,-11.751453 0.5952,21.817911 0.2976,-15.697078 0.2976,-7.411607 0.2976,14.116221 0.2976,-14.116221 0.5952,16.216233 0.2976,-12.412863 0.2976,8.148212 0.2976,13.008399 0.2976,-4.722928 0.2976,-9.393292 0.2976,11.320679 0.2976,0.944245 0.2976,-10.066458 0.2976,6.210961 0.2976,11.827626 0.5952,-32.395715 0.2976,16.488964 0.2976,-3.222481 0.2976,10.212858 0.2976,-20.873666 0.2976,25.473029 0.2976,-8.508436 0.2976,8.508436 0.2976,-10.54757 0.2976,-1.04217 0.2976,0 0.2976,-13.883289 0.2976,17.962414 0.2976,4.787235 0.2976,-9.924202 0.2976,16.964593 0.2976,-14.864581 0.2976,1.026956 0.2976,-12.216393 0.2976,23.495729 0.2976,8.188909 0.5952,-13.602749 0.2976,6.276982 0.2976,3.350404 0.2976,7.00143 0.2976,-5.384227 0.5952,11.751453 0.2976,-10.170596 0.2976,11.510545 0.2976,-4.098938 0.2976,-7.411607 0.2976,16.009031 0.2976,-12.950062 0.2976,11.057251 0.2976,-6.704613 0.2976,6.062187 0.2976,-1.302726 0.2976,6.883685 0.2976,-1.202511 0.2976,-2.468506 0.2976,15.192809 0.2976,-3.103968 0.2976,0.526932 0.2976,-0.526932 0.2976,5.09971 0.2976,-12.335234 0.2976,5.63062 0.5952,19.693845 0.2976,-11.528724 0.2976,1.430799 0.2976,2.321834 0.2976,5.278365 0.2976,-1.282926 0.2976,0.857879 0.2976,3.736021 0.2976,-7.681646 0.2976,11.993844 0.2976,6.184178 0.2976,0 0.2976,1.379362 0.2976,-3.142492 0.5952,5.162115 0.2976,0.98847 0.2976,4.1298 0.2976,-4.78724 0.2976,5.09509 0.2976,8.11461 0.2976,-4.23045 0.2976,1.15323 0.2976,2.25124 0.2976,4.55728 0.2976,10.5837 0.2976,-2.26939 0.2976,-5.76529 0.2976,6.90914 0.2976,1.57077 0.2976,-3.64329 0.2976,6.25703 0.2976,3.74708 0.2976,0.20244 0.2976,-4.37845 0.2976,8.69064 0.2976,2.42916 0.2976,4.27546 0.2976,1.53859 0.2976,-0.1693 0.2976,-2.23884 0.2976,3.58199 0.5952,11.4823 0.2976,4.51348 0.2976,-2.70072 0.2976,3.75263 0.2976,7.77609 0.2976,-3.84233 0.2976,0.98044 0.2976,6.83725 0.2976,3.65792 0.2976,-2.12861 0.2976,7.67047 0.2976,1.72282 0.2976,-4.08759 0.2976,2.17071 0.2976,7.5475 0.2976,3.57332 0.2976,-2.53372 0.2976,7.0322 0.2976,0.23306 0.5952,6.23063 0.2976,0.63597 0.2976,4.75946 0.2976,-2.81687 0.2976,4.31294 0.2976,1.02229 0.2976,5.25391 0.2976,-1.96992 0.2976,5.47212 0.2976,2.42214 0.2976,-0.76168 0.2976,6.2256 0.2976,2.60477 0.2976,-1.65986 0.2976,0.4432 0.2976,1.1201 0.2976,2.28166 0.2976,1.02153 0.2976,3.15502 0.2976,-1.87598 0.2976,0.6309 0.2976,4.68563 0.2976,-2.26045 0.2976,1.20325 0.2976,0.34003 0.2976,0 0.2976,0.54908 0.2976,-1.74647 0.5952,2.66603 0.2976,-1.00375 0.2976,0.75415 0.2976,-1.68701 0.2976,-0.34232 0.2976,1.98765 0.2976,0.37429 0.2976,-8.26474 0.2976,8.18173 0.5952,-5.75184 0.2976,2.13049 0.2976,-0.79139 0.2976,-3.30405 0.2976,3.96416 0.2976,-5.51027 0.2976,2.008 0.2976,-5.65365 0.2976,0.94159 0.5952,-1.84539 0.2976,-0.25313 0.2976,-0.71365 0.2976,-1.1363 0.8928,-4.79383 0.2976,-1.35067 0.2976,0.90332 0.2976,0.16809 0.5952,-9.77005 0.2976,-1.16704 0.2976,1.80713 0.5952,-6.67913 0.2976,0.13999 0.2976,-1.84198 0.2976,-0.86668 0.2976,-3.65415 0.2976,0.0765 0.2976,4.44433 0.2976,-4.82768 0.2976,-7.02825 0.2976,-1.63301 0.2976,-4.67343 0.2976,5.36564 0.2976,-2.99013 0.2976,-0.63171 0.2976,-4.78213 0.2976,0.57978 0.2976,-4.36698 0.2976,1.91909 1.1904,-10.51241 0.2976,2.27674 0.2976,-8.0618 0.2976,1.85945 0.2976,-4.02801 0.2976,4.75825 0.2976,-9.30687 0.2976,4.28904 0.2976,-0.39117 0.2976,-3.48447 0.2976,-6.17082 0.2976,0.44854 0.5952,-2.27184 0.2976,0.91756 0.2976,-2.31674 0.2976,-3.37722 0.2976,-0.82857 0.2976,-5.72793 0.2976,5.22606 0.2976,-3.44055 0.2976,-9.01651 0.2976,9.19259 0.5952,-13.31959 0.2976,7.83537 0.2976,-0.57269 0.2976,-8.11795 0.5952,-1.96325 0.2976,3.87319 0.2976,-2.99386 0.2976,3.41134 0.2976,0.20781 0.2976,-5.16527 0.2976,-9.80925 0.2976,0 0.2976,9.58558 0.2976,-1.81546 0.5952,-13.10185 0.2976,4.0362 0.2976,0 0.2976,-4.0362 0.2976,6.35125 0.2976,-4.70888 0.2976,0.53905 0.2976,-8.25192 0.2976,-1.52598 0.2976,3.90073 0.2976,-7.05576 0.2976,14.26275 0.2976,-13.30129 0.2976,-4.264654 0.2976,12.938094 0.2976,-12.600706 0.2976,-7.07583 0.2976,5.372473 0.2976,0.6863 0.2976,1.017057 0.2976,5.189096 0.2976,-12.264926 0.2976,1.473252 0.2976,-8.926226 0.2976,5.948207 0.2976,0.37922 0.2976,-1.14385 0.2976,-6.436047 0.2976,0.837453 0.2976,2.051026 0.2976,5.816965 0.2976,-4.218142 0.2976,-0.794869 0.2976,7.929292 0.2976,-11.201752 0.2976,0.41748 0.5952,4.043941 0.2976,0.391896 0.2976,-5.695785 0.2976,2.905525 0.2976,-2.063057 0.2976,-0.842468 0.2976,0 0.2976,-1.715821 0.2976,0 0.2976,2.558289 0.2976,-4.763649 0.2976,-11.143102 0.2976,15.486778 0.5952,-7.552156 0.2976,-2.384811 0.2976,4.691418 0.2976,-10.768161 0.2976,5.589923 0.2976,1.450467 0.2976,-7.5713 0.5952,12.200944 0.2976,-4.629644 0.2976,5.961139 0.2976,-10.405471 0.2976,9.964434 0.2976,-5.520102 0.2976,-21.039173 0.2976,18.107699 0.2976,-10.760659 0.2976,7.178675 0.2976,-3.774211 0.2976,0.55173 0.2976,-1.668343 0.2976,1.116613 0.2976,8.346989 0.2976,-19.74684 0.5952,15.697077 0.2976,-3.198059 0.2976,-4.503631 0.2976,3.956194 0.2976,10.212858 0.2976,-27.578279 0.2976,14.562453 0.2976,-1.737007 0.2976,-2.993864 0.2976,1.212878 0.2976,-6.945522 0.2976,-3.39898 0.2976,14.99712 0.2976,-10.937617 0.2976,1.302726 0.2976,-6.76918 0.5952,-2.901244 0.2976,13.439819 0.2976,6.426018 0.2976,-6.426018 0.2976,2.405198 0.2976,-9.477791 0.2976,7.072593 0.2976,-4.417742 0.2976,0 0.2976,8.574363 0.2976,-15.409367 0.2976,14.830391 0.2976,-8.649766 0.2976,12.60596 0.2976,-16.665463 0.2976,7.272171 0.2976,1.859453 0.2976,-14.18422 0.2976,3.645645 0.2976,5.466454 0.2976,-2.000472 0.2976,5.838435 0.2976,-5.838435 0.2976,-15.866381 0.5952,26.516619 0.2976,-21.606822 0.2976,19.242055 0.2976,-25.004531 0.5952,12.538907 0.2976,-4.444332 0.2976,7.258516 0.2976,-5.001257 0.2976,7.707175 0.2976,-4.098938 0.5952,6.062187 0.2976,-1.302726 0.2976,-2.680141 0.2976,9.563826 0.2976,-14.514778 0.2976,3.57159 0.2976,-4.308195 0.2976,-12.973698 0.2976,19.340924 0.2976,3.303198 0.2976,-8.933819 0.2976,1.450468 0.2976,4.180153 0.2976,-5.630621 0.2976,13.916092 0.2976,-8.285471 0.2976,-3.465982 0.2976,4.139147 0.2976,-9.29765 0.2976,8.624485 0.2976,-1.365969 0.2976,-3.535679 0.2976,10.740083 0.2976,-25.179359 0.2976,5.149508 0.2976,10.011263 0.2976,-4.444332 0.2976,4.444332 0.2976,-10.011263 0.2976,0 0.2976,-7.872888 0.5952,17.162656 0.2976,-6.054936 0.2976,9.590615 0.2976,-10.385484 0.2976,-4.114928 0.2976,0.842468 0.2976,5.63062 0.2976,-4.798123 0.2976,10.725434 0.2976,-9.089425 0.2976,-2.468506 0.2976,-4.317011 0.2976,10.716439 0.2976,2.257259 0.2976,-11.214976 0.2976,10.470575 0.2976,-0.752362 0.2976,9.203938 0.2976,-4.098938 0.2976,-8.197595 0.2976,3.092595 0.2976,6.49802 0.2976,-19.778777 0.2976,3.562544 0.2976,20.237053 0.2976,3.803369 0.2976,-12.088841 0.2976,-5.325963 0.2976,1.563291 0.2976,-3.162114 0.2976,-6.785517 0.2976,2.621864 0.2976,-9.148614 0.2976,10.843761 0.2976,-8.916374 0.2976,13.769691 0.5952,-4.02082 0.2976,-13.657944 0.2976,-1.012178 0.2976,27.495569 0.2976,3.366441 0.2976,-4.759461 0.2976,-17.478064 0.5952,11.612568 0.2976,-8.957717 0.2976,3.390786 0.2976,-5.149508 0.2976,1.758722 0.2976,5.830749 0.5952,-12.188834 0.2976,16.076298 0.2976,0 0.2976,-11.476935 0.2976,0 0.2976,3.474543 0.2976,8.754754 0.2976,-3.058969 0.2976,-12.825446 0.2976,1.851296 0.2976,-3.752634 0.2976,22.138391 0.2976,-18.385757 0.2976,15.514125 0.2976,-14.606432 0.2976,6.045637 0.2976,2.439963 0.2976,-5.830749 0.2976,0.863142 0.2976,-4.425686 0.2976,6.95333 0.2976,-6.95333 0.2976,0.907693 0.2976,-15.023913 0.2976,13.196662 0.2976,-0.931738 0.2976,2.758989 0.2976,-3.703234 0.2976,8.073906 0.2976,-5.278365 0.2976,15.514125 0.2976,-11.088439 0.2976,0.852679 0.2976,8.754754 0.2976,-19.739912 0.2976,21.949891 0.2976,-10.964733 0.2976,-5.278365 0.2976,2.688679 0.2976,-1.780986 0.2976,8.4856 0.2976,1.580857 0.5952,-12.825446 0.2976,0 0.2976,4.539975 0.2976,-1.780986 0.2976,-15.023913 0.2976,3.27246 0.2976,9.924202 0.2976,-2.833076 0.2976,0 0.2976,10.705964 0.2976,4.798123 0.2976,7.334262 0.2976,-39.0189 0.8928,30.907335 0.2976,-10.97415 0.2976,10.97415 0.2976,-10.97415 0.2976,2.688679 0.2976,0.873865 0.2976,-21.110918 0.2976,28.522524 0.2976,-4.853317 0.2976,-8.916374 0.2976,4.599363 0.2976,-1.803822 0.2976,11.751453 0.2976,-3.975363 0.2976,-5.972268 0.2976,-14.812221 0.2976,5.291607 0.2976,18.690942 0.2976,-2.384811 0.2976,-12.341973 0.2976,-2.95198 0.2976,16.892776 0.2976,-9.280469 0.2976,2.654851 0.2976,5.830749 0.2976,-18.137041 0.2976,-1.04217 0.2976,2.069126 0.2976,1.012178 0.2976,18.456067 0.2976,2.281666 0.2976,-19.739912 0.2976,5.706793 0.2976,-17.548374 0.2976,12.825446 0.2976,7.411607 0.2976,-1.780986 0.2976,-7.612307 0.5952,11.1303 0.2976,-7.221227 0.2976,1.875983 0.2976,-2.833076 0.2976,-0.970294 0.2976,-5.06299 0.2976,10.693611 0.2976,2.654851 0.2976,-6.358085 0.2976,8.916374 0.2976,-9.873467 0.2976,-2.95198 0.5952,8.508436 0.2976,3.474543 0.2976,1.674965 0.2976,-6.95333 0.2976,7.77609 0.2976,-2.497725 0.2976,4.114928 0.2976,-20.237053 0.2976,15.269446 0.2976,-10.132479 0.2976,4.787235 0.2976,-1.875983 0.5952,9.748871 0.2976,-0.832497 0.2976,-7.040391 0.2976,-3.80337 0.2976,13.312267 0.2976,-3.310974 0.2976,-20.520132 0.2976,18.804311 0.2976,-7.315178 0.2976,-13.79574 0.2976,12.825446 0.2976,-1.981686 0.2976,2.95198 0.2976,8.17832 0.2976,4.967607 0.2976,-18.137041 0.2976,15.697078 0.2976,-9.748871 0.2976,-0.957093 0.2976,-12.632983 0.2976,5.541857 0.2976,8.048219 0.2976,13.769691 0.2976,-25.09037 0.2976,14.11622 0.2976,-0.919558 0.2976,9.508897 0.2976,-4.163653 0.2976,-17.434085 0.2976,-3.377218 0.2976,23.338947 0.2976,-31.913311 0.2976,21.207347 0.5952,-23.862197 0.2976,2.65485 0.2976,3.80337 0.2976,26.434976 0.2976,0.842468 0.2976,-9.873467 0.2976,5.556456 0.2976,-12.647582 0.2976,3.126968 0.2976,12.142478 0.2976,-21.97406 0.2976,0 0.2976,15.697078 0.2976,-3.855497 0.5952,20.484313 0.2976,-17.573061 0.2976,2.795541 0.2976,-15.241767 0.5952,14.322209 0.2976,-4.787235 0.2976,4.787235 0.2976,-16.628816 0.2976,24.501704 0.5952,-7.872888 0.2976,-0.931738 0.2976,10.440635 0.2976,1.598823 0.2976,-4.067329 0.2976,-7.040391 0.2976,6.197923 0.2976,-4.370672 0.2976,-1.827251 0.2976,-2.833076 0.2976,6.441313 0.5952,-17.930446 0.2976,9.534974 0.2976,-7.301606 0.2976,3.222481 0.2976,1.04217 0.5952,18.137041 0.5952,-22.401692 0.2976,16.570943 0.2976,-5.41384 0.2976,4.539975 0.2976,-8.395472 0.5952,-9.534974 0.2976,0 0.2976,4.398007 0.2976,-10.312851 0.2976,30.549904 0.2976,-17.110085 0.5952,13.837625 0.5952,-14.864581 0.5952,11.432427 0.2976,-2.688679 0.2976,0 0.2976,-5.706793 0.2976,0.983865 0.2976,-0.983865 0.2976,0.983865 0.2976,-5.06299 0.2976,7.934622 0.2976,-0.944245 0.2976,9.748871 0.2976,-23.338947 0.2976,-3.547568 0.2976,10.147267 0.2976,-2.131836 0.2976,6.210961 0.2976,2.911252 0.2976,-13.590076 0.2976,9.681003 0.2976,-9.681003 0.2976,9.681003 0.2976,0 0.2976,0.997821 0.2976,-9.534974 0.2976,21.3626 0.2976,-11.827626 0.2976,7.510615 0.2976,-7.510615 0.2976,6.614486 0.5952,-1.827251 0.2976,-10.998196 0.2976,9.122213 0.2976,1.875983 0.2976,-2.833076 0.2976,-0.970294 0.2976,2.871632 0.2976,-7.934622 0.2976,-2.131836 0.2976,-3.324013 0.2976,14.322209 0.2976,-6.797234 0.2976,0 0.2976,2.993864 0.2976,-12.825446 0.5952,7.762456 0.2976,11.58974 0.2976,-17.045589 0.2976,18.804311 0.2976,-10.267158 0.2976,-5.21314 0.2976,-8.015431 0.2976,27.709275 0.2976,-4.213546 0.2976,-8.285472 0.2976,-1.981686 0.2976,-5.21314 0.2976,10.066458 0.5952,7.972129 0.2976,-9.873467 0.5952,0 0.2976,1.901338 0.2976,2.758989 0.2976,-22.064304 0.2976,3.608237 0.2976,8.804626 0.2976,3.036955 0.2976,0.983865 0.2976,5.630621 0.2976,-6.614486 0.2976,10.985158 0.2976,-21.663982 0.2976,7.641869 0.2976,-1.04217 0.2976,-5.455849 0.2976,12.446226 0.2976,-8.048219 0.2976,22.595213 0.2976,-28.13707 L 288.95176,-1 m 0.006,0 0.29483,17.203984 0.2976,13.916092 L 289.8103,-1 m 0.0996,0 0.23574,17.203984 0.2976,5.291607 0.2976,7.716792 0.2976,-8.743748 0.2976,11.432427 0.2976,-27.64866 0.2976,34.353274 0.2976,-22.401692 0.2976,0 0.2976,-11.951582 0.2976,17.243189 0.2976,-19.898039 0.2976,10.066457 0.5952,30.829131 0.2976,-23.066675 0.5952,7.934622 0.2976,-0.944245 0.2976,-2.911252 0.2976,-15.449818 0.2976,18.36107 0.2976,-1.927387 0.2976,2.871632 0.2976,-10.066458 0.2976,5.21314 0.2976,-22.276187 0.8928,24.257873 0.2976,-22.891903 0.2976,28.522524 0.2976,-23.309384 0.2976,6.016074 0.2976,10.678824 0.2976,-11.841581 0.2976,0 0.2976,3.432154 0.2976,-1.125547 0.2976,-2.306607 0.2976,12.825446 0.2976,-0.983865 0.2976,8.395472 0.2976,-0.884857 0.5952,-24.205513 0.2976,13.657943 0.2976,-5.372472 0.2976,8.409427 0.2976,-16.694898 0.2976,15.697077 0.2976,-3.081304 0.2976,-6.599699 0.2976,9.681003 0.2976,-8.537153 0.2976,1.125547 0.2976,4.330302 0.2976,16.739248 0.2976,-23.338947 0.2976,17.29331 0.2976,-6.614486 0.2976,-10.678824 0.2976,11.662689 0.2976,6.52675 0.2976,-29.418653 0.2976,24.81929 0.2976,-14.752833 0.2976,-4.853317 0.2976,25.09037 0.2976,-15.697078 0.2976,10.212858 0.2976,-6.990377 0.2976,-10.147267 0.2976,3.547568 0.2976,20.811303 0.2976,4.163653 0.2976,-15.293953 0.2976,-4.139146 0.2976,-7.886914 0.2976,9.986926 0.2976,1.026956 0.2976,23.230917 0.2976,-12.825446 0.2976,9.831582 0.2976,-34.921952 0.2976,15.697077 0.2976,-4.139146 0.2976,7.091126 0.2976,-1.954159 0.2976,6.614486 0.2976,-12.825447 0.2976,8.16512 0.5952,-7.091126 0.2976,16.122125 0.2976,-27.680056 0.2976,1.24508 0.2976,0 0.2976,14.451997 0.2976,-3.081304 0.5952,10.693611 0.2976,-3.703234 0.2976,2.795541 0.2976,6.120833 0.2976,-7.040391 0.2976,-16.628816 0.2976,17.548374 0.5952,-3.752634 0.2976,-11.489133 0.2976,11.489133 0.2976,-21.207347 0.2976,18.255367 0.2976,-1.012178 0.2976,-4.200962 0.2976,5.21314 0.2976,13.657944 0.2976,-14.670122 0.2976,-5.291607 0.2976,18.286764 0.2976,-17.196119 0.2976,18.038587 0.2976,0.832497 0.2976,-14.670122 0.2976,0 0.2976,-18.55809 0.2976,11.033115 0.2976,-7.159924 0.2976,27.680056 0.2976,-7.129661 0.2976,2.758989 0.2976,5.21314 0.2976,-23.669207 0.2976,-2.384811 0.2976,22.621864 0.2976,-10.405471 0.2976,-5.291607 0.2976,1.090645 0.2976,6.210961 0.2976,0 0.2976,3.855497 0.2976,-7.934622 0.2976,-11.370693 0.2976,-6.45822 0.2976,30.30351 0.2976,-12.474597 0.2976,4.079125 0.5952,15.894955 0.2976,-23.196561 0.2976,-3.377218 0.2976,19.074296 0.2976,-7.411607 0.2976,-1.981686 0.2976,10.267158 0.2976,-19.948161 0.2976,5.541857 0.2976,-4.398007 0.2976,4.398007 0.2976,-5.541857 0.2976,8.668825 L 338.35468,-1 m 0.004,0 0.29538,21.468635 0.2976,5.948207 0.2976,0.944245 0.2976,-11.157103 0.2976,19.129232 0.2976,-26.054018 0.2976,13.228571 0.2976,0.997821 0.2976,2.911252 0.2976,8.916374 0.2976,-10.843761 0.2976,10.843761 0.2976,-8.916374 0.2976,-15.935133 0.2976,4.614454 0.2976,12.264924 0.2976,-7.934622 0.2976,8.86636 0.2976,-9.924202 0.2976,-3.27246 0.2976,-10.843761 0.2976,1.290774 0.2976,30.622537 0.2976,-12.660123 0.2976,3.855497 0.2976,14.371557 0.2976,-19.224875 0.2976,-9.681003 0.2976,-3.547568 0.2976,19.013627 0.2976,6.197923 0.2976,-18.286764 0.5952,16.570943 0.2976,-15.480298 0.2976,3.174006 0.2976,-11.189437 0.2976,24.358871 0.2976,-11.1303 0.2976,-20.910217 0.2976,30.30351 0.2976,-25.09037 0.2976,35.682448 0.2976,-30.829131 0.2976,-10.066457 0.2976,31.177375 0.2976,-18.804311 0.2976,14.322209 0.2976,-24.040423 0.2976,17.243189 0.2976,-11.013882 0.2976,9.986926 L 354.06437,-1 m 0.13046,0 0.23237,21.468635 0.2976,3.036955 0.2976,4.787235 0.2976,-13.196662 0.2976,6.399428 0.2976,3.964158 0.2976,12.341973 0.2976,-21.597738 0.2976,3.222481 0.2976,6.033284 0.5952,-9.255765 0.2976,2.164639 0.2976,4.139146 0.2976,-2.039134 L 358.79177,-1 m 0.18553,0 0.2115,26.459749 0.2976,-13.79574 0.2976,-2.384811 0.2976,10.147267 0.2976,2.069126 0.2976,2.993864 0.5952,-14.007746 0.2976,9.986926 0.2976,-12.412863 0.5952,2.425937 0.2976,16.879378 0.2976,-6.892452 0.2976,5.948207 0.2976,1.875983 0.2976,-7.82419 0.2976,4.991114 0.2976,-14.97804 0.2976,24.851507 0.2976,-20.237053 0.2976,3.27246 0.2976,-2.164639 0.2976,1.090645 0.2976,19.693844 0.2976,-19.693844 0.5952,7.194826 0.2976,-1.981686 0.2976,-9.681003 0.2976,-2.345057 0.5952,19.638367 0.2976,1.780986 0.2976,-19.074296 0.2976,-1.162757 0.2976,7.762456 0.2976,10.693611 0.2976,-3.703234 0.2976,-9.122213 0.2976,4.200962 0.5952,-6.399428 0.2976,5.372472 0.2976,7.82419 0.2976,-1.875983 0.2976,-9.122213 0.2976,-4.467863 0.2976,14.534321 0.2976,-11.157103 0.2976,-2.233368 0.2976,8.537153 0.2976,-10.84376 0.2976,3.432154 0.2976,24.304382 0.2976,-15.894955 0.2976,-9.534974 0.2976,0 0.2976,-5.914844 0.2976,15.449818 0.2976,1.954159 0.2976,-17.403977 0.2976,-6.45822 0.2976,26.695273 0.2976,-2.833076 0.2976,-18.649057 0.2976,-5.21314 L 379.11059,-1 m 0.02,0 0.295,18.294629 0.2976,15.480298 0.2976,-12.306292 0.2976,24.257873 0.2976,-25.300043 0.2976,-6.599699 0.2976,19.074296 0.2976,-12.474597 0.2976,-7.762456 0.5952,21.110918 0.2976,-29.837426 0.2976,5.118271 0.2976,-6.45822 0.5952,30.30351 0.2976,-21.419353 0.2976,14.97804 0.2976,-14.97804 0.2976,-3.671017 0.2976,11.557931 0.2976,-15.431122 0.2976,28.963561 0.2976,-7.411607 0.2976,-22.891903 0.2976,2.65485 0.2976,5.026796 0.2976,6.924786 0.2976,17.434085 0.2976,-7.221227 L 388.47094,-1 l 0,0" />
        </g>
      </g>
      <g
         id="g5715">
        <g
           clip-path="url(#clipPath5719)"
           id="g5717">
          <path
             inkscape:connector-curvature="0"
             id="path5723"
             style="fill:none;stroke:#ff0000;stroke-width:2.59506321;stroke-linecap:square;stroke-linejoin:round;stroke-miterlimit:10;stroke-dasharray:none;stroke-opacity:1"
             d="m 55.266031,-1 0.07317,4.97557 0,0 0,0 L 55.369568,-1 m 12.464287,0 0.0045,0.435594 0,0 0,0 L 67.848507,-1 M 71.270002,-1 71.4096,17.891661 71.7072,1.742201 72.0048,16.06441 72.108951,-1 m 1.300176,0 0.08367,7.140208 0.2976,15.269446 L 73.932102,-1 m 0.665829,0 0.382869,20.672647 0.2976,1.737007 L 75.470044,-1 M 75.980965,-1 76.1712,16.06441 76.438291,-1 m 1.025896,0 0.492613,36.369725 0.5952,-33.627524 0.2976,2.233369 0.2976,31.394155 0.2976,-19.305315 0.2976,3.608237 0.2976,22.401692 0.2976,2.512596 0.2976,-23.177281 0.5952,18.059009 0.2976,11.033115 0.5952,-27.396977 0.5952,25.090371 0.2976,-1.182301 0.2976,-11.643146 0.2976,15.132053 0.2976,-5.914843 0.2976,-10.638373 0.5952,29.943687 0.2976,-25.763535 0.2976,26.695274 0.2976,-0.931739 0.2976,3.655119 0.2976,-2.72338 0.2976,7.04039 0.2976,-9.873466 0.2976,8.178319 0.2976,4.163653 0.2976,0 0.5952,7.653759 0.2976,0.721496 0.2976,-7.571301 0.5952,23.554918 0.2976,-7.221227 0.2976,1.256197 0.2976,6.534629 0.2976,1.681635 0.2976,-1.681635 0.2976,13.390475 0.2976,-7.41161 0.2976,4.53998 0.2976,14.91109 0.2976,-2.82225 0.2976,4.38554 0.2976,-3.56757 0.2976,15.94063 0.2976,-4.34574 0.2976,3.36644 0.2976,-2.68014 0.5952,12.48313 0.2976,-1.737 0.2976,3.15245 0.2976,5.91032 0.2976,8.94091 0.2976,-4.69142 0.8928,10.14727 0.2976,0 0.2976,11.94502 0.2976,-7.27393 0.2976,-1.58979 0.2976,15.29396 0.2976,-2.13433 0.2976,2.6178 0.2976,0.16042 0.2976,7.87478 0.2976,-2.47874 0.5952,8.51595 0.2976,4.70414 0.2976,-5.23207 0.2976,5.72228 0.5952,4.3795 0.2976,4.33887 0.2976,-1.63728 0.2976,2.49515 0.2976,5.63062 0.2976,-9.57624 0.2976,16.68219 0.2976,-5.74187 0.2976,-2.65485 0.5952,8.30774 0.2976,0.35528 0.2976,-4.57543 0.2976,1.3114 0.2976,5.53061 0.2976,-1.82499 0.2976,4.43534 0.2976,1.87599 0.2976,-0.48459 0.2976,-3.91602 0.2976,4.15873 0.2976,-1.79962 0.8928,7.83291 0.2976,-4.12118 0.2976,2.31928 0.2976,-1.38237 0.2976,-0.31092 0.2976,-1.97501 0.2976,0.55861 0.2976,9.22419 0.2976,-7.26458 0.2976,3.5425 0.2976,-7.84582 0.2976,3.76011 0.2976,0.38843 0.2976,3.84414 0.2976,-3.84414 0.2976,2.95835 0.2976,-1.04771 0.2976,1.12195 0.2976,-6.28292 0.2976,2.15727 0.2976,4.42184 0.2976,-0.81754 0.5952,-3.29026 0.2976,5.35288 0.2976,0.57838 0.2976,-6.40285 0.2976,1.79084 0.2976,0.99241 0.2976,-3.417 0.2976,3.417 0.2976,-2.39004 0.2976,4.03824 0.2976,-10.35183 0.5952,6.07793 0.2976,-0.87092 0.2976,3.11658 0.2976,-5.79595 0.2976,-1.50566 0.2976,1.33995 0.2976,-0.1661 0.2976,-3.31999 0.2976,4.22875 0.2976,-3.6212 0.2976,5.244 0.2976,-6.99397 0.2976,1.14242 0.2976,-3.11905 0.2976,5.68667 0.2976,-3.53307 0.2976,0.6159 0.5952,3.41964 0.2976,-7.38379 0.5952,3.08262 0.2976,1.14385 0.2976,-3.85672 0.2976,4.37845 0.5952,-6.24696 0.2976,6.07348 0.2976,-3.83715 0.2976,-1.38935 0.2976,-2.28167 0.2976,3.39533 0.2976,-6.35559 0.2976,2.08519 0.2976,5.18518 0.2976,-4.60059 0.2976,0.48347 0.2976,0.95709 0.2976,-1.05352 0.2976,-3.25867 0.2976,2.28704 0.2976,-4.65095 0.2976,7.71408 0.2976,-1.1331 0.2976,-9.02709 0.2976,8.64529 0.2976,-7.35845 0.2976,5.71231 0.2976,-4.86731 0.2976,-1.05785 0.2976,2.82046 0.2976,-5.20527 0.2976,4.17379 0.2976,1.33799 0.2976,-6.6231 0.2976,2.53028 0.2976,5.105 0.2976,-5.75635 0.2976,7.05078 0.2976,-6.076 0.2976,4.98227 0.2976,-5.73926 0.2976,2.87598 0.2976,-0.20905 0.2976,-0.52536 0.2976,-3.23731 0.2976,-0.22121 0.2976,-2.36572 0.2976,5.40111 0.2976,2.70592 0.2976,-10.6738 0.2976,7.00643 0.2976,-8.93382 0.2976,4.95095 0.2976,0.90477 0.2976,-0.33792 0.2976,2.44124 0.5952,-6.26971 0.2976,-1.20251 0.2976,6.15115 0.2976,-3.41549 0.2976,-0.70346 0.2976,-5.00498 0.2976,3.5766 0.2976,1.66365 0.2976,-2.75429 0.2976,-1.60584 0.2976,3.65195 0.2976,-5.93774 0.2976,0.12896 0.2976,2.65485 0.2976,4.56323 0.2976,-5.81496 0.5952,5.46527 0.5952,-6.86839 0.2976,2.40628 0.2976,-0.87698 0.2976,1.98869 0.2976,-3.90557 0.2976,-5.38276 0.2976,8.7964 0.2976,-2.25726 0.2976,0.88645 0.2976,2.47285 0.2976,-2.47285 0.2976,0.25124 0.2976,-0.37719 0.2976,-3.48891 0.2976,3.48891 0.2976,-1.01583 0.2976,-6.14409 0.2976,-0.27971 0.2976,4.74113 0.2976,-6.15657 0.5952,6.80852 0.2976,-5.25309 0.2976,4.20705 0.2976,-2.82225 0.2976,2.29333 0.2976,0 0.2976,0.92301 0.2976,-3.76699 0.5952,0.68764 0.2976,-5.99653 0.2976,2.63277 0.2976,-0.43201 0.2976,-0.87206 0.2976,0.87206 0.2976,-4.4726 0.2976,5.61878 0.2976,-2.16464 0.2976,3.57159 0.2976,-0.84079 0.2976,-4.66225 0.2976,2.94991 0.2976,4.74731 0.2976,-7.84802 0.2976,2.22865 0.2976,-3.29335 0.2976,-1.70636 0.2976,0.62529 0.2976,3.49142 0.2976,1.17489 0.5952,-3.73867 0.2976,3.15368 0.2976,-3.30744 0.2976,-2.03008 0.2976,6.068 0.2976,0.86669 0.2976,-5.36791 0.2976,0.61706 0.2976,-5.92562 0.2976,10.09987 0.2976,-0.72747 0.2976,-7.07118 0.2976,-2.6362 0.2976,9.11995 0.2976,-3.63153 0.2976,1.38388 0.2976,-4.88595 0.2976,-0.32719 0.2976,4.44768 0.2976,-3.30912 0.2976,3.15503 0.2976,-6.12084 0.2976,-3.62595 0.2976,-0.5336 0.2976,-1.80846 0.2976,8.44812 0.2976,-4.18346 0.2976,1.19666 0.2976,3.31098 0.2976,-5.90066 0.2976,0.17564 0.2976,5.72502 0.2976,-9.5089 0.2976,10.15279 0.2976,-1.29374 0.2976,-6.67198 0.2976,0 0.2976,1.42117 0.2976,-6.24885 0.2976,11.33626 0.2976,-11.91524 0.2976,4.50363 0.2976,-1.8416 0.2976,2.02314 0.2976,0 0.2976,0.90072 0.2976,5.67191 0.2976,-6.57263 0.2976,0.72149 0.2976,-1.26751 0.2976,-0.73469 0.2976,4.29723 0.2976,-0.87386 0.2976,-7.41161 0.2976,9.66146 0.2976,-7.35485 0.2976,6.49802 0.2976,-4.0817 0.2976,-1.29078 0.2976,1.8368 0.2976,-1.28071 0.2976,-5.36954 0.2976,1.18562 0.2976,5.28309 0.2976,-8.49026 0.2976,7.39109 0.2976,-7.80247 0.2976,-1.45906 0.2976,7.39054 0.2976,2.60568 0.2976,0.36448 0.5952,-11.85067 0.2976,7.54056 0.2976,4.31011 0.2976,-8.90164 0.2976,2.23337 0.2976,-2.23337 0.2976,4.00936 0.2976,-5.89092 0.2976,4.31449 0.2976,0.9894 0.2976,0.3919 0.2976,-2.38481 0.2976,1.99291 0.2976,-1.99291 0.2976,-1.22343 0.2976,0.20539 0.2976,-0.41138 0.2976,-4.69141 0.2976,-2.24049 0.2976,5.47284 0.2976,1.87044 0.2976,-4.88262 0.2976,0.65641 0.2976,1.29474 0.2976,-5.79117 0.2976,1.8332 0.2976,7.70505 0.2976,-9.53825 0.2976,-5.80496 0.2976,7.18432 0.2976,-3.50048 0.5952,10.01859 0.2976,-7.66569 0.2976,12.47749 0.2976,-13.40923 0.2976,10.44064 0.2976,-3.94951 0.2976,0.42633 0.2976,-4.61085 0.2976,3.10723 0.2976,-7.79865 0.2976,5.59329 0.2976,2.85371 0.2976,-8.447 0.2976,1.44057 0.2976,-3.65829 0.2976,4.83663 0.2976,2.52489 0.2976,-4.90165 0.2976,-2.71065 0.2976,2.95198 0.2976,0.48017 0.2976,1.42116 0.2976,2.53316 0.2976,-1.8332 0.2976,-6.82079 0.2976,3.49303 0.2976,-2.22551 0.2976,-5.48422 0.2976,3.18598 0.2976,9.00285 0.2976,-10.31285 0.2976,2.08445 0.5952,7.99963 0.2976,-3.04369 0.2976,1.42116 0.2976,-13.96007 0.2976,12.05874 0.2976,-12.63299 0.2976,3.92466 0.2976,9.42736 0.2976,-0.71903 0.2976,-11.20606 0.5952,5.95584 0.2976,-3.7313 0.2976,-5.69908 0.5952,15.63769 0.5952,-10.21286 0.2976,6.80447 0.2976,-4.37388 0.2976,-0.8009 0.2976,-6.46338 0.2976,6.99833 0.2976,-6.12083 0.2976,1.72282 0.2976,7.26964 0.5952,-6.98656 0.2976,1.95029 0.2976,0.81957 0.2976,-4.19679 0.2976,3.92466 0.2976,-8.08128 0.2976,1.21288 0.2976,8.21863 0.2976,-2.7269 0.2976,3.78874 0.2976,-7.49948 0.2976,-1.78099 0.2976,6.32096 0.2976,-1.66834 0.2976,-3.4603 0.2976,3.17835 0.2976,7.74981 0.2976,-16.46033 0.2976,1.26752 0.2976,0.62529 0.2976,1.84321 0.2976,-5.02679 0.2976,14.91109 0.2976,-1.06184 0.2976,-14.50363 0.2976,7.47732 0.2976,2.32567 0.2976,-5.65445 0.2976,7.62819 0.2976,-10.474 0.2976,3.15502 0.2976,8.69565 0.2976,-4.79492 0.2976,-2.98117 0.2976,-6.03783 0.2976,15.43112 0.8928,-12.82545 0.2976,5.53217 0.2976,-0.29619 0.2976,2.62186 0.2976,-9.14861 0.2976,-2.99387 0.2976,0 0.2976,8.32322 0.2976,-1.52598 0.2976,-6.12083 0.2976,5.18909 0.2976,-12.26492 0.5952,12.57687 0.2976,-11.46905 0.2976,4.95095 0.2976,7.13789 0.2976,-0.30921 0.2976,-6.82868 0.2976,-3.86031 0.2976,8.4856 0.2976,-4.28464 0.2976,0.33902 0.2976,-2.40814 0.2976,1.72847 0.2976,-8.71362 0.2976,18.57489 0.2976,-8.17426 0.2976,-0.66995 0.2976,-1.35937 0.2976,-2.80018 0.2976,12.40761 0.2976,-18.36632 0.2976,9.1012 0.2976,1.68701 0.5952,1.64751 0.2976,0.32492 0.2976,-11.22298 0.5952,3.70323 0.2976,-1.45798 0.2976,-5.75349 0.2976,-0.80396 0.2976,11.18944 0.2976,-12.82545 0.2976,7.82419 0.2976,-6.18818 0.2976,-0.40545 0.2976,9.1387 0.2976,-5.57113 0.2976,5.92731 0.2976,-1.074 0.2976,-9.23885 0.2976,13.09916 0.2976,-28.18187 0.2976,7.71679 0.2976,11.75146 0.2976,3.76267 0.5952,-3.76267 0.2976,1.15008 0.2976,-3.50824 0.2976,0.79487 0.2976,5.32596 0.2976,-9.81327 0.2976,6.8194 0.2976,-11.16307 0.2976,4.76365 0.2976,13.31226 0.2976,-10.44063 0.2976,-2.45415 0.5952,8.97581 0.2976,-11.51869 0.2976,10.41087 0.2976,-4.61446 0.2976,-0.39855 0.2976,-1.61721 0.2976,8.10347 0.2976,1.79921 0.2976,-5.92731 0.2976,-0.38758 0.2976,-1.57203 0.2976,-4.09099 0.5952,9.07666 0.2976,-6.18818 0.2976,0 0.2976,-9.50889 0.2976,-3.80337 0.2976,12.49901 0.2976,-11.04855 0.2976,17.67877 0.2976,-8.28547 0.2976,9.75872 0.2976,-14.52237 0.2976,4.34367 0.2976,-11.40765 0.5952,10.98516 0.2976,3.7141 0.2976,0.79938 0.2976,-11.17573 0.2976,7.50472 0.2976,4.46142 0.2976,-2.80617 0.2976,-12.49901 0.5952,18.38087 0.2976,-5.88186 0.2976,-14.98497 0.2976,2.97278 0.2976,0.48347 0.2976,10.70596 0.2976,-3.82636 0.2976,-6.8796 0.5952,2.83308 0.2976,-0.46433 0.2976,-8.92897 0.5952,9.3933 0.2976,-3.31655 0.2976,1.91427 0.2976,-12.35491 0.2976,16.03393 0.2976,-0.44949 0.2976,0 0.2976,-1.36597 0.2976,8.23436 0.2976,-12.01219 0.2976,3.31655 0.2976,-2.83308 0.2976,-7.62607 0.2976,8.10624 0.2976,-7.5713 0.2976,2.61537 0.2976,-13.548004 0.2976,13.548004 0.2976,-1.03451 0.2976,-5.41384 0.2976,-0.565025 0.2976,16.149465 0.2976,-11.75146 0.2976,8.52193 0.2976,0 0.5952,3.67902 0.2976,-16.03393 0.2976,2.75899 0.5952,10.06646 0.2976,-8.99247 0.2976,8.52193 0.2976,-2.40109 0.2976,0.48682 0.2976,-8.22486 0.2976,7.24782 0.5952,-12.335231 0.2976,19.352201 0.2976,-11.58974 0.2976,-3.22249 0.2976,2.16464 0.2976,3.63488 0.2976,-5.25208 0.2976,1.08226 0.2976,-1.6297 0.2976,2.69555 0.2976,7.99102 0.2976,-4.38278 0.2976,-9.681004 0.2976,1.708874 0.2976,-1.134624 0.2976,-4.730872 0.2976,9.698476 0.2976,-6.704611 0.2976,-13.53244 0.2976,14.695197 0.2976,3.377214 0.2976,4.78001 0.5952,-12.313846 0.2976,13.837626 0.2976,-16.964594 0.2976,7.28359 0.2976,-19.093204 0.2976,18.514228 0.2976,-5.437099 0.2976,7.159924 0.2976,-6.534629 0.2976,1.843211 0.2976,-5.026795 0.2976,10.283238 0.2976,1.11661 0.5952,-12.054226 0.5952,9.802992 0.2976,-3.517994 0.2976,1.780987 0.2976,-8.726509 0.2976,6.341697 0.2976,1.202512 0.2976,-3.045723 0.2976,-10.740083 0.2976,16.130863 0.2976,-10.55605 0.2976,4.539975 0.2976,-5.21314 0.5952,8.884158 0.2976,-7.544209 0.5952,6.341697 0.2976,1.202512 0.2976,-5.580959 0.2976,-3.303199 0.2976,-7.111626 0.2976,12.324766 0.2976,-7.972129 0.2976,0 0.2976,3.432154 0.2976,-4.853317 0.2976,8.76239 0.2976,-8.76239 0.5952,7.483351 0.2976,-8.933819 0.2976,13.916091 0.2976,-6.945522 0.2976,-19.796015 0.2976,15.697077 0.2976,-8.197594 0.2976,19.840741 0.2976,-1.202512 0.5952,-9.047615 0.2976,-10.385484 0.2976,13.751926 0.2976,-14.55588 0.2976,13.895356 0.2976,4.498486 0.2976,-12.950061 0.2976,5.052595 0.2976,12.70927 0.5952,-12.016208 0.2976,-15.353091 0.2976,8.094575 0.2976,-6.399428 0.2976,10.122265 0.2976,-2.209978 0.2976,-4.639827 0.2976,16.333691 0.2976,-15.538821 0.2976,10.956583 0.2976,3.945625 0.2976,-13.338917 0.2976,10.733241 0.2976,0.660524 0.2976,-17.866853 0.2976,16.539545 0.2976,-4.853317 0.2976,-12.538908 0.2976,15.353091 0.2976,-5.001257 0.5952,-7.001429 0.2976,15.369128 0.2976,-4.759462 0.2976,-9.796418 0.2976,13.228572 0.2976,-22.737468 0.2976,26.646541 0.2976,-18.773653 0.2976,17.494614 0.2976,-19.169579 0.2976,17.866853 0.2976,-14.55588 0.2976,12.555407 0.2976,-9.393292 0.2976,-0.777303 0.2976,1.54611 0.2976,-5.56693 0.5952,11.432426 0.2976,-8.197594 0.2976,6.054935 0.2976,2.842617 0.2976,-12.964882 0.2976,-7.04039 0.2976,16.433683 0.2976,-6.120833 0.2976,0 0.2976,2.358161 0.2976,-17.458246 0.2976,21.94989 0.2976,-19.995731 0.2976,9.030999 0.2976,0 0.2976,-1.715822 0.2976,-15.480297 0.2976,16.343439 0.2976,-1.737006 0.2976,0.873864 0.2976,-2.654851 0.2976,2.654851 0.2976,-9.269336 0.2976,19.739912 0.2976,-14.952677 0.2976,11.10772 0.5952,-10.188162 0.2976,-3.752634 0.2976,13.940796 0.2976,3.092594 0.2976,-10.592077 0.2976,9.062774 0.2976,-7.325768 0.5952,-25.582296 0.2976,31.344773 0.2976,-7.499483 0.2976,4.264651 0.2976,-9.748872 0.2976,8.073907 0.2976,2.497725 0.2976,-14.480704 0.2976,18.456067 0.2976,-3.162115 0.2976,-15.293952 0.2976,11.982979 0.2976,-7.129662 0.2976,-1.901337 0.2976,-0.970294 0.5952,14.91109 0.2976,-7.499483 0.2976,0 0.2976,-16.8049 0.2976,19.394586 0.2976,-9.030999 0.2976,8.178319 0.2976,-3.517993 0.2976,-7.612306 0.2976,9.393293 0.2976,-11.432427 0.2976,10.54757 0.2976,3.474543 0.2976,1.674965 0.5952,-10.705964 0.2976,4.660326 0.2976,-11.751453 0.2976,1.057843 0.2976,10.69361 0.2976,-3.703234 0.2976,-1.927386 0.2976,-4.02082 0.2976,14.022113 0.2976,-11.982979 0.2976,0 0.2976,-5.21314 0.5952,16.343439 0.5952,-28.094892 0.2976,20.873665 0.5952,4.599364 0.2976,0.884857 0.2976,-9.393293 0.2976,0 0.2976,-4.139147 0.2976,-14.11622 0.2976,23.108684 0.2976,-15.697077 0.2976,13.79574 0.2976,-3.964159 0.2976,8.624485 0.2976,-8.624485 0.2976,2.01 0.5952,-14.226393 0.2976,22.621865 0.5952,-8.395472 0.2976,-15.449818 0.2976,11.370693 0.2976,-6.599699 0.2976,7.641869 0.2976,-16.216233 0.2976,14.11622 0.2976,-1.073993 0.2976,18.871084 0.2976,-15.697078 0.5952,-11.189438 0.5952,24.358871 0.2976,-6.276982 0.5952,-27.129504 0.2976,17.063047 0.2976,-9.238857 0.2976,12.412863 0.2976,-11.189438 0.5952,13.228572 0.2976,-1.012179 0.2976,-8.668824 0.2976,-2.345058 0.2976,8.944757 0.2976,0 0.2976,-12.615774 0.2976,18.649058 0.2976,-22.522249 0.2976,0 0.2976,8.726509 0.5952,8.804626 0.2976,-4.264651 0.2976,-17.365422 0.2976,12.825447 0.2976,1.162757 0.2976,-9.889266 0.2976,9.889266 0.2976,0 0.2976,-7.28359 0.2976,3.736021 0.2976,0 0.2976,-5.026795 0.2976,-14.406304 0.2976,34.643357 0.2976,-9.393293 0.2976,-3.432153 0.2976,8.804626 0.5952,-7.641869 0.2976,-11.229215 0.2976,16.771071 0.2976,-5.541856 0.2976,1.143849 0.2976,-3.488907 0.2976,-13.064309 0.2976,5.520101 0.2976,20.56809 0.2976,-19.253188 0.2976,5.026795 0.2976,-3.736021 0.2976,7.28359 0.2976,-7.28359 0.2976,3.736021 0.2976,9.089425 0.2976,-2.164638 0.2976,-17.365422 0.2976,13.988204 0.2976,-15.409367 0.5952,15.409367 0.2976,-18.340841 0.2976,12.324766 0.2976,-1.267515 0.2976,-2.605676 0.2976,18.55809 0.2976,-12.216393 0.2976,2.384812 0.2976,-17.178084 0.2976,11.057251 0.2976,-5.311594 0.2976,-2.814183 0.2976,-9.188503 0.2976,3.19806 0.2976,22.543659 0.5952,-16.553216 0.5952,19.87723 0.2976,-3.324014 0.2976,-19.48469 0.2976,15.995783 0.2976,-14.514777 0.2976,6.970569 0.2976,-19.796016 0.2976,-5.48422 0.2976,41.769201 0.2976,-23.459534 0.2976,-4.539975 0.2976,10.170595 0.2976,-5.63062 0.2976,2.871631 0.2976,15.132053 0.5952,-24.124517 0.2976,14.406304 0.2976,3.80337 0.2976,1.223425 0.2976,-9.047615 0.2976,-2.814183 0.2976,0 0.2976,-17.884152 0.2976,20.698335 0.2976,5.311594 0.2976,-12.57011 0.2976,0 0.2976,4.444333 0.2976,9.393292 0.2976,-15.383735 0.2976,-4.853318 0.2976,27.396977 0.2976,-13.739033 0.2976,0 0.5952,-7.258516 0.2976,-3.126968 0.2976,7.571301 0.2976,0 0.2976,-10.843761 0.2976,9.393293 0.2976,-1.481006 0.5952,-14.952678 0.2976,29.74595 0.2976,-24.400706 0.5952,11.08844 0.2976,-1.481006 0.2976,-16.828661 0.2976,18.309667 0.2976,-2.993865 0.2976,8.624485 0.2976,-13.368655 0.2976,29.065733 0.2976,-5.63062 0.2976,-10.066458 0.2976,-4.180152 0.2976,-17.884152 0.2976,24.719155 0.5952,-2.654851 0.2976,-7.111626 0.2976,-14.952678 0.2976,8.695649 0.2976,21.050301 0.2976,-7.681646 0.2976,-20.237053 0.2976,6.868398 0.2976,16.023506 0.2976,-14.406304 0.2976,1.580858 L 388.61181,-1 l 0,0" />
        </g>
      </g>
      <g
         id="g5725">
        <g
           clip-path="url(#clipPath5729)"
           id="g5727">
          <path
             inkscape:connector-curvature="0"
             id="path5733"
             style="fill:none;stroke:#000000;stroke-width:2.59506321;stroke-linecap:square;stroke-linejoin:round;stroke-miterlimit:10;stroke-dasharray:none;stroke-opacity:1"
             d="M 76.312841,-1 76.4688,9.274714 76.676066,-1 M 76.832254,-1 77.064,14.758934 77.194513,-1 M 77.90425,-1 77.9568,3.326507 78.154948,-1 m 0.38881,0 0.0082,0.061856 0.2976,38.098769 0.2976,-22.401691 0.2976,30.829131 0.2976,-18.003685 0.2976,-2.993864 0.5952,27.495568 0.2976,9.651441 0.5952,10.066457 0.2976,-7.411606 0.2976,5.830749 0.2976,0 0.5952,1.580857 0.2976,14.752833 0.2976,3.099409 0.2976,-0.609053 0.2976,14.338299 0.2976,0.9908 0.2976,4.75486 0.2976,-1.39302 0.2976,22.31638 0.2976,-6.80714 0.2976,1.85618 0.5952,11.77963 0.5952,2.73515 0.2976,4.05393 0.5952,15.35861 0.5952,2.00681 0.2976,5.29161 0.2976,-1.44197 0.2976,11.31787 0.2976,-4.19824 0.5952,8.49415 0.2976,8.47044 0.2976,-4.1078 0.2976,9.92008 0.2976,0.81168 0.2976,5.05925 0.2976,-3.07009 0.2976,11.21635 0.2976,-0.67209 0.2976,2.86713 0.5952,-1.19879 0.2976,6.10251 0.2976,-1.21989 0.2976,12.80836 0.2976,-3.23584 0.2976,3.74682 0.2976,-1.63102 0.2976,6.07016 0.2976,2.96398 0.2976,-4.00734 0.2976,4.84254 0.2976,0.0754 0.2976,4.17145 0.2976,-2.53197 0.2976,1.16879 0.2976,3.18679 0.2976,1.43916 0.2976,-5.13491 0.2976,0.79815 0.2976,0.28801 0.2976,7.03697 0.2976,-4.6354 0.595202,1.98555 0.2976,-3.03497 0.2976,3.43886 0.2976,-1.97401 0.2976,-1.0432 0.2976,-1.7738 0.2976,-0.5772 0.2976,-1.76055 0.2976,-3.19115 0.5952,5.60071 0.2976,-8.1331 0.2976,3.99396 0.2976,-6.03783 0.2976,-2.87855 0.2976,3.12697 0.2976,-7.21899 0.2976,-2.32798 0.2976,2.60223 0.2976,-2.98197 0.2976,-6.89525 0.2976,1.55752 0.2976,-0.93036 0.5952,-11.38348 0.2976,-1.60867 0.2976,4.01387 0.2976,-1.07217 0.2976,-12.01386 0.2976,2.79184 0.2976,-6.59521 0.2976,0.74757 0.2976,-1.04883 0.2976,-3.71956 0.2976,-0.6395 0.2976,-9.25577 0.2976,2.51903 0.5952,-8.2413 0.2976,-10.25013 0.2976,2.03913 0.2976,-10.84376 0.2976,-0.52301 0.2976,-4.3303 0.2976,5.63062 0.2976,-11.44759 0.2976,3.25868 0.2976,1.43274 0.2976,-14.7812 0.2976,0 0.2976,-6.98516 0.2976,7.68165 0.2976,-15.00741 0.2976,-2.17805 0.2976,3.87319 0.2976,-2.55829 0.2976,-7.79865 0.2976,-20.075524 0.2976,-1.963249 0.2976,24.423583 0.5952,-23.76306 0.2976,0 0.2976,-18.719532 0.2976,18.719532 0.2976,-4.059503 0.5952,-13.80735 0.2976,-18.286764 0.2976,16.570943 0.2976,-10.267157 0.2976,-5.213141 0.2976,2.131836 0.2976,1.04217 0.2976,-12.412863 0.2976,-6.45822 0.2976,19.898039 0.2976,-25.52866 0.2976,13.312267 0.2976,-7.681646 0.2976,-1.365969 0.2976,-13.657944 0.2976,18.969537 0.2976,-9.576245 0.5952,-26.357885 0.2976,15.269446 L 126.60881,-1 m 0.30878,0 0.14321,6.365641 0.2976,3.909073 L 127.656,5.365641 127.75977,-1 m 1.29713,0 0.0871,8.347327 L 129.30732,-1 m 4.59801,0 2.7e-4,0.061856 0,0 0,0 3.4e-4,-0.061856 0,0" />
        </g>
      </g>
      <g
         id="g5735">
        <path
           inkscape:connector-curvature="0"
           id="path5737"
           style="fill:none;stroke:#000000;stroke-width:1.3840338;stroke-linecap:square;stroke-linejoin:miter;stroke-miterlimit:10;stroke-dasharray:none;stroke-opacity:1"
           d="m 54,36 0,217.44" />
        <path
           inkscape:connector-curvature="0"
           id="path5739"
           style="fill:none;stroke:#000000;stroke-width:1.3840338;stroke-linecap:square;stroke-linejoin:miter;stroke-miterlimit:10;stroke-dasharray:none;stroke-opacity:1"
           d="m 388.8,36 0,217.44" />
        <path
           inkscape:connector-curvature="0"
           id="path5741"
           style="fill:none;stroke:#000000;stroke-width:1.3840338;stroke-linecap:square;stroke-linejoin:miter;stroke-miterlimit:10;stroke-dasharray:none;stroke-opacity:1"
           d="m 54,36 334.8,0" />
        <path
           inkscape:connector-curvature="0"
           id="path5743"
           style="fill:none;stroke:#000000;stroke-width:1.3840338;stroke-linecap:square;stroke-linejoin:miter;stroke-miterlimit:10;stroke-dasharray:none;stroke-opacity:1"
           d="m 54,253.44 334.8,0" />
        <path
           inkscape:connector-curvature="0"
           id="path5745"
           style="fill:#ffffff;fill-opacity:0.8;fill-rule:nonzero;stroke:#cccccc;stroke-width:1.73004222;stroke-linecap:butt;stroke-linejoin:miter;stroke-miterlimit:10;stroke-dasharray:none;stroke-opacity:0.8"
           d="m 219.07812,190.965 161.32188,0 c 1.6,0 2.4,0.8 2.4,2.4 l 0,51.675 c 0,1.6 -0.8,2.4 -2.4,2.4 l -161.32188,0 c -1.6,0 -2.4,-0.8 -2.4,-2.4 l 0,-51.675 c 0,-1.6 0.8,-2.4 2.4,-2.4 z" />
        <path
           inkscape:connector-curvature="0"
           id="path5747"
           style="fill:none;stroke:#0000ff;stroke-width:2.59506321;stroke-linecap:square;stroke-linejoin:round;stroke-miterlimit:10;stroke-dasharray:none;stroke-opacity:1"
           d="m 221.47812,237.715 24,0" />
        <text
           id="text5749"
           style="font-variant:normal;font-weight:normal;font-size:12px;font-family:'DejaVu Sans';-inkscape-font-specification:DejaVuSans;writing-mode:lr-tb;fill:#000000;fill-opacity:1;fill-rule:nonzero;stroke:none"
           transform="matrix(1,0,0,-1,255.07812,233.515)">
          <tspan
             id="tspan5751"
             sodipodi:role="line"
             y="0"
             x="0 9.2399998 12.576 24.264 28.08 34.332001 39.035999 46.391998 51.096001 58.476002 62.52 66.335999 73.968002 77.783997 85.416 93.047997 96.863998 104.472">Dim state: 0.25 ns</tspan>
        </text>
        <path
           inkscape:connector-curvature="0"
           id="path5753"
           style="fill:none;stroke:#ff0000;stroke-width:2.59506321;stroke-linecap:square;stroke-linejoin:round;stroke-miterlimit:10;stroke-dasharray:none;stroke-opacity:1"
           d="m 221.47812,220.09 24,0" />
        <text
           id="text5755"
           style="font-variant:normal;font-weight:normal;font-size:12px;font-family:'DejaVu Sans';-inkscape-font-specification:DejaVuSans;writing-mode:lr-tb;fill:#000000;fill-opacity:1;fill-rule:nonzero;stroke:none"
           transform="matrix(1,0,0,-1,255.07812,215.89)">
          <tspan
             id="tspan5757"
             sodipodi:role="line"
             y="0"
             x="0 8.2320004 13.164 16.5 24.120001 31.728001 36.431999 40.248001 46.5 51.203999 58.560001 63.264 70.643997 74.688004 78.503998 86.136002 89.952003 97.584 105.216 109.032 116.64">Bright state: 1.88 ns</tspan>
        </text>
        <path
           inkscape:connector-curvature="0"
           id="path5759"
           style="fill:none;stroke:#000000;stroke-width:2.59506321;stroke-linecap:square;stroke-linejoin:round;stroke-miterlimit:10;stroke-dasharray:none;stroke-opacity:1"
           d="m 221.47812,202.465 24,0" />
        <text
           id="text5761"
           style="font-variant:normal;font-weight:normal;font-size:12px;font-family:'DejaVu Sans';-inkscape-font-specification:DejaVuSans;writing-mode:lr-tb;fill:#000000;fill-opacity:1;fill-rule:nonzero;stroke:none"
           transform="matrix(1,0,0,-1,255.07812,198.265)">
          <tspan
             id="tspan5763"
             sodipodi:role="line"
             y="0"
             x="0 3.54 11.88 22.823999 64.776001">IRF</tspan>
        </text>
      </g>
      <text
         xml:space="preserve"
         style="font-style:normal;font-weight:normal;font-size:55.36135101px;line-height:125%;font-family:sans-serif;letter-spacing:0px;word-spacing:0px;fill:#000000;fill-opacity:1;stroke:none;stroke-width:1px;stroke-linecap:butt;stroke-linejoin:miter;stroke-opacity:1"
         x="5.1475277"
         y="-79.30941"
         id="text5868"
         sodipodi:linespacing="125%"
         transform="scale(0.99942943,-1.0005709)"><tspan
           sodipodi:role="line"
           id="tspan5870"
           x="5.1475277"
           y="-79.30941"
           style="font-size:19.03046417px">0.01</tspan></text>
      <text
         xml:space="preserve"
         style="font-style:normal;font-weight:normal;font-size:55.36135101px;line-height:125%;font-family:sans-serif;letter-spacing:0px;word-spacing:0px;fill:#000000;fill-opacity:1;stroke:none;stroke-width:1px;stroke-linecap:butt;stroke-linejoin:miter;stroke-opacity:1"
         x="32.096004"
         y="-238.77586"
         id="text5868-3"
         sodipodi:linespacing="125%"
         transform="scale(0.99942943,-1.0005709)"><tspan
           sodipodi:role="line"
           id="tspan5870-6"
           x="32.096004"
           y="-238.77586"
           style="font-size:19.03046417px">1</tspan></text>
    </g>
    <g
       transform="matrix(0.72059832,0,0,-0.72059832,3.4548039,1046.4353)"
       inkscape:label="lifetime_timetrace"
       id="g6112">
      <path
         inkscape:connector-curvature="0"
         id="path6114"
         style="fill:#000000;fill-opacity:1;fill-rule:nonzero;stroke:#000000;stroke-width:1.38773561;stroke-linecap:butt;stroke-linejoin:round;stroke-miterlimit:10;stroke-dasharray:none;stroke-opacity:1"
         d="m 54,36 0,-3.5" />
      <text
         id="text6116"
         style="font-variant:normal;font-weight:normal;font-size:14px;font-family:'DejaVu Sans';-inkscape-font-specification:DejaVuSans;writing-mode:lr-tb;fill:#000000;fill-opacity:1;fill-rule:nonzero;stroke:none"
         transform="matrix(1,0,0,-1,45.09375,18.359375)">
        <tspan
           id="tspan6118"
           sodipodi:role="line"
           y="0"
           x="0 8.9040003">10</tspan>
      </text>
      <path
         inkscape:connector-curvature="0"
         id="path6120"
         style="fill:#000000;fill-opacity:1;fill-rule:nonzero;stroke:#000000;stroke-width:1.38773561;stroke-linecap:butt;stroke-linejoin:round;stroke-miterlimit:10;stroke-dasharray:none;stroke-opacity:1"
         d="m 120.96,36 0,-3.5" />
      <text
         id="text6122"
         style="font-variant:normal;font-weight:normal;font-size:14px;font-family:'DejaVu Sans';-inkscape-font-specification:DejaVuSans;writing-mode:lr-tb;fill:#000000;fill-opacity:1;fill-rule:nonzero;stroke:none"
         transform="matrix(1,0,0,-1,112.05375,18.359375)">
        <tspan
           id="tspan6124"
           sodipodi:role="line"
           y="0"
           x="0 8.9040003">12</tspan>
      </text>
      <path
         inkscape:connector-curvature="0"
         id="path6126"
         style="fill:#000000;fill-opacity:1;fill-rule:nonzero;stroke:#000000;stroke-width:1.38773561;stroke-linecap:butt;stroke-linejoin:round;stroke-miterlimit:10;stroke-dasharray:none;stroke-opacity:1"
         d="m 187.92,36 0,-3.5" />
      <text
         id="text6128"
         style="font-variant:normal;font-weight:normal;font-size:14px;font-family:'DejaVu Sans';-inkscape-font-specification:DejaVuSans;writing-mode:lr-tb;fill:#000000;fill-opacity:1;fill-rule:nonzero;stroke:none"
         transform="matrix(1,0,0,-1,179.01375,18.359375)">
        <tspan
           id="tspan6130"
           sodipodi:role="line"
           y="0"
           x="0 8.9040003">14</tspan>
      </text>
      <path
         inkscape:connector-curvature="0"
         id="path6132"
         style="fill:#000000;fill-opacity:1;fill-rule:nonzero;stroke:#000000;stroke-width:1.38773561;stroke-linecap:butt;stroke-linejoin:round;stroke-miterlimit:10;stroke-dasharray:none;stroke-opacity:1"
         d="m 254.88,36 0,-3.5" />
      <text
         id="text6134"
         style="font-variant:normal;font-weight:normal;font-size:14px;font-family:'DejaVu Sans';-inkscape-font-specification:DejaVuSans;writing-mode:lr-tb;fill:#000000;fill-opacity:1;fill-rule:nonzero;stroke:none"
         transform="matrix(1,0,0,-1,245.97375,18.359375)">
        <tspan
           id="tspan6136"
           sodipodi:role="line"
           y="0"
           x="0 8.9040003">16</tspan>
      </text>
      <path
         inkscape:connector-curvature="0"
         id="path6138"
         style="fill:#000000;fill-opacity:1;fill-rule:nonzero;stroke:#000000;stroke-width:1.38773561;stroke-linecap:butt;stroke-linejoin:round;stroke-miterlimit:10;stroke-dasharray:none;stroke-opacity:1"
         d="m 321.84,36 0,-3.5" />
      <text
         id="text6140"
         style="font-variant:normal;font-weight:normal;font-size:14px;font-family:'DejaVu Sans';-inkscape-font-specification:DejaVuSans;writing-mode:lr-tb;fill:#000000;fill-opacity:1;fill-rule:nonzero;stroke:none"
         transform="matrix(1,0,0,-1,312.93375,18.359375)">
        <tspan
           id="tspan6142"
           sodipodi:role="line"
           y="0"
           x="0 8.9040003">18</tspan>
      </text>
      <path
         inkscape:connector-curvature="0"
         id="path6144"
         style="fill:#000000;fill-opacity:1;fill-rule:nonzero;stroke:#000000;stroke-width:1.38773561;stroke-linecap:butt;stroke-linejoin:round;stroke-miterlimit:10;stroke-dasharray:none;stroke-opacity:1"
         d="m 388.8,36 0,-3.5" />
      <text
         id="text6146"
         style="font-variant:normal;font-weight:normal;font-size:14px;font-family:'DejaVu Sans';-inkscape-font-specification:DejaVuSans;writing-mode:lr-tb;fill:#000000;fill-opacity:1;fill-rule:nonzero;stroke:none"
         transform="matrix(1,0,0,-1,379.89375,18.359375)">
        <tspan
           id="tspan6148"
           sodipodi:role="line"
           y="0"
           x="0 8.9040003">20</tspan>
      </text>
      <text
         id="text6150"
         style="font-variant:normal;font-weight:normal;font-size:16px;font-family:'DejaVu Sans';-inkscape-font-specification:DejaVuSans;writing-mode:lr-tb;fill:#000000;fill-opacity:1;fill-rule:nonzero;stroke:none"
         transform="scale(1,-1)"
         x="179.79407"
         y="3.4785964">
        <tspan
           id="tspan6152"
           sodipodi:role="line"
           style="font-size:20.81603432px"
           x="179.79407"
           y="3.4785964">time/s</tspan>
      </text>
      <path
         inkscape:connector-curvature="0"
         id="path6154"
         style="fill:#000000;fill-opacity:1;fill-rule:nonzero;stroke:#000000;stroke-width:1.38773561;stroke-linecap:butt;stroke-linejoin:round;stroke-miterlimit:10;stroke-dasharray:none;stroke-opacity:1"
         d="m 54,52.106667 -3.5,0" />
      <text
         id="text6156"
         style="font-variant:normal;font-weight:normal;font-size:16px;font-family:'DejaVu Sans';-inkscape-font-specification:DejaVuSans;writing-mode:lr-tb;fill:#000000;fill-opacity:1;fill-rule:nonzero;stroke:none"
         transform="matrix(1,0,0,-1,36.8125,46.028542)">
        <tspan
           id="tspan6158"
           y="0"
           x="0">0</tspan>
      </text>
      <path
         inkscape:connector-curvature="0"
         id="path6160"
         style="fill:#000000;fill-opacity:1;fill-rule:nonzero;stroke:#000000;stroke-width:1.38773561;stroke-linecap:butt;stroke-linejoin:round;stroke-miterlimit:10;stroke-dasharray:none;stroke-opacity:1"
         d="m 54,132.64 -3.5,0" />
      <text
         id="text6162"
         style="font-variant:normal;font-weight:normal;font-size:16px;font-family:'DejaVu Sans';-inkscape-font-specification:DejaVuSans;writing-mode:lr-tb;fill:#000000;fill-opacity:1;fill-rule:nonzero;stroke:none"
         transform="matrix(1,0,0,-1,36.8125,126.56188)">
        <tspan
           id="tspan6164"
           y="0"
           x="0">2</tspan>
      </text>
      <path
         inkscape:connector-curvature="0"
         id="path6166"
         style="fill:#000000;fill-opacity:1;fill-rule:nonzero;stroke:#000000;stroke-width:1.38773561;stroke-linecap:butt;stroke-linejoin:round;stroke-miterlimit:10;stroke-dasharray:none;stroke-opacity:1"
         d="m 54,213.17333 -3.5,0" />
      <text
         id="text6168"
         style="font-variant:normal;font-weight:normal;font-size:16px;font-family:'DejaVu Sans';-inkscape-font-specification:DejaVuSans;writing-mode:lr-tb;fill:#000000;fill-opacity:1;fill-rule:nonzero;stroke:none"
         transform="matrix(1,0,0,-1,36.8125,207.09521)">
        <tspan
           id="tspan6170"
           y="0"
           x="0">4</tspan>
      </text>
      <g
         id="g6172">
        <g
           clip-path="url(#clipPath6176)"
           id="g6174">
          <path
             inkscape:connector-curvature="0"
             id="path6180"
             style="fill:none;stroke:#0000ff;stroke-width:2.60200429;stroke-linecap:square;stroke-linejoin:round;stroke-miterlimit:10;stroke-dasharray:none;stroke-opacity:1"
             d="M 53.368288,82.306667 54.037931,110.49333 54.707573,241.36 55.294434,289 m 0.814233,0 L 56.7165,84.32 57.386143,98.413333 58.055785,58.146667 58.725427,72.24 l 0.669643,-8.053333 0.669642,6.04 0.669642,0 0.669643,136.906663 0.669642,-12.08 0.669642,0 0.669643,6.04 0.669642,-128.85333 0.669643,-8.053333 0.669642,12.08 0.669642,26.173333 0.669643,106.70667 1.339284,-80.53334 0.669643,32.21334 0.669642,-82.54667 0.669642,8.053333 0.669643,-24.16 0.669642,2.013334 0.669643,18.12 0.669642,52.346663 0.669642,-72.479997 0.669643,14.093334 0.669642,-4.026667 0.669642,4.026667 0.669643,-8.053334 0.669642,-2.013333 0.669643,14.093333 0.669642,48.319997 0.669642,-48.319997 0.669643,0 L 80.153983,66.2 l 0.669642,-8.053333 0.669643,6.04 L 82.16291,195.05333 82.832552,64.186667 83.502195,74.253333 84.84148,253.44 l 0.669642,-80.53333 0.669642,28.18666 0.669643,18.12 L 87.520049,96.4 l 0.669642,-14.093333 0.669643,16.106666 0.669642,-34.226666 0.669642,84.560003 0.669643,-14.09334 0.669642,0 0.669643,90.6 L 92.877188,259.48 93.54683,110.49333 94.216473,229.28 94.886115,227.26667 95.555757,74.253333 96.2254,215.18667 96.895042,68.213333 98.234327,72.24 l 0.669642,-6.04 0.669643,62.41333 0.669638,-46.306663 0.66965,6.04 0.66964,112.746663 0.66964,-34.22666 0.66964,-92.613337 0.66965,-8.053333 0.66964,-6.04 0.66964,20.133333 1.33928,12.08 0.66965,-22.146666 0.66964,16.106666 0.66964,-8.053333 0.66965,4.026667 0.66964,-8.053334 0.66964,-4.026666 0.66964,2.013333 0.57676,216.76 m 0.22047,0 0.54206,-148.30667 0.66964,-80.53333 0.66964,2.013333 0.66964,-2.013333 1.33929,8.053333 0.66964,8.053334 0.66964,-6.04 0.66965,-2.013334 0.66964,0 0.66964,18.12 0.66964,-22.146666 0.66965,40.266663 0.66964,2.01334 0.66964,-38.253337 0.66964,80.533337 1.33929,-80.533337 0.66964,-2.013333 0.66964,0 0.66964,8.053333 0.66965,-12.08 0.66964,142.946667 0.66964,-122.813333 0.66964,62.413333 0.66965,-46.306667 0.66964,-24.16 0.66964,-12.08 0.66964,8.053334 0.66964,-4.026667 0.66965,6.04 1.33928,4.026667 0.66964,4.026666 0.66965,10.066667 0.66964,-18.12 0.66964,22.146667 0.66964,-24.16 1.33929,-4.026667 0.66964,8.053333 0.66964,-10.066666 0.66965,12.08 0.66964,-8.053334 0.66964,20.133334 0.66964,-28.186667 0.66964,92.61333 0.66965,-78.519997 0.66964,118.786667 0.66964,-104.693333 0.66964,42.280003 0.66965,60.4 0.66964,-22.14667 0.66964,100.66667 0.66964,-58.38667 0.66965,-132.88 0.66964,22.14667 0.66964,104.69333 0.66964,-22.14667 0.66965,12.08 1.33928,-78.52 0.66964,14.09334 0.66965,-66.440003 0.66964,2.013333 0.66964,0 0.66964,6.04 0.66964,-2.013333 0.66965,-4.026667 0.66964,4.026667 0.66964,-6.04 0.66965,8.053333 0.66964,-2.013333 0.66964,38.253333 0.66964,-46.306667 0.66964,14.093334 0.66965,2.013333 2.00892,-12.08 0.66965,4.026667 0.66964,144.960003 0.66964,-108.72 0.66964,-34.22667 0.66964,4.026667 0.66965,-8.053334 0.66964,0 0.66964,-2.013333 0.66964,-4.026667 0.66965,6.04 0.66964,12.08 0.66964,-24.16 0.66964,14.093334 0.66965,30.200003 0.66964,-34.22667 0.66964,20.133333 0.66964,-16.106666 0.66965,163.080003 0.66964,-165.093337 0.66964,8.053334 0.66964,-8.053334 0.66965,2.013334 0.66964,108.720003 0.66964,-88.58667 0.66964,-2.013333 0.66964,-24.16 0.66965,-4.026667 0.66964,10.066667 0.66964,2.013333 0.66964,60.4 0.66965,2.01333 0.66964,-54.359997 0.66964,134.893337 0.66964,-144.960003 0.66965,2.013333 0.66964,4.026667 0.66964,140.933333 0.66964,-96.64 0.66965,-48.32 0.66964,0 0.66964,-8.053333 0.66964,153.013333 0.66964,-96.64 0.66965,-4.02667 0.66964,-52.346663 0.66964,94.626663 0.66964,22.14667 0.66965,-92.613333 0.66964,54.360003 0.66964,-72.480003 0.66964,-6.04 0.66965,4.026666 0.66964,-2.013333 0.66964,0 0.66964,6.04 0.66965,40.26667 0.66964,106.70666 0.66964,24.16 0.66964,-54.36 0.66965,-68.45333 0.66964,-54.36 0.66964,8.053333 0.66964,-8.053333 0.66964,-2.013333 0.66965,102.680003 0.66964,60.4 0.66964,-14.09334 0.66964,-128.85333 0.66965,-8.053333 0.66964,80.533333 0.66964,-64.426667 0.66964,-18.12 0.66965,104.693337 0.66964,-108.720003 0.66964,8.053333 0.66964,-14.093333 0.66965,90.600003 0.66964,-54.36 0.66964,-16.10667 0.66964,-20.133333 0.66964,8.053333 0.66965,-6.04 0.66964,48.32 0.66964,-40.266667 0.66964,-2.013333 0.66965,-6.04 0.66964,90.6 0.66964,-88.586667 0.66964,4.026667 0.66965,18.12 0.66964,-20.133333 0.66964,-10.066667 0.66964,4.026667 0.66965,10.066666 0.66964,-6.04 0.66964,10.066667 0.66964,18.12 0.66964,30.2 0.66965,78.52 0.66964,-8.05333 0.66964,-38.25334 0.66964,-98.65333 0.66965,12.08 1.33928,0 0.66964,-6.04 0.66965,6.04 1.33928,-4.026667 0.66964,76.506667 0.66965,0 0.66964,-70.466667 0.66964,-16.106666 0.66964,18.12 0.66965,-2.013334 0.66964,-10.066666 0.66964,6.04 0.66964,8.053333 0.66964,-8.053333 0.66965,-2.013334 0.66964,-4.026666 0.66964,16.106666 0.66964,26.173337 0.66965,-38.253337 1.33928,0 0.66964,-6.04 0.66965,14.093334 1.33928,-8.053334 L 252.92171,78.28 253.59136,66.2 254.261,76.266667 254.93064,54.12 l 0.66964,181.2 0.66964,-26.17333 0.66965,-144.960003 0.66964,40.266663 0.66964,140.93334 0.66964,-96.64 1.33929,-80.533337 0.66964,0 0.66964,-6.04 0.66965,18.12 0.66964,-18.12 0.66964,14.093334 0.66964,-8.053334 1.33929,4.026667 0.66964,-4.026667 2.00893,0 0.66964,10.066667 0.66964,2.013333 0.66964,-14.093333 0.66965,0 0.66964,10.066667 0.66964,-10.066667 0.66964,0 0.66965,151 0.66964,-98.65333 0.66964,-52.34667 0.66964,12.08 0.66965,24.16 0.66964,138.92 0.66964,-80.53333 0.66964,-30.2 0.66965,-64.42667 0.66964,4.026667 0.66964,-6.04 0.66964,6.04 0.66964,10.066666 0.66965,8.053334 0.66964,-18.12 0.66964,-2.013334 0.66964,40.266667 0.66965,-38.253333 0.66964,-4.026667 0.66964,110.73333 0.66964,78.52 0.66965,-42.28 0.66964,-50.33333 0.66964,52.34667 0.66964,-94.62667 0.66965,-44.293333 0.66964,-2.013334 0.66964,6.04 0.66964,2.013334 0.66965,-2.013334 0.66964,-8.053333 0.66964,0 0.66964,-4.026667 0.66964,8.053334 0.66965,26.173333 0.66964,-40.266667 0.66964,-6.04 0.66964,8.053334 0.66965,-2.013334 0.66964,0 0.66964,-8.053333 0.66964,4.026667 0.66965,-4.026667 0.66964,8.053333 1.33928,-4.026666 0.66965,-6.04 0.66964,2.013333 2.00893,0 0.66964,12.08 0.66964,-8.053333 0.66964,2.013333 0.66964,-2.013333 0.66965,2.013333 0.66964,0 0.66964,-6.04 1.33929,12.08 0.66964,-10.066667 0.66964,2.013334 0.66964,8.053333 0.66965,-10.066667 0.66964,8.053334 0.66964,-8.053334 0.66964,8.053334 0.66965,-4.026667 0.66964,0 0.66964,-4.026667 0.66964,4.026667 0.66964,6.04 0.66965,-8.053333 0.66964,4.026666 0.66964,-6.04 0.66964,4.026667 0.66965,-8.053333 0.66964,8.053333 0.66964,-2.013333 0.66964,6.04 0.66965,-2.013334 0.66964,0 1.33928,-8.053333 0.66965,0 0.66964,2.013333 0.66964,8.053334 0.66964,-6.04 0.66964,-2.013334 0.66965,2.013334 1.33928,0 0.66964,2.013333 0.66965,0 0.66964,-6.04 0.66964,4.026667 1.33929,0 0.66964,6.04 0.66964,-8.053334 0.66964,4.026667 0.66965,0 0.66964,4.026667 0.66964,-8.053334 0.66964,10.066667 0.66964,-8.053333 0.66965,4.026666 0.66964,-4.026666 0.66964,-6.04 2.67857,8.053333 0.66964,0 1.33929,-4.026667 0.66964,0 0.66964,2.013334 0.66965,-2.013334 0.66964,2.013334 0.66964,-4.026667 0.66964,2.013333 L 355.377,66.2 l 0.66964,-4.026667 0.66964,-8.053333 0.66964,2.013333 0.66964,6.04 0.66965,-8.053333 0.66964,0 0.66964,12.08 0.66964,-6.04 0.66965,-2.013333 0.66964,4.026666 0.66964,-2.013333 0.66964,0 1.33929,-4.026667 0.66964,6.04 0.66964,-6.04 0.66965,6.04 0.66964,-4.026666 0.66964,4.026666 0.66964,-6.04 0.66964,4.026667 0.66965,-4.026667 0.66964,4.026667 0.66964,2.013333 0.66964,-4.026666 0.66965,6.04 0.66964,-6.04 0.66964,-4.026667 0.66964,2.013333 0.66965,0 0.66964,10.066667 0.66964,-4.026667 0.66964,2.013334 0.66965,-6.04 0.66964,-4.026667 0.66964,8.053333 1.33929,-4.026666 0.66964,-4.026667 0.66964,12.08 0.66964,-12.08 0.66964,4.026667 0.66965,6.04 0.66964,-8.053334 0.66964,0 0.66964,6.04 0.66965,-4.026666 0.66964,2.013333 0.66964,-6.04 0.66964,4.026667 0,0" />
        </g>
      </g>
      <g
         id="g6182">
        <g
           clip-path="url(#clipPath6186)"
           id="g6184">
          <path
             inkscape:connector-curvature="0"
             id="path6190"
             style="fill:none;stroke:#ff0000;stroke-width:3.46933937;stroke-linecap:square;stroke-linejoin:round;stroke-miterlimit:10;stroke-dasharray:none;stroke-opacity:1"
             d="m 54,92.373333 37.2,0 37.2,0 37.2,0 37.2,0 37.2,0 37.2,0 37.2,0 37.2,0 37.2,0" />
        </g>
      </g>
      <g
         id="g6192">
        <g
           clip-path="url(#clipPath6196)"
           id="g6194">
          <path
             inkscape:connector-curvature="0"
             id="path6200"
             style="fill:none;stroke:#000000;stroke-width:3.46933937;stroke-linecap:square;stroke-linejoin:round;stroke-miterlimit:10;stroke-dasharray:none;stroke-opacity:1"
             d="m 54,64.186667 37.2,0 37.2,0 37.2,0 37.2,0 37.2,0 37.2,0 37.2,0 37.2,0 37.2,0" />
        </g>
      </g>
      <g
         id="g6202">
        <path
           inkscape:connector-curvature="0"
           id="path6204"
           style="fill:none;stroke:#000000;stroke-width:1.38773561;stroke-linecap:square;stroke-linejoin:miter;stroke-miterlimit:10;stroke-dasharray:none;stroke-opacity:1"
           d="m 54,36 0,217.44" />
        <path
           inkscape:connector-curvature="0"
           id="path6206"
           style="fill:none;stroke:#000000;stroke-width:1.38773561;stroke-linecap:square;stroke-linejoin:miter;stroke-miterlimit:10;stroke-dasharray:none;stroke-opacity:1"
           d="m 388.8,36 0,217.44" />
        <path
           inkscape:connector-curvature="0"
           id="path6208"
           style="fill:none;stroke:#000000;stroke-width:1.38773561;stroke-linecap:square;stroke-linejoin:miter;stroke-miterlimit:10;stroke-dasharray:none;stroke-opacity:1"
           d="m 54,36 334.8,0" />
        <path
           inkscape:connector-curvature="0"
           id="path6210"
           style="fill:none;stroke:#000000;stroke-width:1.38773561;stroke-linecap:square;stroke-linejoin:miter;stroke-miterlimit:10;stroke-dasharray:none;stroke-opacity:1"
           d="m 54,253.44 334.8,0" />
        <text
           id="text6220"
           style="font-variant:normal;font-weight:normal;font-size:16px;font-family:'DejaVu Sans';-inkscape-font-specification:DejaVuSans;writing-mode:lr-tb;fill:#000000;fill-opacity:1;fill-rule:nonzero;stroke:none"
           transform="matrix(0,1,1,0,0,0)"
           x="44.374359"
           y="29.436251">
          <tspan
             id="tspan6222"
             sodipodi:role="line"
             x="44.374359"
             y="29.436251"
             style="font-size:20.81603432px">Fluorescence(kcps)</tspan>
        </text>
        <text
           xml:space="preserve"
           style="font-style:normal;font-weight:normal;font-size:55.50942612px;line-height:125%;font-family:sans-serif;letter-spacing:0px;word-spacing:0px;fill:#ff0000;fill-opacity:1;stroke:none;stroke-width:1px;stroke-linecap:butt;stroke-linejoin:miter;stroke-opacity:1;"
           x="293.23914"
           y="-130.00032"
           id="text6280"
           sodipodi:linespacing="125%"
           transform="scale(1,-1)"><tspan
             sodipodi:role="line"
             id="tspan6282"
             x="293.23914"
             y="-130.00032"
             style="font-size:20.81603432px;fill:#ff0000;fill-opacity:1;">Reduced</tspan></text>
        <text
           xml:space="preserve"
           style="font-style:normal;font-weight:normal;font-size:55.50942612px;line-height:125%;font-family:sans-serif;letter-spacing:0px;word-spacing:0px;fill:#0000ff;fill-opacity:1;stroke:none;stroke-width:1px;stroke-linecap:butt;stroke-linejoin:miter;stroke-opacity:1;"
           x="297.02499"
           y="-73.632698"
           id="text6280-7"
           sodipodi:linespacing="125%"
           transform="scale(1,-1)"><tspan
             sodipodi:role="line"
             id="tspan6282-5"
             x="297.02499"
             y="-73.632698"
             style="font-size:20.81603432px;fill:#0000ff;fill-opacity:1;">Oxidized</tspan></text>
        <text
           xml:space="preserve"
           style="font-style:normal;font-weight:normal;font-size:55.50942612px;line-height:125%;font-family:sans-serif;letter-spacing:0px;word-spacing:0px;fill:#000000;fill-opacity:1;stroke:none;stroke-width:1px;stroke-linecap:butt;stroke-linejoin:miter;stroke-opacity:1"
           x="163.00787"
           y="-40.363781"
           id="text6280-7-3"
           sodipodi:linespacing="125%"
           transform="scale(1,-1)"><tspan
             sodipodi:role="line"
             id="tspan6282-5-5"
             x="163.00787"
             y="-40.363781"
             style="font-size:20.81603432px;fill:#000000;fill-opacity:1">Dark counts</tspan></text>
      </g>
    </g>
    <text
       xml:space="preserve"
       style="font-style:normal;font-weight:normal;font-size:40px;line-height:125%;font-family:sans-serif;letter-spacing:0px;word-spacing:0px;fill:#000000;fill-opacity:1;stroke:none;stroke-width:1px;stroke-linecap:butt;stroke-linejoin:miter;stroke-opacity:1"
       x="264.4729"
       y="878.297"
       id="text4294"
       sodipodi:linespacing="125%"><tspan
         sodipodi:role="line"
         id="tspan4296"
         x="264.4729"
         y="878.297"
         style="font-size:17.5px">a</tspan></text>
    <text
       xml:space="preserve"
       style="font-style:normal;font-weight:normal;font-size:40px;line-height:125%;font-family:sans-serif;letter-spacing:0px;word-spacing:0px;fill:#000000;fill-opacity:1;stroke:none;stroke-width:1px;stroke-linecap:butt;stroke-linejoin:miter;stroke-opacity:1"
       x="414.13229"
       y="877.17841"
       id="text4294-3"
       sodipodi:linespacing="125%"><tspan
         sodipodi:role="line"
         id="tspan4296-6"
         x="414.13229"
         y="877.17841"
         style="font-size:17.5px">b</tspan></text>
  </g>
</svg>
