<?xml version="1.0" encoding="UTF-8" standalone="no"?>
<!-- Created with matplotlib (http://matplotlib.org/) -->

<svg
   xmlns:dc="http://purl.org/dc/elements/1.1/"
   xmlns:cc="http://creativecommons.org/ns#"
   xmlns:rdf="http://www.w3.org/1999/02/22-rdf-syntax-ns#"
   xmlns:svg="http://www.w3.org/2000/svg"
   xmlns="http://www.w3.org/2000/svg"
   xmlns:xlink="http://www.w3.org/1999/xlink"
   xmlns:sodipodi="http://sodipodi.sourceforge.net/DTD/sodipodi-0.dtd"
   xmlns:inkscape="http://www.inkscape.org/namespaces/inkscape"
   height="6.3499999cm"
   version="1.1"
   viewBox="0 0 432 180"
   width="15.24cm"
   id="svg2"
   inkscape:version="0.91 r13725"
   sodipodi:docname="rate_fit_all_potential.svg">
  <metadata
     id="metadata394">
    <rdf:RDF>
      <cc:Work
         rdf:about="">
        <dc:format>image/svg+xml</dc:format>
        <dc:type
           rdf:resource="http://purl.org/dc/dcmitype/StillImage" />
        <dc:title></dc:title>
      </cc:Work>
    </rdf:RDF>
  </metadata>
  <sodipodi:namedview
     pagecolor="#ffffff"
     bordercolor="#666666"
     borderopacity="1"
     objecttolerance="10"
     gridtolerance="10"
     guidetolerance="10"
     inkscape:pageopacity="0"
     inkscape:pageshadow="2"
     inkscape:window-width="1920"
     inkscape:window-height="1056"
     id="namedview392"
     showgrid="false"
     units="cm"
     inkscape:zoom="2.0332862"
     inkscape:cx="272.71812"
     inkscape:cy="96.040268"
     inkscape:window-x="0"
     inkscape:window-y="24"
     inkscape:window-maximized="1"
     inkscape:current-layer="svg2" />
  <defs
     id="defs4"
     style="stroke-linecap:butt;stroke-linejoin:round">
    <style
       type="text/css"
       id="style6">
*{stroke-linecap:butt;stroke-linejoin:round;}
  </style>
  </defs>
  <g
     id="figure_1"
     style="stroke-linecap:butt;stroke-linejoin:round">
    <g
       id="patch_1"
       style="stroke-linecap:butt;stroke-linejoin:round">
      <path
         d="M 0,180 432,180 432,0 0,0 Z"
         style="fill:none;stroke-linecap:butt;stroke-linejoin:round"
         id="path10"
         inkscape:connector-curvature="0" />
    </g>
    <g
       id="axes_1"
       style="stroke-linecap:butt;stroke-linejoin:round">
      <g
         id="patch_2"
         style="stroke-linecap:butt;stroke-linejoin:round">
        <path
           d="m 47.8,138.2 158.71547,0 0,-123.9 L 47.8,14.3 Z"
           style="fill:none;stroke-linecap:butt;stroke-linejoin:round"
           id="path14"
           inkscape:connector-curvature="0" />
      </g>
      <g
         id="matplotlib.axis_1"
         style="stroke-linecap:butt;stroke-linejoin:round">
        <g
           id="xtick_1"
           style="stroke-linecap:butt;stroke-linejoin:round">
          <g
             id="line2d_1"
             style="stroke-linecap:butt;stroke-linejoin:round">
            <defs
               id="defs19">
              <path
                 d="M 0,0 0,3.5"
                 id="m0af70d383e"
                 style="stroke:#000000;stroke-width:0.80000001;stroke-linecap:butt;stroke-linejoin:round"
                 inkscape:connector-curvature="0" />
            </defs>
            <g
               id="g22"
               style="stroke-linecap:butt;stroke-linejoin:round">
              <use
                 style="stroke:#000000;stroke-width:0.80000001;stroke-linecap:butt;stroke-linejoin:round"
                 x="47.799999"
                 xlink:href="#m0af70d383e"
                 y="138.2"
                 id="use24"
                 width="100%"
                 height="100%" />
            </g>
          </g>
          <g
             id="text_1"
             style="stroke-linecap:butt;stroke-linejoin:round">
            <text
               style="font-style:normal;font-weight:400;font-size:10px;font-family:'DejaVu Sans';text-anchor:middle;stroke-linecap:butt;stroke-linejoin:round"
               x="47.799999"
               y="152.79843"
               id="text27">0.00</text>
          </g>
        </g>
        <g
           id="xtick_2"
           style="stroke-linecap:butt;stroke-linejoin:round">
          <g
             id="line2d_2"
             style="stroke-linecap:butt;stroke-linejoin:round">
            <g
               id="g31"
               style="stroke-linecap:butt;stroke-linejoin:round">
              <use
                 style="stroke:#000000;stroke-width:0.80000001;stroke-linecap:butt;stroke-linejoin:round"
                 x="85.779297"
                 xlink:href="#m0af70d383e"
                 y="138.2"
                 id="use33"
                 width="100%"
                 height="100%" />
            </g>
          </g>
          <g
             id="text_2"
             style="stroke-linecap:butt;stroke-linejoin:round">
            <text
               style="font-style:normal;font-weight:400;font-size:10px;font-family:'DejaVu Sans';text-anchor:middle;stroke-linecap:butt;stroke-linejoin:round"
               x="85.779297"
               y="152.79843"
               id="text36">0.01</text>
          </g>
        </g>
        <g
           id="xtick_3"
           style="stroke-linecap:butt;stroke-linejoin:round">
          <g
             id="line2d_3"
             style="stroke-linecap:butt;stroke-linejoin:round">
            <g
               id="g40"
               style="stroke-linecap:butt;stroke-linejoin:round">
              <use
                 style="stroke:#000000;stroke-width:0.80000001;stroke-linecap:butt;stroke-linejoin:round"
                 x="123.75859"
                 xlink:href="#m0af70d383e"
                 y="138.2"
                 id="use42"
                 width="100%"
                 height="100%" />
            </g>
          </g>
          <g
             id="text_3"
             style="stroke-linecap:butt;stroke-linejoin:round">
            <text
               style="font-style:normal;font-weight:400;font-size:10px;font-family:'DejaVu Sans';text-anchor:middle;stroke-linecap:butt;stroke-linejoin:round"
               x="123.75859"
               y="152.79843"
               id="text45">0.02</text>
          </g>
        </g>
        <g
           id="xtick_4"
           style="stroke-linecap:butt;stroke-linejoin:round">
          <g
             id="line2d_4"
             style="stroke-linecap:butt;stroke-linejoin:round">
            <g
               id="g49"
               style="stroke-linecap:butt;stroke-linejoin:round">
              <use
                 style="stroke:#000000;stroke-width:0.80000001;stroke-linecap:butt;stroke-linejoin:round"
                 x="161.73788"
                 xlink:href="#m0af70d383e"
                 y="138.2"
                 id="use51"
                 width="100%"
                 height="100%" />
            </g>
          </g>
          <g
             id="text_4"
             style="stroke-linecap:butt;stroke-linejoin:round">
            <text
               style="font-style:normal;font-weight:400;font-size:10px;font-family:'DejaVu Sans';text-anchor:middle;stroke-linecap:butt;stroke-linejoin:round"
               x="161.73788"
               y="152.79843"
               id="text54">0.03</text>
          </g>
        </g>
        <g
           id="xtick_5"
           style="stroke-linecap:butt;stroke-linejoin:round">
          <g
             id="line2d_5"
             style="stroke-linecap:butt;stroke-linejoin:round">
            <g
               id="g58"
               style="stroke-linecap:butt;stroke-linejoin:round">
              <use
                 style="stroke:#000000;stroke-width:0.80000001;stroke-linecap:butt;stroke-linejoin:round"
                 x="199.71718"
                 xlink:href="#m0af70d383e"
                 y="138.2"
                 id="use60"
                 width="100%"
                 height="100%" />
            </g>
          </g>
          <g
             id="text_5"
             style="stroke-linecap:butt;stroke-linejoin:round">
            <text
               style="font-style:normal;font-weight:400;font-size:10px;font-family:'DejaVu Sans';text-anchor:middle;stroke-linecap:butt;stroke-linejoin:round"
               x="199.71718"
               y="152.79843"
               id="text63">0.04</text>
          </g>
        </g>
        <g
           id="text_6"
           style="stroke-linecap:butt;stroke-linejoin:round">
          <text
             style="font-style:normal;font-weight:400;font-size:10px;font-family:'DejaVu Sans';text-anchor:middle;stroke-linecap:butt;stroke-linejoin:round"
             x="127.15774"
             y="166.47656"
             id="text66">Time/s</text>
        </g>
      </g>
      <g
         id="matplotlib.axis_2"
         style="stroke-linecap:butt;stroke-linejoin:round">
        <g
           id="ytick_1"
           style="stroke-linecap:butt;stroke-linejoin:round">
          <g
             id="line2d_6"
             style="stroke-linecap:butt;stroke-linejoin:round">
            <defs
               id="defs71">
              <path
                 d="M 0,0 -3.5,0"
                 id="mc12b0b8d6f"
                 style="stroke:#000000;stroke-width:0.80000001;stroke-linecap:butt;stroke-linejoin:round"
                 inkscape:connector-curvature="0" />
            </defs>
            <g
               id="g74"
               style="stroke-linecap:butt;stroke-linejoin:round">
              <use
                 style="stroke:#000000;stroke-width:0.80000001;stroke-linecap:butt;stroke-linejoin:round"
                 x="47.799999"
                 xlink:href="#mc12b0b8d6f"
                 y="132.56818"
                 id="use76"
                 width="100%"
                 height="100%" />
            </g>
          </g>
          <g
             id="text_7"
             style="stroke-linecap:butt;stroke-linejoin:round">
            <text
               style="font-style:normal;font-weight:400;font-size:10px;font-family:'DejaVu Sans';text-anchor:end;stroke-linecap:butt;stroke-linejoin:round"
               x="40.799999"
               y="136.3674"
               id="text79">0.0</text>
          </g>
        </g>
        <g
           id="ytick_2"
           style="stroke-linecap:butt;stroke-linejoin:round">
          <g
             id="line2d_7"
             style="stroke-linecap:butt;stroke-linejoin:round">
            <g
               id="g83"
               style="stroke-linecap:butt;stroke-linejoin:round">
              <use
                 style="stroke:#000000;stroke-width:0.80000001;stroke-linecap:butt;stroke-linejoin:round"
                 x="47.799999"
                 xlink:href="#mc12b0b8d6f"
                 y="111.64709"
                 id="use85"
                 width="100%"
                 height="100%" />
            </g>
          </g>
          <g
             id="text_8"
             style="stroke-linecap:butt;stroke-linejoin:round">
            <text
               style="font-style:normal;font-weight:400;font-size:10px;font-family:'DejaVu Sans';text-anchor:end;stroke-linecap:butt;stroke-linejoin:round"
               x="40.799999"
               y="115.44631"
               id="text88">0.2</text>
          </g>
        </g>
        <g
           id="ytick_3"
           style="stroke-linecap:butt;stroke-linejoin:round">
          <g
             id="line2d_8"
             style="stroke-linecap:butt;stroke-linejoin:round">
            <g
               id="g92"
               style="stroke-linecap:butt;stroke-linejoin:round">
              <use
                 style="stroke:#000000;stroke-width:0.80000001;stroke-linecap:butt;stroke-linejoin:round"
                 x="47.799999"
                 xlink:href="#mc12b0b8d6f"
                 y="90.726006"
                 id="use94"
                 width="100%"
                 height="100%" />
            </g>
          </g>
          <g
             id="text_9"
             style="stroke-linecap:butt;stroke-linejoin:round">
            <text
               style="font-style:normal;font-weight:400;font-size:10px;font-family:'DejaVu Sans';text-anchor:end;stroke-linecap:butt;stroke-linejoin:round"
               x="40.799999"
               y="94.525223"
               id="text97">0.4</text>
          </g>
        </g>
        <g
           id="ytick_4"
           style="stroke-linecap:butt;stroke-linejoin:round">
          <g
             id="line2d_9"
             style="stroke-linecap:butt;stroke-linejoin:round">
            <g
               id="g101"
               style="stroke-linecap:butt;stroke-linejoin:round">
              <use
                 style="stroke:#000000;stroke-width:0.80000001;stroke-linecap:butt;stroke-linejoin:round"
                 x="47.799999"
                 xlink:href="#mc12b0b8d6f"
                 y="69.804909"
                 id="use103"
                 width="100%"
                 height="100%" />
            </g>
          </g>
          <g
             id="text_10"
             style="stroke-linecap:butt;stroke-linejoin:round">
            <text
               style="font-style:normal;font-weight:400;font-size:10px;font-family:'DejaVu Sans';text-anchor:end;stroke-linecap:butt;stroke-linejoin:round"
               x="40.799999"
               y="73.604134"
               id="text106">0.6</text>
          </g>
        </g>
        <g
           id="ytick_5"
           style="stroke-linecap:butt;stroke-linejoin:round">
          <g
             id="line2d_10"
             style="stroke-linecap:butt;stroke-linejoin:round">
            <g
               id="g110"
               style="stroke-linecap:butt;stroke-linejoin:round">
              <use
                 style="stroke:#000000;stroke-width:0.80000001;stroke-linecap:butt;stroke-linejoin:round"
                 x="47.799999"
                 xlink:href="#mc12b0b8d6f"
                 y="48.883823"
                 id="use112"
                 width="100%"
                 height="100%" />
            </g>
          </g>
          <g
             id="text_11"
             style="stroke-linecap:butt;stroke-linejoin:round">
            <text
               style="font-style:normal;font-weight:400;font-size:10px;font-family:'DejaVu Sans';text-anchor:end;stroke-linecap:butt;stroke-linejoin:round"
               x="40.799999"
               y="52.683041"
               id="text115">0.8</text>
          </g>
        </g>
        <g
           id="ytick_6"
           style="stroke-linecap:butt;stroke-linejoin:round">
          <g
             id="line2d_11"
             style="stroke-linecap:butt;stroke-linejoin:round">
            <g
               id="g119"
               style="stroke-linecap:butt;stroke-linejoin:round">
              <use
                 style="stroke:#000000;stroke-width:0.80000001;stroke-linecap:butt;stroke-linejoin:round"
                 x="47.799999"
                 xlink:href="#mc12b0b8d6f"
                 y="27.962732"
                 id="use121"
                 width="100%"
                 height="100%" />
            </g>
          </g>
          <g
             id="text_12"
             style="stroke-linecap:butt;stroke-linejoin:round">
            <text
               style="font-style:normal;font-weight:400;font-size:10px;font-family:'DejaVu Sans';text-anchor:end;stroke-linecap:butt;stroke-linejoin:round"
               x="40.799999"
               y="31.761951"
               id="text124">1.0</text>
          </g>
        </g>
        <g
           id="text_13"
           style="stroke-linecap:butt;stroke-linejoin:round">
          <text
             style="font-style:normal;font-weight:400;font-size:10px;font-family:'DejaVu Sans';text-anchor:middle;stroke-linecap:butt;stroke-linejoin:round"
             transform="matrix(0,-1,1,0,-57.432812,95.067188)"
             x="18.817188"
             y="76.25"
             id="text127">#</text>
        </g>
      </g>
      <g
         id="line2d_12"
         style="stroke-linecap:butt;stroke-linejoin:round">
        <path
           clip-path="url(#p567a9599b1)"
           d="m 47.8,29.802527 0.759586,11.564421 0.759586,-6.570694 0.759586,0 0.759585,-2.36545 0.759586,-4.468072 0.759586,4.7309 1.519172,10.51311 0.759586,-14.981182 0.759586,15.769666 0.759586,1.839794 0.759585,-1.314139 0.759586,8.410489 0.759586,2.628277 0.759586,-0.788483 0.759586,0.788483 1.519172,18.660771 0.759586,1.839795 0.759585,-7.622005 0.759586,6.045038 0.759586,0.788483 0.759586,2.891106 0.759586,3.679589 0.759586,-5.256556 0.759586,7.359178 0.759586,4.993727 0.759585,-3.153933 0.759586,2.36545 0.759586,5.519383 0.759586,0.788483 0.759586,2.36545 0.759586,-5.256555 0.759586,8.410488 0.759586,-1.314139 0.759585,-3.942416 0.759586,5.256555 0.759586,-4.468072 0.759586,4.205244 0.759586,-5.78221 0.759586,7.884829 0.759586,2.89111 0.759586,-2.10262 0.759585,3.67959 0.759586,-1.57697 0.759586,3.94242 0.759586,-0.26283 0.759586,2.62828 0.759586,-1.57697 0.759586,0.52565 0.759586,4.46808 0.759585,-2.62828 0.759586,1.31414 0.759586,3.41676 0.759586,-4.99373 0.759586,5.78221 0.759586,-3.41676 0.759586,3.15393 0.759586,-2.10262 0.759585,0.78848 0.759586,1.31414 0.759586,-4.20524 0.759586,-0.26283 0.759586,6.04504 0.759586,-2.62828 0.759586,2.62828 0.759585,2.10262 0.759586,-0.26282 0.759591,2.10262 0.75958,-2.89111 0.75959,0.78849 0.75958,0.26282 0.75959,2.36545 0.75959,-3.41676 0.75958,0.26283 0.75959,2.10262 0.75958,-0.52565 0.75959,-0.78849 0.75958,3.15394 0.75959,-1.8398 0.75959,-1.05131 0.75958,1.05131 0.75959,1.57697 0.75958,1.83979 0.75959,-0.52565 0.75959,-0.78849 0.75958,1.57697 0.75959,0 0.75958,1.31414 0.75959,-0.26283 0.75958,-5.51938 0.75959,3.15393 0.75959,1.57697 0.75958,0.26283 0.75959,0 0.75958,-1.31414 0.75959,0.78848 0.75959,1.31414 0.75958,-0.26283 0.75959,0 0.75958,-1.57697 0.75959,0.52566 0.75959,1.31414 0.75958,0.52565 0.75959,0.26283 0.75958,1.05131 0.75959,-1.83979 0.75958,-2.89111 0.75959,3.67959 0.75959,0 0.75958,0.52566 0.75959,-2.10262 0.75958,1.31413 0.75959,-0.52565 0.75958,-0.26283 0.75959,0.52566 0.75959,1.05131 0.75958,0 0.75959,1.05131 0.75958,0.52565 0.75959,-0.78848 0.75959,-0.26283 0.75958,0.26283 0.75959,-1.57697 0.75958,1.05131 0.75959,-0.78848 0.75959,1.05131 0.75958,0.26283 0.75959,0.52566 0.75958,-0.78849 0.75959,2.89111 0.75958,-2.36545 0.75959,-0.26283 0.75959,2.10262 0.75958,-4.46807 0.75959,1.31414 0.75958,2.10262 0.75959,-0.78848 0.75959,-0.26283 1.51917,0.52566 0.75958,-1.57697 1.51918,2.10262 0.75958,0.26283 0.75959,-2.10262 0.75958,2.62827 0.75959,-0.26282 0.75958,0 0.75959,-1.05131 0.75959,-0.78849 0.75958,2.10262 0.75959,-1.05131 0.75958,0.78849 1.51918,-1.57697 0.75958,1.57697 0.75959,-0.52566 0.75958,-0.26283 0.75959,1.05131 0.75959,-0.52565 0.75958,0.26283 0.75959,-0.52566 0.75958,1.31414 0.75959,-1.57697 0.75958,0.26283 0.75959,1.31414 0.75959,-1.05131 1.51917,1.57697 0.75958,-0.52566 0.75959,-0.26283 0.75959,0.26283 0.75958,-0.78848 0.75959,-1.05131 0.75958,1.05131 0.75959,-0.26283 0.75958,-0.52566 0.75959,0.26283 0.75959,1.57697 0.75958,-0.26283 0.75959,0 0.75958,-1.05131 0.75959,1.83979 0.75959,-0.78848 0.75958,0.26283 0.75959,-0.78849 0.75958,0.26283 0.75959,0.52566 0.75959,0 0.75958,-0.26283 1.51917,0 0.75959,-0.78848 0.75958,0.78848 0.75959,0.26283 0.75959,-0.52566 1.51917,0.52566 0,0"
           style="fill:none;stroke:#000080;stroke-width:1.5;stroke-linecap:square;stroke-linejoin:round"
           id="path130"
           inkscape:connector-curvature="0" />
      </g>
      <g
         id="line2d_13"
         style="stroke-linecap:butt;stroke-linejoin:round">
        <path
           clip-path="url(#p567a9599b1)"
           d="m 47.8,19.931818 2.278758,9.995623 2.278757,9.108587 2.278758,8.300269 2.278757,7.563683 2.278758,6.892464 2.278758,6.280809 2.278757,5.723436 2.278758,5.215524 2.278758,4.752686 2.278757,4.330921 2.278758,3.946585 2.278757,3.596355 2.278758,3.277206 3.038344,3.921744 3.038343,3.4647 3.038344,3.06095 3.038343,2.70422 3.038344,2.38909 3.038343,2.11067 3.038343,1.86469 3.797927,2.02832 3.79793,1.73729 3.79793,1.48801 3.79793,1.2745 4.55752,1.2904 4.55751,1.07153 5.3171,1.02266 6.07669,0.92702 6.83627,0.80202 7.59586,0.66446 9.11503,0.56811 11.39379,0.46895 14.43213,0.35273 15.19172,0.20326 0,0"
           style="fill:none;stroke:#000080;stroke-width:1.5;stroke-linecap:square;stroke-linejoin:round"
           id="path133"
           inkscape:connector-curvature="0" />
      </g>
      <g
         id="line2d_14"
         style="stroke-linecap:butt;stroke-linejoin:round">
        <path
           clip-path="url(#p567a9599b1)"
           d="m 47.8,27.962732 0.759586,36.435606 0.759586,-16.45479 0.759586,15.279448 0.759585,-4.701368 0.759586,2.350684 0.759586,3.526026 0.759586,-14.104105 0.759586,-5.876711 0.759586,5.876711 0.759586,23.506842 0.759586,1.175342 0.759585,-18.805474 1.519172,-2.350684 0.759586,2.350684 0.759586,-12.928763 0.759586,17.630132 0.759586,2.350684 0.759586,-1.175342 0.759585,7.052053 0.759586,-11.753422 0.759586,15.279448 0.759586,2.350684 0.759586,-11.753421 0.759586,14.104106 0.759586,-11.753422 0.759586,8.227395 0.759585,2.350685 0.759586,18.805474 0.759586,-22.331501 0.759586,5.876711 0.759586,-11.753422 0.759586,23.506843 0.759586,3.526026 0.759586,-4.701368 0.759585,1.175342 0.759586,-15.279448 0.759586,-9.402737 0.759586,15.279448 0.759586,22.331502 0.759586,-16.454791 0.759586,8.227395 0.759586,-5.876711 0.759585,2.350684 0.759586,11.753423 0.759586,-10.578081 0.759586,1.175342 0.759586,12.928769 0.759586,-16.454795 0.759586,7.052053 0.759586,-3.526027 0.759585,5.876711 0.759586,7.052058 0.759586,1.17534 0.759586,4.70137 0.759586,-15.279452 0.759586,2.350684 0.759586,11.753418 0.759586,-10.57808 0.759585,0 0.759586,-2.35068 0.759586,7.05205 0.759586,3.52603 0.759586,2.35068 1.519172,-7.05205 0.759585,3.52603 0.759586,-7.05206 0.759591,12.92877 1.51917,-9.40274 0.75958,8.2274 0.75959,4.70136 0.75959,1.17535 0.75958,-8.2274 0.75959,5.87671 0.75958,0 0.75959,-4.70137 0.75958,-2.35068 0.75959,0 0.75959,10.57808 0.75958,-2.35069 0.75959,1.17535 0.75958,-2.35069 0.75959,4.70137 0.75959,-5.87671 0.75958,-8.22739 0.75959,10.57807 0.75958,-2.35068 0.75959,4.70137 0.75958,-2.35069 0.75959,1.17535 0.75959,-2.35069 0.75958,8.2274 0.75959,0 0.75958,-12.92877 0.75959,8.2274 0.75959,0 0.75958,3.52603 0.75959,0 0.75958,2.35068 0.75959,-2.35068 0.75959,1.17534 0.75958,-1.17534 0.75959,-2.35069 0.75958,0 0.75959,4.70137 0.75958,-3.52603 0.75959,0 0.75959,-4.70137 0.75958,4.70137 0.75959,1.17535 0.75958,-3.52603 0.75959,8.22739 0.75958,-7.05205 0.75959,0 0.75959,2.35069 1.51917,-7.05206 0.75958,5.87671 0.75959,3.52603 0.75959,-1.17534 0.75958,-4.70137 0.75959,4.70137 0.75958,0 0.75959,-4.70137 0.75959,1.17534 0.75958,-1.17534 0.75959,3.52603 1.51917,0 0.75958,3.52602 0.75959,2.35068 0.75959,-9.40273 0.75958,7.05205 0.75959,0 0.75958,-3.52602 0.75959,5.8767 0.75959,-3.52602 0.75958,-5.87671 0.75959,9.40273 0.75958,1.17535 1.51918,-9.40274 0.75958,4.70137 0.75959,5.87671 0.75958,-5.87671 0.75959,4.70137 0.75958,-2.35069 0.75959,-1.17534 0.75959,-2.35068 0.75958,-5.87671 0.75959,11.75342 0.75958,-3.52603 0.75959,4.70137 0.75959,-7.05205 0.75958,3.52602 0.75959,2.35069 0.75958,-1.17535 0.75959,0 0.75959,-4.70136 0.75958,2.35068 0.75959,-4.70137 0.75958,4.70137 0.75959,5.87671 0.75958,-4.70137 0.75959,-3.52602 0.75959,0 0.75958,5.87671 0.75959,0 0.75958,-2.35069 0.75959,1.17534 0.75959,0 0.75958,-1.17534 0.75959,2.35069 0.75958,-2.35069 0.75959,1.17534 0.75958,3.52603 1.51918,-2.35068 0.75958,-8.2274 0.75959,8.2274 0.75958,-3.52603 0.75959,1.17534 0.75959,3.52603 0.75958,-4.70137 0.75959,-2.35068 0.75958,2.35068 0.75959,5.87671 0.75959,-3.52603 0.75958,-4.70136 0.75959,7.05205 0.75958,-2.35069 1.51917,0 0.75959,-2.35068 0.75959,2.35068 0.75958,3.52603 0.75959,-2.35068 0,0"
           style="fill:none;stroke:#004cff;stroke-width:1.5;stroke-linecap:square;stroke-linejoin:round"
           id="path136"
           inkscape:connector-curvature="0" />
      </g>
      <g
         id="line2d_15"
         style="stroke-linecap:butt;stroke-linejoin:round">
        <path
           clip-path="url(#p567a9599b1)"
           d="m 47.8,41.99388 3.038343,6.573052 3.038344,6.096041 3.038343,5.653646 3.038344,5.243356 3.038343,4.862842 3.038344,4.509941 3.038343,4.18265 3.79793,4.80408 3.797929,4.372313 3.79793,3.979349 3.797929,3.621705 3.797929,3.296203 3.79793,2.999952 3.797929,2.73034 3.797929,2.48494 4.557521,2.68894 4.55751,2.4016 4.55752,2.14497 4.55751,1.91577 5.3171,1.9779 5.3171,1.73359 6.07669,1.72062 6.07669,1.47995 6.83627,1.41899 6.83627,1.19774 7.59586,1.11309 8.35545,1.00502 9.87461,0.94814 10.6342,0.79214 8.35545,0.49129 0,0"
           style="fill:none;stroke:#004cff;stroke-width:1.5;stroke-linecap:square;stroke-linejoin:round"
           id="path139"
           inkscape:connector-curvature="0" />
      </g>
      <g
         id="line2d_16"
         style="stroke-linecap:butt;stroke-linejoin:round">
        <path
           clip-path="url(#p567a9599b1)"
           d="m 47.8,27.962732 0.759586,11.791887 0.759586,-8.748819 0.759586,3.423451 0.759585,1.901917 0.759586,-4.184218 1.519172,7.227286 0.759586,-6.086135 1.519172,10.270353 0.759586,-4.944985 0.759585,2.282301 1.519172,15.215338 0.759586,-6.086136 0.759586,0.380384 0.759586,6.846902 0.759586,-7.607669 0.759586,4.564601 0.759585,7.227286 0.759586,-11.791887 0.759586,15.976105 0.759586,-5.705752 0.759586,-1.14115 0.759586,-2.662684 0.759586,6.846902 0.759586,10.270353 0.759585,0.380384 0.759586,5.325368 0.759586,-8.368436 0.759586,-3.803835 0.759586,8.368436 0.759586,4.944985 0.759586,0.380384 0.759586,8.748819 0.759585,-4.184218 0.759586,-6.466519 0.759586,6.846903 0.759586,-1.141151 0.759586,3.423451 0.759586,-4.564601 0.759586,3.423451 0.759586,6.086135 0.759585,-3.043067 0.759586,-6.466519 0.759586,14.454571 0.759586,-1.14115 0.759586,-3.043068 0.759586,2.282301 0.759586,4.564603 0.759586,-7.607671 0.759585,3.423451 0.759586,4.18422 0.759586,-1.141152 0.759586,4.564602 0.759586,-4.564602 0.759586,7.227282 0.759586,-2.2823 0.759586,4.94499 0.759585,1.14115 0.759586,-4.94499 0.759586,6.8469 0.759586,-1.90191 0.759586,1.52153 0.759586,-4.94498 0.759586,2.2823 0.759585,0 0.759586,1.14115 0.759591,2.2823 0.75958,-5.70575 0.75959,3.80383 0.75958,-0.76076 0.75959,0.38038 0.75959,1.52153 0.75958,-3.42345 0.75959,4.94499 0.75958,-2.2823 0.75959,0 0.75958,2.2823 0.75959,2.66268 0.75959,-2.66268 0.75958,2.66268 0.75959,0.76077 0.75958,0.38038 0.75959,1.52153 0.75959,-2.66268 0.75958,2.66268 0.75959,-3.04306 0.75958,4.94498 0.75959,-1.14115 0.75958,-0.38038 0.75959,-5.70575 0.75959,7.60767 0.75958,-3.04307 0.75959,-0.38039 1.51917,2.2823 0.75959,-0.76076 0.75958,0.38038 0.75959,1.14115 0.75958,-1.52153 0.75959,-2.2823 0.75959,5.32537 0.75958,0 0.75959,1.14114 0.75958,-1.52153 0.75959,0.38039 0.75958,1.52153 1.51918,0 0.75958,-2.66268 0.75959,2.28229 0.75958,-1.14114 0.75959,4.18421 0.75958,-4.94498 0.75959,2.66268 0.75959,1.52154 0.75958,-1.90192 0.75959,-2.2823 0.75958,4.5646 0.75959,-3.04307 0.75959,1.90192 0.75958,-0.76077 0.75959,0 0.75958,-4.94498 0.75959,6.8469 0.75959,-2.2823 0.75958,-0.76077 0.75959,4.18422 0.75958,-3.80384 0.75959,-0.38038 0.75958,1.52154 0.75959,-5.32537 0.75959,5.32537 0.75958,-0.76077 0.75959,0.38038 0.75958,0.76077 0.75959,0 0.75959,0.76077 0.75958,-0.38039 0.75959,2.66269 0.75958,-2.66269 0.75959,-1.52153 0.75959,-0.76077 0.75958,1.52154 0.75959,1.14115 0.75958,-1.52154 0.75959,2.66269 1.51917,-0.76077 0.75959,1.52153 0.75958,-2.2823 0.75959,-0.38038 0.75958,1.14115 0.75959,-0.38038 0.75959,3.80383 0.75958,-1.14115 0.75959,0 0.75958,-1.52153 0.75959,1.90191 0.75959,-1.90191 0.75958,0 0.75959,1.90191 1.51917,-0.76076 0.75958,-1.90192 0.75959,0.76077 0.75959,1.52153 0.75958,-1.52153 0.75959,-0.38039 0.75958,2.2823 0.75959,0.38039 0.75959,-2.2823 1.51917,1.52153 0.75958,0 0.75959,0.76077 0.75958,-0.76077 0.75959,-1.90192 0.75959,2.66269 0.75958,0 0.75959,0.38038 0.75958,1.90192 0.75959,-2.2823 0.75959,-0.76077 0.75958,-0.38038 0.75959,3.04306 0.75958,-3.04306 0.75959,2.2823 0.75959,-2.2823 0.75958,1.14115 0.75959,-1.14115 0.75958,1.90191 0.75959,0.38039 0.75958,-2.66269 0.75959,0.38039 0.75959,2.2823 0.75958,-0.38039 0.75959,-1.90191 0,0"
           style="fill:none;stroke:#29ffce;stroke-width:1.5;stroke-linecap:square;stroke-linejoin:round"
           id="path142"
           inkscape:connector-curvature="0" />
      </g>
      <g
         id="line2d_17"
         style="stroke-linecap:butt;stroke-linejoin:round">
        <path
           clip-path="url(#p567a9599b1)"
           d="m 47.8,22.707815 3.038343,9.008786 3.038344,8.270047 3.038343,7.591885 3.038344,6.969334 3.038343,6.397834 3.038344,5.873197 3.038343,5.391583 3.038344,4.949461 3.038343,4.543595 3.038344,4.17101 3.038343,3.828979 3.038344,3.514994 3.038343,3.226757 3.038344,2.962156 3.797929,3.363487 3.79793,3.02232 3.797932,2.71578 3.79793,2.44031 3.79793,2.19279 3.79793,1.97038 4.55751,2.10247 4.55752,1.84923 4.55751,1.6265 5.3171,1.65168 5.3171,1.422 6.07669,1.38466 6.07669,1.16689 6.83627,1.09486 7.59586,0.99316 8.35544,0.87307 9.87462,0.79895 11.39379,0.68403 5.3171,0.25145 0,0"
           style="fill:none;stroke:#29ffce;stroke-width:1.5;stroke-linecap:square;stroke-linejoin:round"
           id="path145"
           inkscape:connector-curvature="0" />
      </g>
      <g
         id="line2d_18"
         style="stroke-linecap:butt;stroke-linejoin:round">
        <path
           clip-path="url(#p567a9599b1)"
           d="m 47.8,33.774146 0.759586,40.679897 0.759586,-19.371379 0.759586,-5.811414 0.759585,7.748552 0.759586,-17.434242 0.759586,-11.622828 0.759586,42.617035 0.759586,-38.742759 0.759586,30.994207 0.759586,-13.559965 0.759586,0 0.759585,3.874276 0.759586,-13.559966 0.759586,-9.68569 0.759586,17.434242 0.759586,-3.874276 0.759586,9.68569 0.759586,-3.874276 0.759586,-5.811414 0.759585,15.497103 0.759586,-7.748551 0.759586,15.497103 0.759586,-17.434241 0.759586,25.182793 0.759586,-9.68569 0.759586,-29.057069 1.519171,48.428449 0.759586,-46.491311 0.759586,9.68569 0.759586,-5.811414 0.759586,9.68569 0.759586,34.868483 0.759586,-25.182794 1.519171,15.497104 0.759586,-9.68569 0.759586,11.622828 0.759586,-21.308517 0.759586,-13.559966 0.759586,46.491311 0.759586,-13.559966 0.759586,-5.811414 0.759585,21.308518 0.759586,-23.245656 0.759586,17.434242 0.759586,-15.497104 0.759586,11.622828 0.759586,-7.748552 0.759586,5.811414 0.759586,-1.937138 0.759585,-3.874276 0.759586,-1.937138 0.759586,0 0.759586,11.622828 0.759586,-9.68569 0.759586,0 0.759586,17.434242 0.759586,11.622825 1.519171,-40.679895 0.759586,15.497104 0.759586,3.874276 0.759586,7.748552 0.759586,-11.622828 0.759586,3.874276 0.759585,-1.937138 0.759586,-9.68569 0.759591,17.434242 0.75958,-3.874276 0.75959,9.68569 0.75958,-13.559966 0.75959,1.937138 0.75959,15.497104 0.75958,1.937138 0.75959,3.874273 0.75958,-5.811411 0.75959,-1.937138 0.75958,11.622829 0.75959,-15.497105 0.75959,-3.874276 0.75958,7.748552 0.75959,11.622829 0.75958,-11.622829 0.75959,17.434239 0.75959,-11.62282 0.75958,0 0.75959,-7.748557 0.75958,13.559967 0.75959,-13.559967 0.75958,5.811414 0.75959,3.874273 0.75959,-5.811411 0.75958,-3.874276 0.75959,13.559967 1.51917,-7.748553 0.75959,5.811413 0.75958,0 0.75959,5.81141 0.75958,1.93714 0.75959,-3.87427 0.75959,-9.685693 0.75958,1.937143 0.75959,7.74855 0.75958,-3.87428 0.75959,-1.93714 0.75958,5.81142 0.75959,-9.685693 0.75959,21.308513 1.51917,-11.62282 0.75958,-11.622831 0.75959,17.434241 0.75958,-9.68569 0.75959,9.68569 0.75959,-30.994207 0.75958,30.994207 0.75959,1.93714 0.75958,-3.87428 0.75959,1.93714 0.75959,-7.74855 0.75958,7.74855 0.75959,-3.87428 0.75958,0 0.75959,1.93714 1.51917,-7.74855 0.75959,13.55997 0.75958,-5.81142 0.75959,-7.74855 0.75958,3.87428 0.75959,-11.622831 0.75959,17.434241 0.75958,-7.74855 0.75959,17.43424 0.75958,-5.81141 0.75959,-1.93714 0.75959,7.74855 0.75958,-17.43424 0.75959,3.87427 0.75958,0 0.75959,3.87428 0.75959,-1.93714 1.51917,3.87428 0.75958,-17.434243 0.75959,19.371383 0.75958,-11.62283 0.75959,3.87427 0.75959,9.68569 0.75958,-7.74855 0.75959,-9.68569 0.75958,17.43424 0.75959,0 0.75959,-9.68569 0.75958,7.74856 0.75959,-1.93714 0.75958,1.93714 0.75959,-1.93714 0.75959,3.87427 0.75958,1.93714 0.75959,-5.81141 0.75958,0 0.75959,5.81141 0.75958,-3.87427 0.75959,5.81141 0.75959,-7.74855 0.75958,-15.4971 1.51917,23.24565 0.75959,0 0.75959,-11.62283 1.51917,3.87428 0.75958,7.74855 0.75959,-7.74855 0.75958,5.81141 0.75959,-1.93714 0.75959,3.87428 0.75958,-3.87428 1.51917,3.87428 0.75959,0 0.75959,-9.68569 0.75958,9.68569 0.75959,-3.87428 0.75958,1.93714 0.75959,3.87428 0.75959,-1.93714 0.75958,1.93714 0.75959,0 0.75958,-11.62283 0.75959,0 0.75958,3.87428 0.75959,-1.93714 0.75959,0 0.75958,-5.81142 0.75959,3.87428 0,0"
           style="fill:none;stroke:#ceff29;stroke-width:1.5;stroke-linecap:square;stroke-linejoin:round"
           id="path148"
           inkscape:connector-curvature="0" />
      </g>
      <g
         id="line2d_19"
         style="stroke-linecap:butt;stroke-linejoin:round">
        <path
           clip-path="url(#p567a9599b1)"
           d="m 47.8,36.885306 4.557515,6.336041 4.557515,5.916474 4.557516,5.52469 4.557515,5.158849 4.557515,4.817235 4.557515,4.498241 4.557516,4.200372 4.557515,3.922226 4.557515,3.6625 5.317101,3.967532 5.317101,3.662741 5.317101,3.381364 5.3171,3.121604 5.3171,2.881798 6.07669,3.023407 6.07669,2.75946 6.07668,2.51855 6.83628,2.57152 6.83627,2.32037 6.83627,2.09375 7.59586,2.08744 7.59586,1.86219 8.35544,1.81716 9.11503,1.73863 9.11503,1.51599 3.03835,0.46089 0,0"
           style="fill:none;stroke:#ceff29;stroke-width:1.5;stroke-linecap:square;stroke-linejoin:round"
           id="path151"
           inkscape:connector-curvature="0" />
      </g>
      <g
         id="line2d_20"
         style="stroke-linecap:butt;stroke-linejoin:round">
        <path
           clip-path="url(#p567a9599b1)"
           d="m 49.319172,66.028326 0.759586,1.798374 0.759585,-4.196207 0.759586,-2.997291 0.759586,13.787538 0.759586,2.997291 0.759586,-5.395124 0.759586,1.198917 0.759586,2.99729 0.759586,-1.798374 0.759585,-10.190789 0.759586,10.490518 0.759586,-9.591331 0.759586,5.994582 0.759586,-3.29702 0.759586,8.092685 0.759586,0.599458 0.759586,-0.599458 0.759585,-1.198916 0.759586,0.599458 0.759586,2.397833 0.759586,-7.193498 0.759586,2.098103 0.759586,-0.299729 0.759586,-1.798374 0.759586,1.198916 0.759585,4.196207 0.759586,-1.198916 0.759586,1.798374 0.759586,5.095395 0.759586,-7.792956 0.759586,8.991872 0.759586,1.198917 0.759586,-10.190789 0.759585,8.092685 0.759586,-2.098104 0.759586,2.397833 0.759586,0.599458 0.759586,0.299729 0.759586,-2.397832 0.759586,0.899187 0.759586,5.694852 0.759585,-7.493227 0.759586,-0.899187 0.759586,5.095395 0.759586,-5.395124 0.759586,2.397833 0.759586,3.29702 0.759586,4.795665 0.759586,1.498645 0.759585,-5.395123 0.759586,2.098103 0.759586,-0.899187 0.759586,2.098104 0.759586,-2.397833 0.759586,0.899187 0.759586,7.493227 0.759586,-5.395123 0.759585,2.697562 0.759586,2.098103 0.759586,-4.795665 0.759586,-1.198916 0.759586,5.994581 0.759586,1.498646 0.759586,-6.893769 0.759585,2.098103 0.759586,-4.495936 1.519171,10.490518 0.75959,1.198916 0.75958,-3.596749 0.75959,-2.997291 0.75959,5.694853 0.75958,0.599458 0.75959,-1.198916 0.75958,-0.899187 0.75959,2.397832 0.75958,-7.792956 0.75959,7.792956 0.75959,1.798375 0.75958,-3.29702 0.75959,-0.299729 0.75958,0.899187 0.75959,4.795669 0.75959,-5.994585 0.75958,4.795665 0.75959,-3.596749 0.75958,4.795669 0.75959,-10.790251 0.75958,10.190791 0.75959,2.39783 0.75959,-2.99729 0.75958,-0.29973 0.75959,1.79837 0.75958,-1.19891 0.75959,-1.798375 0.75959,3.596745 0.75958,-1.19891 0.75959,-2.098106 1.51917,7.792956 0.75959,-11.089976 0.75958,6.893766 0.75959,3.29702 0.75958,-0.89919 0.75959,-0.59945 0.75958,0.89918 0.75959,-2.0981 0.75959,5.0954 0.75958,-1.79838 0.75959,-8.991872 0.75958,7.193502 0.75959,0.29972 0.75958,-0.59945 0.75959,-1.19892 0.75959,3.59675 0.75958,2.0981 0.75959,-5.09539 0.75958,3.89648 0.75959,-7.49323 0.75959,1.19892 0.75958,4.79566 0.75959,0.59946 0.75958,4.19621 0.75959,-4.19621 0.75959,2.99729 0.75958,-3.29702 0.75959,3.89648 0.75958,-4.79567 0.75959,0.29973 0.75958,3.29702 0.75959,1.19892 0.75959,-4.19621 0.75958,5.39513 0.75959,-3.89648 0.75958,2.39783 0.75959,0.29973 0.75959,0.89919 0.75958,-2.99729 0.75959,2.69756 0.75958,-2.09811 0.75959,1.19892 0.75959,1.79837 0.75958,-4.79566 0.75959,0.89919 0.75958,0.29973 0.75959,3.89647 0.75958,-0.89918 0.75959,-2.09811 0.75959,0.89919 0.75958,3.89648 0.75959,-6.59404 0.75958,5.69485 0.75959,2.99729 0.75959,-2.99729 0.75958,-0.59946 0.75959,2.39784 0.75958,-3.59675 0.75959,1.49864 0.75959,4.19621 1.51917,-1.79838 0.75958,0.29973 0.75959,2.99729 0.75958,-3.59674 0.75959,1.79837 0.75959,-6.59404 0.75958,4.79567 0.75959,-6.89377 1.51917,7.49322 0.75959,-0.89918 0.75958,1.49864 0.75959,-4.19621 0.75958,5.0954 0.75959,0.59946 0.75958,-4.19621 0.75959,3.59675 0.75959,-2.0981 0.75958,0 0.75959,4.49593 0.75958,-7.1935 0.75959,5.0954 0.75959,-3.59675 0.75958,0.89919 0.75959,4.49593 0.75958,-4.79566 0.75959,4.1962 0.75959,-1.79837 0.75958,0 0.75959,-0.29973 1.51917,2.99729 0.75958,-4.49593 0.75959,2.69756 0.75959,1.49864 0.75958,-2.39783 0.75959,-0.59946 0,0"
           style="fill:none;stroke:#ff6800;stroke-width:1.5;stroke-linecap:square;stroke-linejoin:round"
           id="path154"
           inkscape:connector-curvature="0" />
      </g>
      <g
         id="line2d_21"
         style="stroke-linecap:butt;stroke-linejoin:round">
        <path
           clip-path="url(#p567a9599b1)"
           d="m 49.319172,65.111553 6.076687,4.131325 6.076687,3.878305 6.836273,4.079913 6.836272,3.799903 6.836273,3.539113 6.836273,3.296219 7.595859,3.397827 7.595864,3.139729 7.59585,2.901235 8.35545,2.937478 8.35544,2.69299 8.35545,2.46885 9.11503,2.45953 9.11503,2.23709 9.87461,2.19577 10.63421,2.12561 10.6342,1.90305 11.39379,1.81844 1.51917,0.22658 0,0"
           style="fill:none;stroke:#ff6800;stroke-width:1.5;stroke-linecap:square;stroke-linejoin:round"
           id="path157"
           inkscape:connector-curvature="0" />
      </g>
      <g
         id="patch_3"
         style="stroke-linecap:butt;stroke-linejoin:round">
        <path
           d="m 47.8,138.2 0,-123.9"
           style="fill:none;stroke:#000000;stroke-linecap:square;stroke-linejoin:miter"
           id="path160"
           inkscape:connector-curvature="0" />
      </g>
      <g
         id="patch_4"
         style="stroke-linecap:butt;stroke-linejoin:round">
        <path
           d="m 206.51547,138.2 0,-123.9"
           style="fill:none;stroke:#000000;stroke-linecap:square;stroke-linejoin:miter"
           id="path163"
           inkscape:connector-curvature="0" />
      </g>
      <g
         id="patch_5"
         style="stroke-linecap:butt;stroke-linejoin:round">
        <path
           d="m 47.8,138.2 158.71547,0"
           style="fill:none;stroke:#000000;stroke-linecap:square;stroke-linejoin:miter"
           id="path166"
           inkscape:connector-curvature="0" />
      </g>
      <g
         id="patch_6"
         style="stroke-linecap:butt;stroke-linejoin:round">
        <path
           d="m 47.8,14.3 158.71547,0"
           style="fill:none;stroke:#000000;stroke-linecap:square;stroke-linejoin:miter"
           id="path169"
           inkscape:connector-curvature="0" />
      </g>
      <g
         id="legend_1"
         style="stroke-linecap:butt;stroke-linejoin:round">
        <g
           id="patch_7"
           style="stroke-linecap:butt;stroke-linejoin:round">
          <path
             d="m 130.27297,80.525 70.6425,0 q 1.6,0 1.6,-1.6 l 0,-59.025 q 0,-1.6 -1.6,-1.6 l -70.6425,0 q -1.6,0 -1.6,1.6 l 0,59.025 q 0,1.6 1.6,1.6 z"
             style="opacity:0.8;fill:#ffffff;stroke:#cccccc;stroke-linecap:butt;stroke-linejoin:miter"
             id="path173"
             inkscape:connector-curvature="0" />
        </g>
        <g
           id="line2d_22"
           style="stroke-linecap:butt;stroke-linejoin:round">
          <path
             d="m 131.87297,24.77875 16,0"
             style="fill:none;stroke:#000080;stroke-width:1.5;stroke-linecap:square;stroke-linejoin:round"
             id="path176"
             inkscape:connector-curvature="0" />
        </g>
        <g
           id="line2d_23"
           style="stroke-linecap:butt;stroke-linejoin:round" />
        <g
           id="text_14"
           style="stroke-linecap:butt;stroke-linejoin:round">
          <text
             style="font-style:normal;font-weight:400;font-size:8px;font-family:'DejaVu Sans';text-anchor:start;stroke-linecap:butt;stroke-linejoin:round"
             x="154.27296"
             y="27.578751"
             id="text180">100 mV_on</text>
        </g>
        <g
           id="line2d_24"
           style="stroke-linecap:butt;stroke-linejoin:round">
          <path
             d="m 131.87297,36.74375 16,0"
             style="fill:none;stroke:#004cff;stroke-width:1.5;stroke-linecap:square;stroke-linejoin:round"
             id="path183"
             inkscape:connector-curvature="0" />
        </g>
        <g
           id="line2d_25"
           style="stroke-linecap:butt;stroke-linejoin:round" />
        <g
           id="text_15"
           style="stroke-linecap:butt;stroke-linejoin:round">
          <text
             style="font-style:normal;font-weight:400;font-size:8px;font-family:'DejaVu Sans';text-anchor:start;stroke-linecap:butt;stroke-linejoin:round"
             x="154.27296"
             y="39.543751"
             id="text187">80 mV_on</text>
        </g>
        <g
           id="line2d_26"
           style="stroke-linecap:butt;stroke-linejoin:round">
          <path
             d="m 131.87297,48.70875 16,0"
             style="fill:none;stroke:#29ffce;stroke-width:1.5;stroke-linecap:square;stroke-linejoin:round"
             id="path190"
             inkscape:connector-curvature="0" />
        </g>
        <g
           id="line2d_27"
           style="stroke-linecap:butt;stroke-linejoin:round" />
        <g
           id="text_16"
           style="stroke-linecap:butt;stroke-linejoin:round">
          <text
             style="font-style:normal;font-weight:400;font-size:8px;font-family:'DejaVu Sans';text-anchor:start;stroke-linecap:butt;stroke-linejoin:round"
             x="154.27296"
             y="51.508751"
             id="text194">75 mV_on</text>
        </g>
        <g
           id="line2d_28"
           style="stroke-linecap:butt;stroke-linejoin:round">
          <path
             d="m 131.87297,60.67375 16,0"
             style="fill:none;stroke:#ceff29;stroke-width:1.5;stroke-linecap:square;stroke-linejoin:round"
             id="path197"
             inkscape:connector-curvature="0" />
        </g>
        <g
           id="line2d_29"
           style="stroke-linecap:butt;stroke-linejoin:round" />
        <g
           id="text_17"
           style="stroke-linecap:butt;stroke-linejoin:round">
          <text
             style="font-style:normal;font-weight:400;font-size:8px;font-family:'DejaVu Sans';text-anchor:start;stroke-linecap:butt;stroke-linejoin:round"
             x="154.27296"
             y="63.473751"
             id="text201">60 mV_on</text>
        </g>
        <g
           id="line2d_30"
           style="stroke-linecap:butt;stroke-linejoin:round">
          <path
             d="m 131.87297,72.63875 16,0"
             style="fill:none;stroke:#ff6800;stroke-width:1.5;stroke-linecap:square;stroke-linejoin:round"
             id="path204"
             inkscape:connector-curvature="0" />
        </g>
        <g
           id="line2d_31"
           style="stroke-linecap:butt;stroke-linejoin:round" />
        <g
           id="text_18"
           style="stroke-linecap:butt;stroke-linejoin:round">
          <text
             style="font-style:normal;font-weight:400;font-size:8px;font-family:'DejaVu Sans';text-anchor:start;stroke-linecap:butt;stroke-linejoin:round"
             x="154.27296"
             y="75.438751"
             id="text208">50 mV_on</text>
        </g>
      </g>
    </g>
    <g
       id="axes_2"
       style="stroke-linecap:butt;stroke-linejoin:round">
      <g
         id="patch_8"
         style="stroke-linecap:butt;stroke-linejoin:round">
        <path
           d="m 258.98453,138.2 158.71547,0 0,-123.9 -158.71547,0 z"
           style="fill:none;stroke-linecap:butt;stroke-linejoin:round"
           id="path212"
           inkscape:connector-curvature="0" />
      </g>
      <g
         id="matplotlib.axis_3"
         style="stroke-linecap:butt;stroke-linejoin:round">
        <g
           id="xtick_6"
           style="stroke-linecap:butt;stroke-linejoin:round">
          <g
             id="line2d_32"
             style="stroke-linecap:butt;stroke-linejoin:round">
            <g
               id="g217"
               style="stroke-linecap:butt;stroke-linejoin:round">
              <use
                 style="stroke:#000000;stroke-width:0.80000001;stroke-linecap:butt;stroke-linejoin:round"
                 x="258.98453"
                 xlink:href="#m0af70d383e"
                 y="138.2"
                 id="use219"
                 width="100%"
                 height="100%" />
            </g>
          </g>
          <g
             id="text_19"
             style="stroke-linecap:butt;stroke-linejoin:round">
            <text
               style="font-style:normal;font-weight:400;font-size:10px;font-family:'DejaVu Sans';text-anchor:middle;stroke-linecap:butt;stroke-linejoin:round"
               x="258.98453"
               y="152.79843"
               id="text222">0.0</text>
          </g>
        </g>
        <g
           id="xtick_7"
           style="stroke-linecap:butt;stroke-linejoin:round">
          <g
             id="line2d_33"
             style="stroke-linecap:butt;stroke-linejoin:round">
            <g
               id="g226"
               style="stroke-linecap:butt;stroke-linejoin:round">
              <use
                 style="stroke:#000000;stroke-width:0.80000001;stroke-linecap:butt;stroke-linejoin:round"
                 x="319.7514"
                 xlink:href="#m0af70d383e"
                 y="138.2"
                 id="use228"
                 width="100%"
                 height="100%" />
            </g>
          </g>
          <g
             id="text_20"
             style="stroke-linecap:butt;stroke-linejoin:round">
            <text
               style="font-style:normal;font-weight:400;font-size:10px;font-family:'DejaVu Sans';text-anchor:middle;stroke-linecap:butt;stroke-linejoin:round"
               x="319.7514"
               y="152.79843"
               id="text231">0.2</text>
          </g>
        </g>
        <g
           id="xtick_8"
           style="stroke-linecap:butt;stroke-linejoin:round">
          <g
             id="line2d_34"
             style="stroke-linecap:butt;stroke-linejoin:round">
            <g
               id="g235"
               style="stroke-linecap:butt;stroke-linejoin:round">
              <use
                 style="stroke:#000000;stroke-width:0.80000001;stroke-linecap:butt;stroke-linejoin:round"
                 x="380.51828"
                 xlink:href="#m0af70d383e"
                 y="138.2"
                 id="use237"
                 width="100%"
                 height="100%" />
            </g>
          </g>
          <g
             id="text_21"
             style="stroke-linecap:butt;stroke-linejoin:round">
            <text
               style="font-style:normal;font-weight:400;font-size:10px;font-family:'DejaVu Sans';text-anchor:middle;stroke-linecap:butt;stroke-linejoin:round"
               x="380.51828"
               y="152.79843"
               id="text240">0.4</text>
          </g>
        </g>
        <g
           id="text_22"
           style="stroke-linecap:butt;stroke-linejoin:round">
          <text
             style="font-style:normal;font-weight:400;font-size:10px;font-family:'DejaVu Sans';text-anchor:middle;stroke-linecap:butt;stroke-linejoin:round"
             x="338.34225"
             y="166.47656"
             id="text243">Time/s</text>
        </g>
      </g>
      <g
         id="matplotlib.axis_4"
         style="stroke-linecap:butt;stroke-linejoin:round">
        <g
           id="ytick_7"
           style="stroke-linecap:butt;stroke-linejoin:round">
          <g
             id="line2d_35"
             style="stroke-linecap:butt;stroke-linejoin:round">
            <g
               id="g248"
               style="stroke-linecap:butt;stroke-linejoin:round">
              <use
                 style="stroke:#000000;stroke-width:0.80000001;stroke-linecap:butt;stroke-linejoin:round"
                 x="258.98453"
                 xlink:href="#mc12b0b8d6f"
                 y="132.56818"
                 id="use250"
                 width="100%"
                 height="100%" />
            </g>
          </g>
          <g
             id="text_23"
             style="stroke-linecap:butt;stroke-linejoin:round">
            <text
               style="font-style:normal;font-weight:400;font-size:10px;font-family:'DejaVu Sans';text-anchor:end;stroke-linecap:butt;stroke-linejoin:round"
               x="251.98453"
               y="136.3674"
               id="text253">0.0</text>
          </g>
        </g>
        <g
           id="ytick_8"
           style="stroke-linecap:butt;stroke-linejoin:round">
          <g
             id="line2d_36"
             style="stroke-linecap:butt;stroke-linejoin:round">
            <g
               id="g257"
               style="stroke-linecap:butt;stroke-linejoin:round">
              <use
                 style="stroke:#000000;stroke-width:0.80000001;stroke-linecap:butt;stroke-linejoin:round"
                 x="258.98453"
                 xlink:href="#mc12b0b8d6f"
                 y="110.04091"
                 id="use259"
                 width="100%"
                 height="100%" />
            </g>
          </g>
          <g
             id="text_24"
             style="stroke-linecap:butt;stroke-linejoin:round">
            <text
               style="font-style:normal;font-weight:400;font-size:10px;font-family:'DejaVu Sans';text-anchor:end;stroke-linecap:butt;stroke-linejoin:round"
               x="251.98453"
               y="113.84013"
               id="text262">0.2</text>
          </g>
        </g>
        <g
           id="ytick_9"
           style="stroke-linecap:butt;stroke-linejoin:round">
          <g
             id="line2d_37"
             style="stroke-linecap:butt;stroke-linejoin:round">
            <g
               id="g266"
               style="stroke-linecap:butt;stroke-linejoin:round">
              <use
                 style="stroke:#000000;stroke-width:0.80000001;stroke-linecap:butt;stroke-linejoin:round"
                 x="258.98453"
                 xlink:href="#mc12b0b8d6f"
                 y="87.513634"
                 id="use268"
                 width="100%"
                 height="100%" />
            </g>
          </g>
          <g
             id="text_25"
             style="stroke-linecap:butt;stroke-linejoin:round">
            <text
               style="font-style:normal;font-weight:400;font-size:10px;font-family:'DejaVu Sans';text-anchor:end;stroke-linecap:butt;stroke-linejoin:round"
               x="251.98453"
               y="91.312859"
               id="text271">0.4</text>
          </g>
        </g>
        <g
           id="ytick_10"
           style="stroke-linecap:butt;stroke-linejoin:round">
          <g
             id="line2d_38"
             style="stroke-linecap:butt;stroke-linejoin:round">
            <g
               id="g275"
               style="stroke-linecap:butt;stroke-linejoin:round">
              <use
                 style="stroke:#000000;stroke-width:0.80000001;stroke-linecap:butt;stroke-linejoin:round"
                 x="258.98453"
                 xlink:href="#mc12b0b8d6f"
                 y="64.986366"
                 id="use277"
                 width="100%"
                 height="100%" />
            </g>
          </g>
          <g
             id="text_26"
             style="stroke-linecap:butt;stroke-linejoin:round">
            <text
               style="font-style:normal;font-weight:400;font-size:10px;font-family:'DejaVu Sans';text-anchor:end;stroke-linecap:butt;stroke-linejoin:round"
               x="251.98453"
               y="68.785583"
               id="text280">0.6</text>
          </g>
        </g>
        <g
           id="ytick_11"
           style="stroke-linecap:butt;stroke-linejoin:round">
          <g
             id="line2d_39"
             style="stroke-linecap:butt;stroke-linejoin:round">
            <g
               id="g284"
               style="stroke-linecap:butt;stroke-linejoin:round">
              <use
                 style="stroke:#000000;stroke-width:0.80000001;stroke-linecap:butt;stroke-linejoin:round"
                 x="258.98453"
                 xlink:href="#mc12b0b8d6f"
                 y="42.459091"
                 id="use286"
                 width="100%"
                 height="100%" />
            </g>
          </g>
          <g
             id="text_27"
             style="stroke-linecap:butt;stroke-linejoin:round">
            <text
               style="font-style:normal;font-weight:400;font-size:10px;font-family:'DejaVu Sans';text-anchor:end;stroke-linecap:butt;stroke-linejoin:round"
               x="251.98453"
               y="46.258308"
               id="text289">0.8</text>
          </g>
        </g>
        <g
           id="ytick_12"
           style="stroke-linecap:butt;stroke-linejoin:round">
          <g
             id="line2d_40"
             style="stroke-linecap:butt;stroke-linejoin:round">
            <g
               id="g293"
               style="stroke-linecap:butt;stroke-linejoin:round">
              <use
                 style="stroke:#000000;stroke-width:0.80000001;stroke-linecap:butt;stroke-linejoin:round"
                 x="258.98453"
                 xlink:href="#mc12b0b8d6f"
                 y="19.931818"
                 id="use295"
                 width="100%"
                 height="100%" />
            </g>
          </g>
          <g
             id="text_28"
             style="stroke-linecap:butt;stroke-linejoin:round">
            <text
               style="font-style:normal;font-weight:400;font-size:10px;font-family:'DejaVu Sans';text-anchor:end;stroke-linecap:butt;stroke-linejoin:round"
               x="251.98453"
               y="23.731037"
               id="text298">1.0</text>
          </g>
        </g>
        <g
           id="text_29"
           style="stroke-linecap:butt;stroke-linejoin:round">
          <text
             style="font-style:normal;font-weight:400;font-size:10px;font-family:'DejaVu Sans';text-anchor:middle;stroke-linecap:butt;stroke-linejoin:round"
             transform="matrix(0,-1,1,0,153.75172,306.25172)"
             x="230.00172"
             y="76.25"
             id="text301">#</text>
        </g>
      </g>
      <g
         id="line2d_41"
         style="stroke-linecap:butt;stroke-linejoin:round">
        <path
           clip-path="url(#pa7f014797a)"
           d="m 258.98453,125.00869 0.75959,-22.67846 0.75958,-9.071383 0.75959,-23.434411 0.75958,6.04759 0.75959,-29.482002 0.75959,-4.535692 0.75958,-14.363026 0.75959,10.583282 0.75958,3.023795 0.75959,-15.874924 0.75959,-5.291641 1.51917,21.166565 0.75958,1.511898 0.75959,-12.851129 0.75959,15.874924 0.75958,-0.755949 0.75959,-11.339231 0.75958,15.874923 0.75959,-17.386821 0.75958,29.482001 0.75959,-36.28554 1.51917,27.970104 0.75959,-18.898719 0.75958,18.898719 0.75959,4.535693 0.75959,-6.04759 0.75958,3.023795 0.75959,-6.04759 0.75958,2.267846 0.75959,-12.09518 0.75959,16.630872 0.75958,2.267847 0.75959,3.023795 1.51917,9.071385 0.75958,-6.803539 0.75959,9.827334 0.75959,-13.607078 0.75958,9.827334 0.75959,-3.023795 0.75958,5.291641 0.75959,-0.755949 0.75959,-17.386821 0.75958,13.607078 0.75959,1.511897 0.75958,-0.755949 0.75959,-3.779743 0.75958,3.023795 0.75959,12.851128 0.75959,-4.535692 0.75958,-9.827334 0.75959,-0.755949 0.75958,0.755949 0.75959,12.851129 0.75959,-12.09518 0.75958,18.898719 0.75959,0 0.75958,-3.023795 0.75959,-17.386822 0.75959,21.922514 0.75958,-10.583282 0.75959,9.827333 0.75958,-0.755948 0.75959,9.071385 0.75958,-13.607078 0.75959,6.04759 0.75959,4.535693 0.75958,-7.559488 0.75959,-5.291641 0.75958,9.827334 0.75959,5.291641 0.75959,-3.023795 0.75958,-9.071385 0.75959,3.023795 0.75958,5.291641 0.75959,0.755949 0.75959,5.291641 1.51917,-7.559487 0.75958,4.535692 0.75959,-3.023795 0.75958,6.803539 0.75959,-6.803539 0.75959,7.559488 0.75958,-0.755949 0.75959,-10.583283 0.75958,-6.04759 0.75959,18.14277 0.75959,-4.535692 0.75958,0.755949 0.75959,-2.267847 0.75958,0.755949 0.75959,5.291641 0.75959,-4.535692 0.75958,4.535692 0.75959,-2.267846 0.75958,-3.779744 1.51917,12.851131 0.75959,-3.0238 0.75959,-10.583279 0.75958,8.315436 0.75959,0.755953 0.75958,-3.779748 0.75959,-2.267846 0.75959,7.559484 0.75958,-0.75595 0.75959,3.0238 0.75958,-4.535693 0.75959,-6.04759 1.51917,7.559483 0.75959,-1.511893 0.75958,1.511893 0.75959,3.0238 0.75958,-6.047591 0.75959,12.095181 0.75959,-0.75595 0.75958,-1.5119 0.75959,3.0238 1.51917,-11.339233 0.75959,11.339233 0.75958,3.02379 0.75959,-2.26784 0.75958,-6.04759 0.75959,1.51189 0.75959,3.0238 0.75958,-3.0238 0.75959,0.75595 0.75958,-6.04759 0.75959,7.55949 0.75958,-1.5119 0.75959,1.5119 0.75959,-7.55949 0.75958,3.0238 0.75959,8.31543 0.75958,-7.55948 0.75959,0 0.75959,-4.5357 0.75958,4.5357 0.75959,3.02379 1.51917,7.55949 0.75959,-5.29164 0.75958,3.02379 0.75959,-0.75595 0.75958,-6.04759 0.75959,-0.75594 0.75958,9.82733 0.75959,-5.29164 0.75959,-6.80354 0.75958,2.26785 0.75959,-0.75595 0.75958,8.31543 2.27876,-6.80354 0.75959,9.07139 0.75958,-6.04759 0.75959,3.77974 0.75959,2.26785 1.51917,0 0.75958,-0.75595 0.75959,2.26785 0.75958,-6.80354 0.75959,2.26784 0.75959,7.55949 0.75958,-9.82733 0.75959,4.53569 0.75958,-0.75595 0.75959,0.75595 0.75958,-1.5119 0.75959,1.5119 0.75959,0 0.75958,-8.31544 0.75959,6.80354 0.75959,3.77975 0.75958,4.53569 0.75959,3.02379 0.75958,-11.33923 0.75959,-0.75595 0.75958,-3.77974 0.75959,7.55949 0.75959,1.5119 0.75958,-3.77975 0.75959,3.77975 1.51917,-10.58329 0.75958,9.07139 0.75959,3.77974 0.75959,-8.31543 0.75958,6.04759 0.75959,2.26784 0.75959,-4.53569 0.75958,7.55949 0,0"
           style="fill:none;stroke:#000080;stroke-width:1.5;stroke-linecap:square;stroke-linejoin:round"
           id="path304"
           inkscape:connector-curvature="0" />
      </g>
      <g
         id="line2d_42"
         style="stroke-linecap:butt;stroke-linejoin:round">
        <path
           clip-path="url(#pa7f014797a)"
           d="m 258.98453,132.56818 0.75959,-29.61048 0.75958,-20.801236 0.75959,-14.525123 0.75958,-10.054611 0.75959,-6.871103 0.75959,-4.604939 0.75958,-2.992632 0.75959,-1.846362 0.75958,-1.032254 0.75959,-0.454882 0.75959,-0.04622 0.75958,0.242201 0.75959,0.444957 1.51917,1.271587 2.27876,2.376582 11.39379,12.533317 4.55751,4.577443 4.55752,4.302625 5.3171,4.693262 5.3171,4.364969 5.3171,4.059626 5.3171,3.775639 5.3171,3.511518 5.3171,3.265874 6.07669,3.453627 6.07669,3.178926 6.07668,2.926076 6.07669,2.693333 6.83627,2.7748 6.83628,2.52777 6.83627,2.30273 7.59586,2.31897 7.59586,2.09074 8.35544,2.06295 8.35545,1.84077 8.35544,1.64249 0,0"
           style="fill:none;stroke:#000080;stroke-width:1.5;stroke-linecap:square;stroke-linejoin:round"
           id="path307"
           inkscape:connector-curvature="0" />
      </g>
      <g
         id="line2d_43"
         style="stroke-linecap:butt;stroke-linejoin:round">
        <path
           clip-path="url(#pa7f014797a)"
           d="m 258.98453,128.61603 0.75959,-39.521532 0.75958,-53.354067 0.75959,1.976076 0.75958,-5.928229 0.75959,5.928229 0.75959,-17.784689 0.75958,17.784689 0.75959,-1.976076 0.75958,-9.880383 0.75959,-3.952153 0.75959,19.760765 0.75958,-1.976076 0.75959,-5.92823 0.75958,1.976077 0.75959,5.928229 0.75959,21.736842 0.75958,-19.760765 0.75959,-5.92823 0.75958,11.85646 0.75959,15.808612 0.75958,-1.976077 0.75959,9.880383 0.75959,-7.904306 0.75958,-31.617225 0.75959,35.569378 0.75958,-9.880383 0.75959,-27.665071 0.75959,31.617224 0.75958,5.92823 0.75959,-13.832536 0.75958,11.85646 0.75959,-13.832536 0.75959,3.952153 0.75958,13.832536 0.75959,-7.904307 0.75958,7.904307 0.75959,3.952153 0.75958,9.880382 0.75959,-11.856459 0.75959,-15.808612 0.75958,25.688995 0.75959,-7.904306 0.75958,-11.85646 0.75959,11.85646 0.75959,-21.736842 0.75958,3.952153 0.75959,5.928229 0.75958,27.665072 0.75959,-5.92823 0.75958,-11.856459 0.75959,1.976077 0.75959,-7.904306 0.75958,15.808612 0.75959,-13.832536 0.75958,-1.976076 0.75959,7.904306 0.75959,13.832536 0.75958,-7.904307 0.75959,7.904307 0.75958,3.952153 0.75959,-13.832536 0.75959,7.904306 0.75958,5.92823 0.75959,-3.952153 0.75958,7.904306 0.75959,-5.92823 0.75958,5.92823 0.75959,7.904306 0.75959,-11.856459 0.75958,5.928229 0.75959,-31.617224 0.75958,29.641148 0.75959,3.952156 0.75959,-3.952156 0.75958,3.952156 0.75959,-5.928233 0.75958,3.952153 0.75959,-1.976076 0.75959,0 0.75958,15.808616 0.75959,-5.92823 0.75958,-11.856463 0.75959,1.976077 0.75958,9.880386 0.75959,-5.92823 0.75959,-13.832539 0.75958,13.832539 0.75959,-3.952156 0.75958,-9.880383 0.75959,5.92823 0.75959,3.952153 1.51917,-3.952153 0.75958,-3.952153 0.75959,25.688992 0.75959,-27.665069 0.75958,5.92823 0.75959,15.808609 0.75958,-7.9043 0.75959,17.78469 0.75958,-21.736846 0.75959,17.784686 0.75959,-17.784686 0.75958,9.880386 0.75959,-15.808616 0.75958,13.832536 0.75959,7.90431 0.75959,-17.784693 0.75958,13.832533 0.75959,-5.92823 0.75958,7.90431 0.75959,-17.784689 0.75959,19.760769 0.75958,-5.92823 0.75959,0 0.75958,15.80861 0.75959,-17.78469 0.75958,1.97608 0.75959,-3.95216 0.75959,15.80862 0.75958,-11.85646 0.75959,7.9043 0.75958,-1.97607 0.75959,-5.92823 0.75959,-11.856463 0.75958,1.976077 0.75959,7.904306 0.75958,9.88038 0.75959,7.90431 0.75959,-11.85646 0.75958,1.97608 0.75959,5.92823 0.75958,-7.90431 0.75959,-1.97608 0.75958,9.88039 0.75959,7.9043 0.75959,-21.73684 0.75958,9.88038 0.75959,1.97608 0.75958,9.88038 0.75959,-13.83253 0.75959,15.80861 0.75958,-7.90431 0.75959,-9.88038 0.75958,19.76076 0.75959,-3.95215 0.75959,-13.83253 1.51917,-7.90431 0.75958,11.85646 0.75959,-1.97608 0.75958,9.88039 0.75959,-1.97608 0.75959,5.92823 0.75958,-11.85646 0.75959,1.97608 0.75958,-1.97608 0.75959,1.97608 0.75959,3.95215 0.75958,1.97608 0.75959,-3.95216 0.75958,-9.88038 0.75959,0 0.75959,13.83254 0.75958,-15.80862 0.75959,7.90431 0.75958,3.95215 0.75959,-1.97607 0.75958,3.95215 0.75959,-13.83254 0.75959,15.80862 0.75958,-7.90431 0.75959,-9.88038 0.75958,13.83253 0.75959,-5.92823 0.75958,9.88039 0.75959,-5.92823 0.75959,0 0.75958,-9.88039 0.75959,9.88039 0.75959,1.97607 0.75958,0 0.75959,1.97608 0.75958,5.92823 0.75959,-7.90431 0.75958,1.97608 1.51918,7.9043 0.75958,0 0.75959,-9.88038 0.75958,1.97608 0.75959,-11.85646 0.75958,13.83254 1.51918,0 0.75958,-1.97608 1.51918,0 0.75958,3.95215 0,0"
           style="fill:none;stroke:#004cff;stroke-width:1.5;stroke-linecap:square;stroke-linejoin:round"
           id="path310"
           inkscape:connector-curvature="0" />
      </g>
      <g
         id="line2d_44"
         style="stroke-linecap:butt;stroke-linejoin:round">
        <path
           clip-path="url(#pa7f014797a)"
           d="m 258.98453,132.56818 0.75959,-58.619756 0.75958,-24.616943 0.75959,-9.918908 0.75958,-3.570703 0.75959,-0.833956 0.75959,0.340831 0.75958,0.840133 2.27876,3.330726 4.55752,6.788977 3.79792,5.294817 3.79793,4.969945 4.55752,5.562905 4.55751,5.155695 4.55752,4.778292 4.55751,4.428516 4.55752,4.104344 4.55752,3.803901 4.55751,3.525452 4.55752,3.267384 4.55751,3.028209 5.3171,3.253903 5.3171,2.977746 5.3171,2.72503 5.31711,2.49375 6.07668,2.59192 6.07669,2.34208 6.07669,2.11633 6.83627,2.13803 6.83627,1.90762 7.59586,1.87946 7.59586,1.6558 8.35545,1.59473 9.11502,1.50405 4.55752,0.6705 0,0"
           style="fill:none;stroke:#004cff;stroke-width:1.5;stroke-linecap:square;stroke-linejoin:round"
           id="path313"
           inkscape:connector-curvature="0" />
      </g>
      <g
         id="line2d_45"
         style="stroke-linecap:butt;stroke-linejoin:round">
        <path
           clip-path="url(#pa7f014797a)"
           d="m 258.98453,121.24495 0.75959,-45.29293 0.75958,-35.161616 0.75959,17.282828 0.75958,-25.030303 0.75959,1.787879 0.75959,-14.89899 0.75958,14.30303 0.75959,-8.343434 0.75958,8.939394 0.75959,1.787879 1.51917,-11.323232 0.75959,0.595959 0.75958,4.767677 0.75959,8.939394 0.75959,-1.191919 0.75958,2.383838 0.75959,0 0.75958,4.767677 0.75959,1.787879 0.75958,-7.151516 0.75959,3.575758 0.75959,13.707071 0.75958,-4.171717 0.75959,-8.939394 0.75958,11.919192 0.75959,-11.323233 0.75959,3.575758 0.75958,4.171717 0.75959,8.343434 0.75958,-6.555555 0.75959,1.787879 0.75959,1.191919 0.75958,-5.959596 0.75959,11.919192 0.75958,-6.555556 0.75959,17.878788 0.75958,-21.454545 0.75959,11.323232 0.75959,-2.979798 0.75958,8.939394 0.75959,-2.979798 0.75958,4.171717 0.75959,-1.787879 0.75959,-4.767677 0.75958,7.747475 0.75959,-5.363636 0.75958,7.747475 0.75959,1.787878 0.75958,2.979798 1.51918,0 0.75958,-5.363636 0.75959,0 0.75958,15.49495 1.51918,-8.939394 0.75958,2.979798 0.75959,-5.959596 0.75958,9.535353 0.75959,-5.363636 1.51917,7.747475 0.75959,3.575757 0.75958,-4.171717 0.75959,-0.59596 0.75958,7.747475 0.75959,-10.727273 0.75959,1.19192 0.75958,9.535353 0.75959,-7.151515 0.75958,-2.979798 0.75959,7.151515 0.75959,2.383838 0.75958,-10.131313 0.75959,4.171718 0.75958,-2.979798 0.75959,4.171717 0.75959,2.979798 0.75958,0.595959 0.75959,5.959593 0.75958,-4.171714 0.75959,10.131314 0.75958,-13.111112 0.75959,3.575758 0.75959,5.959594 0.75958,1.19192 0.75959,-4.17172 0.75958,8.9394 1.51918,-10.131316 0.75958,0.59596 0.75959,-0.59596 0.75958,1.191916 0.75959,-4.171714 0.75959,4.171714 0.75958,11.9192 0.75959,-16.090914 0.75958,10.131314 0.75959,-0.59596 0.75958,1.78788 0.75959,-2.9798 0.75959,7.15152 0.75958,-0.59596 0.75959,-5.9596 0.75958,-1.19192 0.75959,-10.727272 0.75959,15.494952 0.75958,-4.76768 0.75959,2.38384 0.75958,-2.9798 0.75959,8.34344 0.75959,-2.38384 0.75958,2.38384 0.75959,-1.78788 0.75958,-5.9596 0.75959,0.59596 0.75958,8.93939 0.75959,1.78788 0.75959,-2.97979 0.75958,-4.17172 0.75959,0 0.75958,5.95959 0.75959,-4.76767 0.75959,-2.9798 0.75958,5.9596 0.75959,-1.78788 0.75958,0 0.75959,-3.57576 0.75959,8.93939 0.75958,-8.93939 0.75959,-1.19192 0.75958,13.70707 0.75959,-10.72727 0.75958,2.9798 0.75959,2.38383 0.75959,-4.76767 0.75958,4.17171 0.75959,-7.74747 0.75958,11.91919 0.75959,1.19192 0.75959,-5.95959 0.75958,1.19191 0.75959,6.55556 0.75958,-4.17172 0.75959,1.19192 0.75959,2.38384 0.75958,-2.9798 0.75959,1.78788 0.75958,-0.59596 0.75959,-2.9798 0.75958,3.57576 0.75959,-2.38384 0.75959,-0.59596 0.75958,4.17172 0.75959,-1.78788 0.75958,3.57576 0.75959,-1.19192 0.75959,3.57576 0.75958,-10.72728 0.75959,6.55556 0.75958,-7.74747 0.75959,8.93939 0.75959,-1.78788 0.75958,2.9798 0.75959,-10.13131 0.75958,4.17171 0.75959,1.78788 1.51917,7.74748 0.75959,-3.57576 0.75958,2.9798 0.75959,-4.76768 0.75958,-1.78788 0.75959,-3.57576 0.75958,13.11111 0.75959,-13.70707 0.75959,2.9798 0.75958,3.57576 0.75959,0.59596 0.75959,-1.19192 0.75958,-6.55556 0.75959,6.55556 0.75958,-2.38384 0.75959,1.19192 0.75958,-4.17172 0.75959,8.34344 0.75959,-2.9798 0.75958,3.57576 0.75959,0 0.75958,0.59596 0.75959,-2.9798 0.75958,0 1.51918,-3.57576 0.75958,8.34344 0.75959,-2.38384 0.75959,0 0.75958,-4.17172 0,0"
           style="fill:none;stroke:#29ffce;stroke-width:1.5;stroke-linecap:square;stroke-linejoin:round"
           id="path316"
           inkscape:connector-curvature="0" />
      </g>
      <g
         id="line2d_46"
         style="stroke-linecap:butt;stroke-linejoin:round">
        <path
           clip-path="url(#pa7f014797a)"
           d="m 258.98453,132.56818 0.75959,-53.574636 0.75958,-26.868789 0.75959,-13.131208 0.75958,-6.068983 0.75959,-2.442806 0.75959,-0.585228 0.75958,0.362072 0.75959,0.840921 1.51917,2.271371 7.59586,12.243434 3.79793,5.603308 3.79793,5.242387 3.79793,4.904563 3.79793,4.588504 3.79793,4.292811 4.55751,4.787801 4.55752,4.419987 4.55751,4.080429 4.55752,3.766957 4.55751,3.477567 4.55752,3.210409 4.55751,2.963775 5.3171,3.171214 5.3171,2.88885 5.31711,2.63162 5.3171,2.3973 6.07668,2.47953 6.07669,2.22886 6.07669,2.00352 6.83627,2.0129 6.83627,1.78546 7.59586,1.74825 8.35545,1.67229 8.35544,1.44433 7.59586,1.14144 0,0"
           style="fill:none;stroke:#29ffce;stroke-width:1.5;stroke-linecap:square;stroke-linejoin:round"
           id="path319"
           inkscape:connector-curvature="0" />
      </g>
      <g
         id="line2d_47"
         style="stroke-linecap:butt;stroke-linejoin:round">
        <path
           clip-path="url(#pa7f014797a)"
           d="m 258.98453,126.56091 0.75959,-25.53091 0.75958,-51.061818 0.75959,-13.516364 0.75958,-6.007273 0.75959,12.014546 0.75959,-21.025455 0.75958,12.014546 0.75959,-13.516364 0.75958,15.018182 0.75959,18.021818 0.75959,-13.516363 0.75958,-1.501819 0.75959,15.018182 0.75958,-4.505454 0.75959,-19.523637 0.75959,12.014546 0.75958,7.509091 0.75959,3.003636 0.75958,1.501818 0.75959,-12.014545 0.75958,6.007272 0.75959,19.523637 0.75959,-27.032727 0.75958,27.032727 0.75959,1.501818 0.75958,-1.501818 0.75959,-7.509091 0.75959,13.516364 0.75958,-12.014546 0.75959,1.501818 0.75958,18.021818 0.75959,-7.50909 0.75959,1.501818 0.75958,-30.036364 0.75959,24.029091 0.75958,-3.003636 0.75959,12.014545 0.75958,0 0.75959,3.003636 0.75959,-15.018181 0.75958,18.021818 0.75959,-10.512727 0.75958,0 0.75959,4.505454 0.75959,1.501818 0.75958,15.018182 0.75959,1.501818 0.75958,-6.007272 0.75959,-7.509091 0.75958,1.501818 0.75959,-10.512727 0.75959,16.52 0.75958,3.003636 0.75959,-4.505455 0.75958,-3.003636 0.75959,-19.523636 0.75959,46.556366 0.75958,-18.021821 0.75959,-3.003636 0.75958,7.509091 0.75959,-4.505455 0.75959,-12.014545 0.75958,24.029096 1.51917,-18.021824 0.75959,3.003637 0.75958,7.509091 0.75959,-6.007273 0.75959,3.003636 1.51917,12.014543 0.75958,-13.516361 0.75959,3.003636 0.75959,-3.003636 0.75958,18.021821 0.75959,-15.018185 0.75958,7.509095 0.75959,0 0.75959,-7.509095 0.75958,6.007275 0.75959,-1.50182 0.75958,12.01455 0.75959,-4.50546 0.75958,9.01091 0.75959,-10.51273 0.75959,-7.509088 0.75958,21.025458 0.75959,-9.01091 0.75958,0 0.75959,-3.00364 0.75959,9.01091 0.75958,-4.50545 0.75959,9.0109 0.75958,-16.51999 0.75959,3.00363 0.75959,-4.50545 0.75958,10.51272 0.75959,4.50546 0.75958,-13.51636 0.75959,10.51272 1.51917,-12.01454 0.75959,3.00363 0.75958,7.50909 0.75959,-9.0109 0.75958,10.51272 0.75959,-13.51636 0.75959,10.51273 0.75958,-7.50909 0.75959,12.01454 0.75958,4.50545 0.75959,-12.01454 0.75959,4.50545 0.75958,-9.0109 0.75959,13.51636 0.75958,0 0.75959,-3.00364 0.75958,-1.50182 0.75959,-10.51272 0.75959,16.52 0.75958,-1.50182 0.75959,-13.51636 0.75958,-3.00364 0.75959,18.02182 0.75959,-6.00728 0.75958,9.01091 0.75959,-4.50545 1.51917,-6.00727 0.75959,6.00727 1.51917,6.00727 0.75958,-7.50909 0.75959,-3.00364 0.75958,7.50909 0.75959,-6.00727 0.75959,4.50546 0.75958,0 0.75959,-1.50182 0.75958,0 0.75959,1.50182 0.75959,0 0.75958,7.50909 0.75959,-4.50546 0.75958,-1.50182 0.75959,3.00364 1.51917,3.00364 0.75959,-9.01091 0.75958,4.50545 0.75959,-1.50182 0.75958,0 0.75959,3.00364 0.75959,-1.50182 0.75958,1.50182 0.75959,-9.01091 0.75958,9.01091 0.75959,-6.00727 0.75959,0 0.75958,3.00363 0.75959,6.00728 0.75958,-9.01091 0.75959,6.00727 0.75959,-3.00364 0.75958,1.50182 0.75959,6.00727 0.75958,-15.01818 0.75959,7.50909 0.75958,4.50546 0.75959,-4.50546 0.75959,-6.00727 0.75958,9.01091 1.51917,-3.00364 0.75959,6.00728 2.27876,-4.50546 0.75958,4.50546 0.75959,0 0.75959,-1.50182 0.75958,3.00363 0.75959,-4.50545 0.75958,-3.00364 1.51917,6.00728 0.75959,-3.00364 0.75959,-1.50182 0.75958,3.00364 0.75959,-3.00364 0.75958,6.00727 0.75959,-7.50909 0.75958,7.50909 0.75959,-4.50545 0.75959,4.50545 0.75958,-4.50545 0.75959,6.00727 0.75959,-3.00363 0.75958,0 0,0"
           style="fill:none;stroke:#ceff29;stroke-width:1.5;stroke-linecap:square;stroke-linejoin:round"
           id="path322"
           inkscape:connector-curvature="0" />
      </g>
      <g
         id="line2d_48"
         style="stroke-linecap:butt;stroke-linejoin:round">
        <path
           clip-path="url(#pa7f014797a)"
           d="m 258.98453,132.56818 0.75959,-50.178233 0.75958,-25.916194 0.75959,-13.005251 0.75958,-6.140699 0.75959,-2.496782 0.75959,-0.568256 0.75958,0.446704 0.75959,0.975216 1.51917,2.621452 6.83627,12.714392 3.79793,6.396546 3.79793,5.89535 3.79793,5.432904 3.79793,5.00671 3.79793,4.613949 3.79793,4.251998 3.79793,3.918442 3.79793,3.611052 3.79793,3.327776 3.79793,3.066722 4.55751,3.364195 4.55752,3.050037 4.55751,2.76522 4.55752,2.507 4.55751,2.2729 5.3171,2.38487 5.31711,2.12712 5.3171,1.89724 6.07668,1.91852 6.07669,1.68344 6.83627,1.64862 6.83628,1.42316 7.59586,1.35423 8.35544,1.2551 9.11503,1.13495 9.11503,0.93288 0,0"
           style="fill:none;stroke:#ceff29;stroke-width:1.5;stroke-linecap:square;stroke-linejoin:round"
           id="path325"
           inkscape:connector-curvature="0" />
      </g>
      <g
         id="line2d_49"
         style="stroke-linecap:butt;stroke-linejoin:round">
        <path
           clip-path="url(#pa7f014797a)"
           d="m 258.98453,129.91479 0.75959,-35.422741 0.75958,-50.945069 0.75959,-23.615162 0.75958,6.102795 1.51918,27.329907 0.75958,5.572117 0.75959,13.399614 0.75958,0.796017 0.75959,-2.786059 0.75959,1.857373 0.75958,4.643431 1.51917,4.378091 0.75959,3.847414 0.75959,-0.928686 0.75958,-2.520719 0.75959,0.398008 0.75958,2.653389 0.75959,3.980084 0.75958,-0.663348 0.75959,4.378092 0.75959,-1.194025 0.75958,1.592034 0.75959,1.061355 0.75958,-2.786058 0.75959,5.970125 0.75959,-0.663347 0.75958,-2.653389 0.75959,-0.928686 0.75958,2.520719 0.75959,1.592034 0.75959,-3.582076 0.75958,3.184067 0.75959,1.857373 0.75958,-2.786059 1.51917,7.694825 0.75959,-2.12271 0.75959,-2.520718 1.51917,6.102798 0.75958,-1.06136 0.75959,1.85737 0.75959,-2.52072 0.75958,2.52072 0.75959,-0.92868 0.75958,1.06135 0.75959,-3.84741 0.75958,2.12271 0.75959,1.3267 1.51917,5.30677 0.75959,-5.97012 0.75958,1.85737 0.75959,0.66335 0.75959,3.58207 0.75958,-3.4494 0.75959,3.58207 0.75958,-1.7247 0.75959,2.25538 0.75959,1.45936 1.51917,-3.05139 0.75958,3.18406 0.75959,-0.79601 0.75958,-1.06136 0.75959,3.0514 0.75959,-1.59204 0.75958,-1.06135 0.75959,-0.39801 0.75958,1.06136 0.75959,-1.06136 0.75959,3.31674 1.51917,0.53068 0.75958,2.38804 0.75959,-1.99004 0.75959,-1.45936 0.75958,3.0514 0.75959,-3.84742 0.75958,0.26534 0.75959,0.53068 0.75958,4.64343 0.75959,-1.32669 0.75959,0.13266 0.75958,-1.85737 0.75959,0.92869 0.75958,-0.13267 0.75959,2.25538 0.75959,-2.12271 0.75958,3.71474 0.75959,-0.13267 0.75958,-1.19402 0.75959,1.06135 0.75959,0.13267 0.75958,-2.38805 0.75959,3.18407 0.75958,-0.13267 0.75959,-1.19402 0.75958,0.79601 0.75959,0.39801 0.75959,-1.06135 0.75958,0.79601 0.75959,0.26534 0.75958,-1.45936 0.75959,1.99004 0.75959,-0.92869 0.75958,1.85737 0.75959,0.13268 0.75958,-2.52072 0.75959,0.92868 0.75959,2.12271 0.75958,-0.92868 0.75959,1.06135 0.75958,0.26534 0.75959,-3.4494 0.75958,2.78605 0.75959,-0.53067 0.75959,1.7247 0.75958,-0.92869 0.75959,0 0.75958,1.3267 0.75959,-1.19403 0.75959,0.79602 0.75958,-0.53068 2.27876,1.19403 0.75959,0 0.75958,-1.3267 0.75959,1.99004 0.75958,1.59204 0.75959,-3.18407 0.75958,-0.66335 0.75959,1.59204 0.75959,1.06135 0.75958,0.79602 0.75959,-1.99004 0.75958,-0.66335 0.75959,1.32669 0.75959,0.26534 0.75958,0.53068 0.75959,-1.99004 0.75958,2.78606 0.75959,-2.12271 0.75959,0.92868 0.75958,-0.79601 0.75959,0.79601 0.75958,1.06136 0.75959,-1.72471 0.75958,2.12272 0.75959,-1.85738 0.75959,1.59204 0.75958,-1.45937 0.75959,1.72471 0.75958,-0.39801 1.51918,0.26534 0.75958,1.19402 0.75959,-0.79601 0.75958,-0.26534 0.75959,0.53067 0.75959,-0.26533 0.75958,-1.19403 0.75959,2.12271 0.75958,-0.13267 0.75959,0.26534 0.75958,-0.66335 0.75959,1.45937 0.75959,-1.72471 1.51917,1.99005 0.75958,-1.85738 0.75959,0.39801 0.75958,-1.99004 1.51918,4.24542 0.75958,-1.7247 0.75959,0.39801 0.75959,0.13267 0.75958,-1.99004 0.75959,2.78605 0.75958,-1.99004 0.75959,1.99004 0.75958,-0.66334 0.75959,-0.39801 0.75959,0.26534 0.75958,-0.53068 0.75959,0.13267 1.51917,-1.06136 0.75958,-0.26533 0.75959,2.12271 0.75959,0.398 0.75958,-0.53067 0.75959,-1.3267 0.75959,0.79602 0.75958,0 0,0"
           style="fill:none;stroke:#ff6800;stroke-width:1.5;stroke-linecap:square;stroke-linejoin:round"
           id="path328"
           inkscape:connector-curvature="0" />
      </g>
      <g
         id="line2d_50"
         style="stroke-linecap:butt;stroke-linejoin:round">
        <path
           clip-path="url(#pa7f014797a)"
           d="m 258.98453,132.56818 0.75959,-56.943896 0.75958,-12.535628 0.75959,-1.923377 0.75958,0.596888 1.51918,2.479475 3.79793,6.33334 3.03834,4.65101 3.03834,4.30208 3.03835,3.979317 3.03834,3.680771 3.79793,4.215092 3.79793,3.823576 3.79793,3.468426 3.79793,3.146266 3.79793,2.85402 3.79793,2.58893 3.79793,2.34846 4.55751,2.53203 4.55752,2.2525 4.55751,2.00382 4.55752,1.78261 5.3171,1.83253 5.3171,1.59875 6.07669,1.57895 6.07668,1.35092 6.83628,1.28803 7.59585,1.18952 8.35545,1.0666 9.11503,0.93019 10.6342,0.84295 12.15338,0.71976 8.35544,0.37952 0,0"
           style="fill:none;stroke:#ff6800;stroke-width:1.5;stroke-linecap:square;stroke-linejoin:round"
           id="path331"
           inkscape:connector-curvature="0" />
      </g>
      <g
         id="patch_9"
         style="stroke-linecap:butt;stroke-linejoin:round">
        <path
           d="m 258.98453,138.2 0,-123.9"
           style="fill:none;stroke:#000000;stroke-linecap:square;stroke-linejoin:miter"
           id="path334"
           inkscape:connector-curvature="0" />
      </g>
      <g
         id="patch_10"
         style="stroke-linecap:butt;stroke-linejoin:round">
        <path
           d="m 417.7,138.2 0,-123.9"
           style="fill:none;stroke:#000000;stroke-linecap:square;stroke-linejoin:miter"
           id="path337"
           inkscape:connector-curvature="0" />
      </g>
      <g
         id="patch_11"
         style="stroke-linecap:butt;stroke-linejoin:round">
        <path
           d="M 258.98453,138.2 417.7,138.2"
           style="fill:none;stroke:#000000;stroke-linecap:square;stroke-linejoin:miter"
           id="path340"
           inkscape:connector-curvature="0" />
      </g>
      <g
         id="patch_12"
         style="stroke-linecap:butt;stroke-linejoin:round">
        <path
           d="M 258.98453,14.3 417.7,14.3"
           style="fill:none;stroke:#000000;stroke-linecap:square;stroke-linejoin:miter"
           id="path343"
           inkscape:connector-curvature="0" />
      </g>
      <g
         id="legend_2"
         style="stroke-linecap:butt;stroke-linejoin:round">
        <g
           id="patch_13"
           style="stroke-linecap:butt;stroke-linejoin:round">
          <path
             d="m 340.895,80.525 71.205,0 q 1.6,0 1.6,-1.6 l 0,-59.025 q 0,-1.6 -1.6,-1.6 l -71.205,0 q -1.6,0 -1.6,1.6 l 0,59.025 q 0,1.6 1.6,1.6 z"
             style="opacity:0.8;fill:#ffffff;stroke:#cccccc;stroke-linecap:butt;stroke-linejoin:miter"
             id="path347"
             inkscape:connector-curvature="0" />
        </g>
        <g
           id="line2d_51"
           style="stroke-linecap:butt;stroke-linejoin:round">
          <path
             d="m 342.495,24.77875 16,0"
             style="fill:none;stroke:#000080;stroke-width:1.5;stroke-linecap:square;stroke-linejoin:round"
             id="path350"
             inkscape:connector-curvature="0" />
        </g>
        <g
           id="line2d_52"
           style="stroke-linecap:butt;stroke-linejoin:round" />
        <g
           id="text_30"
           style="stroke-linecap:butt;stroke-linejoin:round">
          <text
             style="font-style:normal;font-weight:400;font-size:8px;font-family:'DejaVu Sans';text-anchor:start;stroke-linecap:butt;stroke-linejoin:round"
             x="364.89499"
             y="27.578751"
             id="text354">100 mV_off</text>
        </g>
        <g
           id="line2d_53"
           style="stroke-linecap:butt;stroke-linejoin:round">
          <path
             d="m 342.495,36.74375 16,0"
             style="fill:none;stroke:#004cff;stroke-width:1.5;stroke-linecap:square;stroke-linejoin:round"
             id="path357"
             inkscape:connector-curvature="0" />
        </g>
        <g
           id="line2d_54"
           style="stroke-linecap:butt;stroke-linejoin:round" />
        <g
           id="text_31"
           style="stroke-linecap:butt;stroke-linejoin:round">
          <text
             style="font-style:normal;font-weight:400;font-size:8px;font-family:'DejaVu Sans';text-anchor:start;stroke-linecap:butt;stroke-linejoin:round"
             x="364.89499"
             y="39.543751"
             id="text361">80 mV_off</text>
        </g>
        <g
           id="line2d_55"
           style="stroke-linecap:butt;stroke-linejoin:round">
          <path
             d="m 342.495,48.70875 16,0"
             style="fill:none;stroke:#29ffce;stroke-width:1.5;stroke-linecap:square;stroke-linejoin:round"
             id="path364"
             inkscape:connector-curvature="0" />
        </g>
        <g
           id="line2d_56"
           style="stroke-linecap:butt;stroke-linejoin:round" />
        <g
           id="text_32"
           style="stroke-linecap:butt;stroke-linejoin:round">
          <text
             style="font-style:normal;font-weight:400;font-size:8px;font-family:'DejaVu Sans';text-anchor:start;stroke-linecap:butt;stroke-linejoin:round"
             x="364.89499"
             y="51.508751"
             id="text368">75 mV_off</text>
        </g>
        <g
           id="line2d_57"
           style="stroke-linecap:butt;stroke-linejoin:round">
          <path
             d="m 342.495,60.67375 16,0"
             style="fill:none;stroke:#ceff29;stroke-width:1.5;stroke-linecap:square;stroke-linejoin:round"
             id="path371"
             inkscape:connector-curvature="0" />
        </g>
        <g
           id="line2d_58"
           style="stroke-linecap:butt;stroke-linejoin:round" />
        <g
           id="text_33"
           style="stroke-linecap:butt;stroke-linejoin:round">
          <text
             style="font-style:normal;font-weight:400;font-size:8px;font-family:'DejaVu Sans';text-anchor:start;stroke-linecap:butt;stroke-linejoin:round"
             x="364.89499"
             y="63.473751"
             id="text375">60 mV_off</text>
        </g>
        <g
           id="line2d_59"
           style="stroke-linecap:butt;stroke-linejoin:round">
          <path
             d="m 342.495,72.63875 16,0"
             style="fill:none;stroke:#ff6800;stroke-width:1.5;stroke-linecap:square;stroke-linejoin:round"
             id="path378"
             inkscape:connector-curvature="0" />
        </g>
        <g
           id="line2d_60"
           style="stroke-linecap:butt;stroke-linejoin:round" />
        <g
           id="text_34"
           style="stroke-linecap:butt;stroke-linejoin:round">
          <text
             style="font-style:normal;font-weight:400;font-size:8px;font-family:'DejaVu Sans';text-anchor:start;stroke-linecap:butt;stroke-linejoin:round"
             x="364.89499"
             y="75.438751"
             id="text382">50 mV_off</text>
        </g>
      </g>
    </g>
  </g>
  <defs
     id="defs384">
    <clipPath
       id="p567a9599b1"
       style="stroke-linecap:butt;stroke-linejoin:round">
      <rect
         height="123.9"
         width="158.71547"
         x="47.799999"
         y="14.3"
         id="rect387"
         style="stroke-linecap:butt;stroke-linejoin:round" />
    </clipPath>
    <clipPath
       id="pa7f014797a"
       style="stroke-linecap:butt;stroke-linejoin:round">
      <rect
         height="123.9"
         width="158.71547"
         x="258.98453"
         y="14.3"
         id="rect390"
         style="stroke-linecap:butt;stroke-linejoin:round" />
    </clipPath>
  </defs>
</svg>
